<svg width="16" height="16" viewBox="0 0 16 16" fill="none" xmlns="http://www.w3.org/2000/svg">
<path d="M14.0002 2.66671H12.0002V2.00004C12.0002 1.82323 11.9299 1.65366 11.8049 1.52864C11.6799 1.40361 11.5103 1.33337 11.3335 1.33337H4.66683C4.49002 1.33337 4.32045 1.40361 4.19542 1.52864C4.0704 1.65366 4.00016 1.82323 4.00016 2.00004V2.66671H2.00016C1.82335 2.66671 1.65378 2.73695 1.52876 2.86197C1.40373 2.98699 1.3335 3.15656 1.3335 3.33337V5.33337C1.3335 6.04062 1.61445 6.71889 2.11454 7.21899C2.61464 7.71909 3.29292 8.00004 4.00016 8.00004H5.02683C5.62985 8.6728 6.44287 9.12161 7.3335 9.27337V10.6667H6.66683C6.1364 10.6667 5.62769 10.8774 5.25262 11.2525C4.87754 11.6276 4.66683 12.1363 4.66683 12.6667V14C4.66683 14.1769 4.73707 14.3464 4.86209 14.4714C4.98712 14.5965 5.15668 14.6667 5.3335 14.6667H10.6668C10.8436 14.6667 11.0132 14.5965 11.1382 14.4714C11.2633 14.3464 11.3335 14.1769 11.3335 14V12.6667C11.3335 12.1363 11.1228 11.6276 10.7477 11.2525C10.3726 10.8774 9.86393 10.6667 9.3335 10.6667H8.66683V9.27337C9.55746 9.12161 10.3705 8.6728 10.9735 8.00004H12.0002C12.7074 8.00004 13.3857 7.71909 13.8858 7.21899C14.3859 6.71889 14.6668 6.04062 14.6668 5.33337V3.33337C14.6668 3.15656 14.5966 2.98699 14.4716 2.86197C14.3465 2.73695 14.177 2.66671 14.0002 2.66671ZM4.00016 6.66671C3.64654 6.66671 3.3074 6.52623 3.05735 6.27618C2.80731 6.02613 2.66683 5.687 2.66683 5.33337V4.00004H4.00016V5.33337C4.00163 5.78785 4.08054 6.23875 4.2335 6.66671H4.00016ZM9.3335 12C9.51031 12 9.67988 12.0703 9.8049 12.1953C9.92992 12.3203 10.0002 12.4899 10.0002 12.6667V13.3334H6.00016V12.6667C6.00016 12.4899 6.0704 12.3203 6.19542 12.1953C6.32045 12.0703 6.49002 12 6.66683 12H9.3335ZM10.6668 5.33337C10.6668 6.04062 10.3859 6.71889 9.88578 7.21899C9.38568 7.71909 8.70741 8.00004 8.00016 8.00004C7.29292 8.00004 6.61464 7.71909 6.11454 7.21899C5.61445 6.71889 5.3335 6.04062 5.3335 5.33337V2.66671H10.6668V5.33337ZM13.3335 5.33337C13.3335 5.687 13.193 6.02613 12.943 6.27618C12.6929 6.52623 12.3538 6.66671 12.0002 6.66671H11.7668C11.9198 6.23875 11.9987 5.78785 12.0002 5.33337V4.00004H13.3335V5.33337Z" fill="#828282"/>
</svg>
