<svg width="16" height="16" viewBox="0 0 16 16" fill="none" xmlns="http://www.w3.org/2000/svg">
<path d="M6.66683 8.66671H2.00016C1.82335 8.66671 1.65378 8.73695 1.52876 8.86197C1.40373 8.98699 1.3335 9.15656 1.3335 9.33337V14C1.3335 14.1769 1.40373 14.3464 1.52876 14.4714C1.65378 14.5965 1.82335 14.6667 2.00016 14.6667H6.66683C6.84364 14.6667 7.01321 14.5965 7.13823 14.4714C7.26326 14.3464 7.3335 14.1769 7.3335 14V9.33337C7.3335 9.15656 7.26326 8.98699 7.13823 8.86197C7.01321 8.73695 6.84364 8.66671 6.66683 8.66671ZM6.00016 13.3334H2.66683V10H6.00016V13.3334ZM14.0002 1.33337H9.3335C9.15668 1.33337 8.98712 1.40361 8.86209 1.52864C8.73707 1.65366 8.66683 1.82323 8.66683 2.00004V6.66671C8.66683 6.84352 8.73707 7.01309 8.86209 7.13811C8.98712 7.26314 9.15668 7.33337 9.3335 7.33337H14.0002C14.177 7.33337 14.3465 7.26314 14.4716 7.13811C14.5966 7.01309 14.6668 6.84352 14.6668 6.66671V2.00004C14.6668 1.82323 14.5966 1.65366 14.4716 1.52864C14.3465 1.40361 14.177 1.33337 14.0002 1.33337ZM13.3335 6.00004H10.0002V2.66671H13.3335V6.00004ZM14.0002 8.66671H9.3335C9.15668 8.66671 8.98712 8.73695 8.86209 8.86197C8.73707 8.98699 8.66683 9.15656 8.66683 9.33337V14C8.66683 14.1769 8.73707 14.3464 8.86209 14.4714C8.98712 14.5965 9.15668 14.6667 9.3335 14.6667H14.0002C14.177 14.6667 14.3465 14.5965 14.4716 14.4714C14.5966 14.3464 14.6668 14.1769 14.6668 14V9.33337C14.6668 9.15656 14.5966 8.98699 14.4716 8.86197C14.3465 8.73695 14.177 8.66671 14.0002 8.66671ZM13.3335 13.3334H10.0002V10H13.3335V13.3334ZM6.66683 1.33337H2.00016C1.82335 1.33337 1.65378 1.40361 1.52876 1.52864C1.40373 1.65366 1.3335 1.82323 1.3335 2.00004V6.66671C1.3335 6.84352 1.40373 7.01309 1.52876 7.13811C1.65378 7.26314 1.82335 7.33337 2.00016 7.33337H6.66683C6.84364 7.33337 7.01321 7.26314 7.13823 7.13811C7.26326 7.01309 7.3335 6.84352 7.3335 6.66671V2.00004C7.3335 1.82323 7.26326 1.65366 7.13823 1.52864C7.01321 1.40361 6.84364 1.33337 6.66683 1.33337ZM6.00016 6.00004H2.66683V2.66671H6.00016V6.00004Z" fill="url(#paint0_linear_1287_2448)"/>
<defs>
<linearGradient id="paint0_linear_1287_2448" x1="8.00016" y1="1.33337" x2="8.00016" y2="14.6667" gradientUnits="userSpaceOnUse">
<stop stop-color="#71EA87"/>
<stop offset="1" stop-color="#24AA2D"/>
</linearGradient>
</defs>
</svg>
