<svg width="16" height="16" viewBox="0 0 16 16" fill="none" xmlns="http://www.w3.org/2000/svg">
<path d="M8.66683 10.6667H4.66683C4.49002 10.6667 4.32045 10.7369 4.19543 10.8619C4.07041 10.987 4.00017 11.1565 4.00017 11.3333C4.00017 11.5101 4.07041 11.6797 4.19543 11.8047C4.32045 11.9298 4.49002 12 4.66683 12H8.66683C8.84365 12 9.01322 11.9298 9.13824 11.8047C9.26326 11.6797 9.3335 11.5101 9.3335 11.3333C9.3335 11.1565 9.26326 10.987 9.13824 10.8619C9.01322 10.7369 8.84365 10.6667 8.66683 10.6667ZM6.00017 6.66667H7.3335C7.51031 6.66667 7.67988 6.59643 7.80491 6.47141C7.92993 6.34639 8.00017 6.17682 8.00017 6C8.00017 5.82319 7.92993 5.65362 7.80491 5.5286C7.67988 5.40358 7.51031 5.33334 7.3335 5.33334H6.00017C5.82336 5.33334 5.65379 5.40358 5.52876 5.5286C5.40374 5.65362 5.3335 5.82319 5.3335 6C5.3335 6.17682 5.40374 6.34639 5.52876 6.47141C5.65379 6.59643 5.82336 6.66667 6.00017 6.66667ZM14.0002 8.00001H12.0002V2C12.0006 1.88253 11.9701 1.76702 11.9115 1.66517C11.853 1.56332 11.7686 1.47874 11.6668 1.42C11.5655 1.36149 11.4505 1.33069 11.3335 1.33069C11.2165 1.33069 11.1015 1.36149 11.0002 1.42L9.00017 2.56667L7.00017 1.42C6.89882 1.36149 6.78386 1.33069 6.66683 1.33069C6.54981 1.33069 6.43485 1.36149 6.3335 1.42L4.3335 2.56667L2.3335 1.42C2.23216 1.36149 2.11719 1.33069 2.00017 1.33069C1.88314 1.33069 1.76818 1.36149 1.66683 1.42C1.5651 1.47874 1.48069 1.56332 1.42215 1.66517C1.36362 1.76702 1.33303 1.88253 1.3335 2V12.6667C1.3335 13.1971 1.54422 13.7058 1.91929 14.0809C2.29436 14.456 2.80307 14.6667 3.3335 14.6667H12.6668C13.1973 14.6667 13.706 14.456 14.081 14.0809C14.4561 13.7058 14.6668 13.1971 14.6668 12.6667V8.66667C14.6668 8.48986 14.5966 8.32029 14.4716 8.19527C14.3465 8.07024 14.177 8.00001 14.0002 8.00001ZM3.3335 13.3333C3.15669 13.3333 2.98712 13.2631 2.8621 13.1381C2.73707 13.0131 2.66683 12.8435 2.66683 12.6667V3.15334L4.00017 3.91334C4.10306 3.96708 4.21742 3.99515 4.3335 3.99515C4.44958 3.99515 4.56394 3.96708 4.66683 3.91334L6.66683 2.76667L8.66683 3.91334C8.76973 3.96708 8.88409 3.99515 9.00017 3.99515C9.11625 3.99515 9.23061 3.96708 9.3335 3.91334L10.6668 3.15334V12.6667C10.6686 12.8941 10.7092 13.1196 10.7868 13.3333H3.3335ZM13.3335 12.6667C13.3335 12.8435 13.2633 13.0131 13.1382 13.1381C13.0132 13.2631 12.8436 13.3333 12.6668 13.3333C12.49 13.3333 12.3205 13.2631 12.1954 13.1381C12.0704 13.0131 12.0002 12.8435 12.0002 12.6667V9.33334H13.3335V12.6667ZM8.66683 8.00001H4.66683C4.49002 8.00001 4.32045 8.07024 4.19543 8.19527C4.07041 8.32029 4.00017 8.48986 4.00017 8.66667C4.00017 8.84348 4.07041 9.01305 4.19543 9.13808C4.32045 9.2631 4.49002 9.33334 4.66683 9.33334H8.66683C8.84365 9.33334 9.01322 9.2631 9.13824 9.13808C9.26326 9.01305 9.3335 8.84348 9.3335 8.66667C9.3335 8.48986 9.26326 8.32029 9.13824 8.19527C9.01322 8.07024 8.84365 8.00001 8.66683 8.00001Z" fill="#828282"/>
</svg>
