<svg width="16" height="16" viewBox="0 0 16 16" fill="none" xmlns="http://www.w3.org/2000/svg">
<path d="M12.1999 5.72663L12.8065 5.12663C12.9321 5.00109 13.0026 4.83083 13.0026 4.65329C13.0026 4.47576 12.9321 4.3055 12.8065 4.17996C12.681 4.05442 12.5107 3.9839 12.3332 3.9839C12.1557 3.9839 11.9854 4.05442 11.8599 4.17996L11.2599 4.78663C10.3256 4.06386 9.17775 3.67172 7.99652 3.67172C6.81529 3.67172 5.66749 4.06386 4.73319 4.78663L4.12652 4.17329C4.0001 4.04776 3.82899 3.97758 3.65083 3.97821C3.47267 3.97883 3.30206 4.05021 3.17652 4.17663C3.05099 4.30305 2.98081 4.47416 2.98144 4.65232C2.98206 4.83048 3.05343 5.00109 3.17985 5.12663L3.79319 5.73329C3.06187 6.66499 2.66505 7.81552 2.66652 8.99996C2.66434 9.85024 2.8655 10.6887 3.2532 11.4455C3.64091 12.2022 4.20393 12.8553 4.89532 13.3502C5.5867 13.8452 6.3864 14.1677 7.22773 14.2908C8.06906 14.4139 8.92762 14.334 9.73182 14.0579C10.536 13.7818 11.2625 13.3174 11.8508 12.7034C12.4391 12.0894 12.872 11.3437 13.1135 10.5285C13.355 9.71321 13.3981 8.85202 13.2392 8.01672C13.0802 7.18142 12.7239 6.39623 12.1999 5.72663ZM7.99986 13C7.20873 13 6.43537 12.7654 5.77757 12.3258C5.11978 11.8863 4.60709 11.2616 4.30434 10.5307C4.00159 9.79979 3.92237 8.99552 4.07671 8.2196C4.23105 7.44367 4.61202 6.73094 5.17143 6.17153C5.73084 5.61212 6.44357 5.23116 7.21949 5.07682C7.99542 4.92248 8.79968 5.00169 9.53059 5.30444C10.2615 5.60719 10.8862 6.11988 11.3257 6.77768C11.7653 7.43547 11.9999 8.20883 11.9999 8.99996C11.9999 10.0608 11.5784 11.0782 10.8283 11.8284C10.0781 12.5785 9.06072 13 7.99986 13ZM6.66652 2.99996H9.33319C9.51 2.99996 9.67957 2.92972 9.80459 2.8047C9.92962 2.67967 9.99986 2.5101 9.99986 2.33329C9.99986 2.15648 9.92962 1.98691 9.80459 1.86189C9.67957 1.73686 9.51 1.66663 9.33319 1.66663H6.66652C6.48971 1.66663 6.32014 1.73686 6.19512 1.86189C6.07009 1.98691 5.99985 2.15648 5.99985 2.33329C5.99985 2.5101 6.07009 2.67967 6.19512 2.8047C6.32014 2.92972 6.48971 2.99996 6.66652 2.99996ZM8.66652 6.99996C8.66652 6.82315 8.59628 6.65358 8.47126 6.52855C8.34624 6.40353 8.17667 6.33329 7.99986 6.33329C7.82304 6.33329 7.65347 6.40353 7.52845 6.52855C7.40343 6.65358 7.33319 6.82315 7.33319 6.99996V8.25996C7.18223 8.39498 7.07584 8.57265 7.02807 8.76946C6.9803 8.96627 6.99342 9.17294 7.06568 9.36214C7.13795 9.55133 7.26595 9.71412 7.43277 9.82897C7.59958 9.94382 7.79733 10.0053 7.99986 10.0053C8.20238 10.0053 8.40013 9.94382 8.56694 9.82897C8.73376 9.71412 8.86176 9.55133 8.93403 9.36214C9.00629 9.17294 9.01941 8.96627 8.97164 8.76946C8.92387 8.57265 8.81748 8.39498 8.66652 8.25996V6.99996Z" fill="url(#paint0_linear_1287_2456)"/>
<defs>
<linearGradient id="paint0_linear_1287_2456" x1="7.99984" y1="1.66663" x2="7.99984" y2="14.3469" gradientUnits="userSpaceOnUse">
<stop stop-color="#71EA87"/>
<stop offset="1" stop-color="#24AA2D"/>
</linearGradient>
</defs>
</svg>
