<svg width="32" height="20" viewBox="0 0 32 20" fill="none" xmlns="http://www.w3.org/2000/svg">
<g clip-path="url(#clip0_1378_1517)">
<path d="M27.9139 0H2.89627C2.79208 0 2.6877 0 2.58369 0.000622847C2.49577 0.00126457 2.40805 0.0022649 2.32034 0.00471853C2.12903 0.0100222 1.93609 0.021592 1.74718 0.0563959C1.55525 0.0918038 1.37665 0.149559 1.20242 0.240494C1.03113 0.329788 0.874313 0.446581 0.738414 0.585948C0.602456 0.725314 0.488521 0.885801 0.401431 1.06158C0.312702 1.24018 0.256324 1.42332 0.222022 1.62021C0.187888 1.81392 0.176525 2.01166 0.17137 2.20756C0.169013 2.29747 0.168002 2.38739 0.16743 2.47729C0.166822 2.58413 0.167025 2.6909 0.167025 2.79794V17.2023C0.167025 17.3093 0.166822 17.4159 0.16743 17.5229C0.168002 17.6128 0.169013 17.7028 0.17137 17.7927C0.176525 17.9884 0.187888 18.1861 0.222022 18.3798C0.256324 18.5768 0.312702 18.7598 0.401431 18.9384C0.488521 19.1142 0.602456 19.2749 0.738414 19.4141C0.874313 19.5537 1.03113 19.6704 1.20242 19.7595C1.37665 19.8507 1.55525 19.9085 1.74718 19.9438C1.93609 19.9784 2.12903 19.9902 2.32034 19.9955C2.40805 19.9975 2.49577 19.9988 2.58369 19.9992C2.6877 20 2.79208 20 2.89627 20H27.9139C28.018 20 28.1223 20 28.2263 19.9992C28.314 19.9988 28.4018 19.9975 28.4899 19.9955C28.6808 19.9902 28.8737 19.9784 29.063 19.9438C29.2547 19.9085 29.4334 19.8507 29.6076 19.7595C29.7791 19.6704 29.9354 19.5537 30.0716 19.4141C30.2074 19.2749 30.3213 19.1142 30.4086 18.9384C30.4975 18.7598 30.5539 18.5768 30.588 18.3798C30.6221 18.1861 30.6332 17.9884 30.6384 17.7927C30.6408 17.7028 30.642 17.6128 30.6424 17.5229C30.6432 17.4159 30.6432 17.3093 30.6432 17.2023V2.79794C30.6432 2.6909 30.6432 2.58413 30.6424 2.47729C30.642 2.38739 30.6408 2.29747 30.6384 2.20756C30.6332 2.01166 30.6221 1.81392 30.588 1.62021C30.5539 1.42332 30.4975 1.24018 30.4086 1.06158C30.3213 0.885801 30.2074 0.725314 30.0716 0.585948C29.9354 0.446581 29.7791 0.329788 29.6076 0.240494C29.4334 0.149559 29.2547 0.0918038 29.063 0.0563959C28.8737 0.021592 28.6808 0.0100222 28.4899 0.00471853C28.4018 0.0022649 28.314 0.00126457 28.2263 0.000622847C28.1223 0 28.018 0 27.9139 0Z" fill="#4B4B4B"/>
<path d="M27.914 0.666504L28.2218 0.667108C28.3051 0.667712 28.3885 0.668637 28.4723 0.670977C28.6182 0.675016 28.7887 0.683113 28.9478 0.71233C29.086 0.737848 29.2019 0.776653 29.3131 0.83471C29.423 0.891918 29.5236 0.966886 29.6115 1.05682C29.6997 1.14736 29.7729 1.25068 29.8294 1.36451C29.8857 1.47766 29.9234 1.59592 29.9481 1.73865C29.9765 1.89987 29.9844 2.07521 29.9884 2.22562C29.9906 2.31052 29.9917 2.39541 29.9922 2.48233C29.9929 2.58744 29.9929 2.69249 29.9929 2.79781V17.2021C29.9929 17.3075 29.9929 17.4123 29.9921 17.5197C29.9917 17.6046 29.9906 17.6894 29.9884 17.7745C29.9844 17.9247 29.9765 18.0999 29.9478 18.2631C29.9234 18.4038 29.8858 18.5221 29.8291 18.6358C29.7728 18.7494 29.6996 18.8526 29.6118 18.9425C29.5235 19.0331 29.4232 19.1079 29.312 19.1656C29.2016 19.2234 29.0859 19.2622 28.949 19.2874C28.7868 19.317 28.6091 19.3252 28.4752 19.3289C28.391 19.3309 28.3072 19.332 28.2213 19.3324C28.119 19.3333 28.0163 19.3332 27.914 19.3332H2.89633C2.89497 19.3332 2.89364 19.3332 2.89226 19.3332C2.7911 19.3332 2.68974 19.3332 2.58674 19.3324C2.50277 19.332 2.41897 19.3309 2.33796 19.329C2.20104 19.3252 2.0232 19.3171 1.8623 19.2876C1.72426 19.2622 1.60854 19.2234 1.49666 19.1649C1.38658 19.1076 1.28636 19.033 1.19796 18.9422C1.11025 18.8524 1.03735 18.7495 0.980994 18.6358C0.924579 18.5222 0.886834 18.4036 0.862016 18.2611C0.833328 18.0983 0.825447 17.9238 0.821509 17.7746C0.819261 17.6892 0.818322 17.6038 0.817788 17.5189L0.817383 17.2683L0.817401 17.2021V2.79781L0.817383 2.73164L0.817769 2.48154C0.818322 2.39613 0.819261 2.31074 0.821509 2.22541C0.825447 2.0761 0.833328 1.90148 0.862253 1.73731C0.886852 1.59615 0.924579 1.47751 0.981289 1.36334C1.03721 1.25049 1.11023 1.14747 1.19841 1.0571C1.28623 0.967037 1.38678 0.892163 1.49757 0.834408C1.60824 0.776634 1.72419 0.737848 1.86222 0.712387C2.02127 0.683094 2.19197 0.675016 2.33816 0.670958C2.42149 0.668637 2.50483 0.667712 2.58754 0.667127L2.89633 0.666504H27.914Z" fill="white"/>
<path d="M8.48712 6.72676C8.74806 6.39219 8.92514 5.94295 8.87844 5.48389C8.49645 5.50336 8.03031 5.74222 7.76043 6.07706C7.51811 6.36379 7.30364 6.83184 7.35955 7.27166C7.78836 7.30979 8.21676 7.05195 8.48712 6.72676Z" fill="#4B4B4B"/>
<path d="M8.87323 7.35753C8.25051 7.3195 7.72104 7.71982 7.42366 7.71982C7.12611 7.71982 6.67073 7.37669 6.17818 7.38594C5.53711 7.39559 4.94227 7.76715 4.61695 8.3581C3.94783 9.5403 4.44037 11.2939 5.09106 12.2568C5.40705 12.7331 5.78786 13.2576 6.28965 13.2388C6.76376 13.2197 6.94959 12.9241 7.52588 12.9241C8.10175 12.9241 8.26915 13.2388 8.77102 13.2292C9.29147 13.2197 9.61684 12.7526 9.93282 12.2758C10.2953 11.7328 10.4437 11.2085 10.4531 11.1797C10.4437 11.1702 9.44947 10.7792 9.44025 9.60682C9.43087 8.62518 10.2209 8.15825 10.258 8.1293C9.81192 7.45295 9.11488 7.37669 8.87323 7.35753Z" fill="#4B4B4B"/>
<path d="M14.2959 6.02881C15.6494 6.02881 16.5918 6.98518 16.5918 8.37758C16.5918 9.77495 15.63 10.7363 14.2619 10.7363H12.7634V13.1792H11.6807V6.02881H14.2959ZM12.7634 9.80468H14.0057C14.9484 9.80468 15.4849 9.28444 15.4849 8.38255C15.4849 7.48076 14.9484 6.96539 14.0106 6.96539H12.7634V9.80468Z" fill="#4B4B4B"/>
<path d="M16.874 11.6975C16.874 10.7857 17.5556 10.2258 18.7642 10.1564L20.1563 10.0722V9.67087C20.1563 9.09109 19.7744 8.74423 19.1364 8.74423C18.532 8.74423 18.155 9.04149 18.0632 9.50734H17.0771C17.1351 8.56579 17.9181 7.87207 19.175 7.87207C20.4077 7.87207 21.1955 8.54103 21.1955 9.58657V13.1791H20.1949V12.3219H20.1708C19.876 12.9016 19.233 13.2683 18.566 13.2683C17.5702 13.2683 16.874 12.634 16.874 11.6975ZM20.1563 11.2268V10.8155L18.9042 10.8948C18.2807 10.9394 17.9278 11.2218 17.9278 11.6678C17.9278 12.1236 18.2952 12.421 18.856 12.421C19.5858 12.421 20.1563 11.9056 20.1563 11.2268Z" fill="#4B4B4B"/>
<path d="M22.1405 15.0969V14.2297C22.2177 14.2495 22.3916 14.2495 22.4787 14.2495C22.9621 14.2495 23.2232 14.0414 23.3826 13.5063C23.3826 13.4963 23.4745 13.1892 23.4745 13.1842L21.6377 7.96631H22.7687L24.0547 12.208H24.0739L25.3599 7.96631H26.462L24.5572 13.4517C24.1224 14.7154 23.6196 15.1217 22.5658 15.1217C22.4787 15.1217 22.2177 15.1117 22.1405 15.0969Z" fill="#4B4B4B"/>
</g>
<defs>
<clipPath id="clip0_1378_1517">
<rect width="31" height="20" fill="white" transform="translate(0.166992)"/>
</clipPath>
</defs>
</svg>
