<svg width="22" height="22" viewBox="0 0 22 22" fill="none" xmlns="http://www.w3.org/2000/svg">
<g clip-path="url(#clip0_1378_1534)">
<path d="M0.833008 10.8952C0.833008 16.6378 5.48552 21.2903 11.2282 21.2903C16.9708 21.2903 21.6233 16.6378 21.6233 10.8952C21.6233 5.15251 16.9708 0.5 11.2282 0.5C5.48552 0.5 0.833008 5.16225 0.833008 10.8952Z" fill="url(#paint0_linear_1378_1534)"/>
<path d="M3.45215 4.00398C8.47453 3.57572 13.9836 3.56599 19.0059 4.00398C17.0982 1.85293 14.3242 0.5 11.229 0.5C8.13386 0.5 5.35988 1.85293 3.45215 4.00398Z" fill="#4B4B4B"/>
<path d="M19.1126 17.6792C14.2363 18.0588 8.43524 18.088 3.34473 17.6792C5.25245 19.8984 8.07511 21.3 11.2287 21.3C14.3823 21.3 17.2049 19.8887 19.1126 17.6792Z" fill="#4B4B4B"/>
<path d="M1.17367 8.25764C7.93831 8.14084 14.5277 8.12137 21.2826 8.25764C21.5065 9.10443 21.6233 9.99016 21.6233 10.8954C21.6233 11.6838 21.5357 12.4624 21.3702 13.2021C14.5277 13.3968 7.79231 13.3481 1.08607 13.2021C0.920608 12.4624 0.833008 11.6935 0.833008 10.8954C0.833008 9.99016 0.949808 9.10443 1.17367 8.25764Z" fill="#4B4B4B"/>
</g>
<defs>
<linearGradient id="paint0_linear_1378_1534" x1="0.833137" y1="10.8942" x2="21.6243" y2="10.8942" gradientUnits="userSpaceOnUse">
<stop stop-color="#FAA61A"/>
<stop offset="1" stop-color="#FFE100"/>
</linearGradient>
<clipPath id="clip0_1378_1534">
<rect width="21" height="21" fill="white" transform="translate(0.833008 0.5)"/>
</clipPath>
</defs>
</svg>
