<svg width="32" height="20" viewBox="0 0 32 20" fill="none" xmlns="http://www.w3.org/2000/svg">
<path fill-rule="evenodd" clip-rule="evenodd" d="M28.3906 0.00683594H2.7926C2.68596 0.00683594 2.57914 0.00683594 2.4727 0.00740168C2.38284 0.008156 2.29316 0.0090989 2.2033 0.0115504C2.00756 0.0168307 1.81012 0.0283341 1.61683 0.0632215C1.42052 0.098486 1.23778 0.156192 1.05956 0.247087C0.884163 0.336286 0.72384 0.453017 0.584617 0.59219C0.445582 0.73155 0.328966 0.891844 0.239856 1.0676C0.14905 1.246 0.0914013 1.42892 0.05636 1.62561C0.0213187 1.81928 0.00982663 2.01673 0.0045516 2.21247C0.00210248 2.30243 0.000972113 2.39219 0.000406931 2.48195C-0.000158251 2.58869 3.0143e-05 2.69543 3.0143e-05 2.80235V17.1944C3.0143e-05 17.3014 -0.000158251 17.4079 0.000406931 17.5148C0.000972113 17.6046 0.00210248 17.6945 0.0045516 17.7843C0.00982663 17.9799 0.0213187 18.1775 0.05636 18.371C0.0914013 18.5677 0.14905 18.7506 0.239856 18.9292C0.328966 19.1048 0.445582 19.2652 0.584617 19.4044C0.72384 19.5438 0.884163 19.6605 1.05956 19.7495C1.23778 19.8406 1.42052 19.8983 1.61683 19.9338C1.81012 19.9683 2.00756 19.98 2.2033 19.9852C2.29316 19.9873 2.38284 19.9886 2.4727 19.989C2.57914 19.9898 2.68596 19.9898 2.7926 19.9898H28.3906C28.4971 19.9898 28.6039 19.9898 28.7103 19.989C28.8 19.9886 28.8897 19.9873 28.9799 19.9852C29.1753 19.98 29.3727 19.9683 29.5664 19.9338C29.7625 19.8983 29.9453 19.8406 30.1237 19.7495C30.2991 19.6605 30.459 19.5438 30.5984 19.4044C30.7373 19.2652 30.8539 19.1048 30.9432 18.9292C31.0342 18.7506 31.0918 18.5677 31.1267 18.371C31.1617 18.1775 31.173 17.9799 31.1783 17.7843C31.1808 17.6945 31.1819 17.6046 31.1824 17.5148C31.1832 17.4079 31.1832 17.3014 31.1832 17.1944V2.80235C31.1832 2.69543 31.1832 2.58869 31.1824 2.48195C31.1819 2.39219 31.1808 2.30243 31.1783 2.21247C31.173 2.01673 31.1617 1.81928 31.1267 1.62561C31.0918 1.42892 31.0342 1.246 30.9432 1.0676C30.8539 0.891844 30.7373 0.73155 30.5984 0.59219C30.459 0.453017 30.2991 0.336286 30.1237 0.247087C29.9453 0.156192 29.7625 0.098486 29.5664 0.0632215C29.3727 0.0283341 29.1753 0.0168307 28.9799 0.0115504C28.8897 0.0090989 28.8 0.008156 28.7103 0.00740168C28.6039 0.00683594 28.4971 0.00683594 28.3906 0.00683594Z" fill="#4B4B4B"/>
<path fill-rule="evenodd" clip-rule="evenodd" d="M28.3912 0.672852L28.7062 0.673417C28.7914 0.673983 28.8767 0.674926 28.9624 0.677378C29.1116 0.681338 29.2863 0.689447 29.4491 0.718677C29.5903 0.744135 29.709 0.782983 29.8228 0.840877C29.9353 0.898017 30.0382 0.973072 30.128 1.06284C30.2183 1.15335 30.2932 1.25651 30.3511 1.37022C30.4087 1.48337 30.4472 1.60142 30.4726 1.74399C30.5016 1.90522 30.5097 2.08042 30.5137 2.23071C30.5161 2.31539 30.5172 2.40025 30.5176 2.48718C30.5184 2.59222 30.5184 2.69707 30.5184 2.8023V17.1944C30.5184 17.2996 30.5184 17.4045 30.5176 17.5116C30.5172 17.5964 30.5161 17.6813 30.5137 17.7663C30.5097 17.9163 30.5016 18.0915 30.4722 18.2544C30.4472 18.3951 30.4087 18.5131 30.3507 18.6268C30.2931 18.7404 30.2183 18.8433 30.1284 18.9333C30.038 19.0238 29.9355 19.0985 29.8217 19.1562C29.7087 19.2139 29.5903 19.2527 29.4504 19.2778C29.2842 19.3074 29.1024 19.3157 28.9654 19.3193C28.8793 19.3214 28.7936 19.3225 28.7056 19.3229C28.6011 19.3236 28.496 19.3236 28.3912 19.3236H2.79317C2.79185 19.3236 2.79054 19.3236 2.78903 19.3236C2.6856 19.3236 2.5818 19.3236 2.47648 19.3229C2.39058 19.3225 2.30486 19.3214 2.22196 19.3195C2.0818 19.3157 1.89981 19.3074 1.73515 19.278C1.59386 19.2527 1.47555 19.2139 1.361 19.1554C1.24834 19.0983 1.14586 19.0236 1.05543 18.9329C0.965751 18.8433 0.891147 18.7406 0.833498 18.6268C0.775661 18.5133 0.73704 18.3949 0.711607 18.2525C0.682406 18.0898 0.674305 17.9155 0.67016 17.7663C0.6679 17.6811 0.666958 17.5957 0.666392 17.511L0.666016 17.2606V2.7363L0.666392 2.48643C0.666958 2.401 0.6679 2.31576 0.67016 2.23053C0.674305 2.08117 0.682406 1.90673 0.711984 1.74267C0.73704 1.6018 0.775661 1.48318 0.833686 1.36909C0.890958 1.25632 0.965751 1.15335 1.0558 1.06321C1.14567 0.973072 1.24872 0.898394 1.36194 0.840688C1.47517 0.782794 1.59386 0.744135 1.73515 0.718677C1.89792 0.689447 2.07257 0.681338 2.22215 0.677378C2.3073 0.674926 2.39265 0.673983 2.47724 0.673417L2.79317 0.672852H28.3912Z" fill="#FFFFFE"/>
<path d="M15.0134 10.4597V13.3078H14.125V6.27727H16.4813C17.0496 6.26605 17.6014 6.48471 18.0043 6.88837C18.8099 7.65085 18.8596 8.93473 18.1036 9.75888C18.0705 9.79252 18.0374 9.82616 18.0043 9.8598C17.5904 10.2579 17.0827 10.4597 16.4813 10.4597H15.0134ZM15.0134 7.14066V9.59629H16.5033C16.8344 9.60751 17.1545 9.47295 17.3807 9.23187C17.8442 8.74411 17.8332 7.95921 17.3531 7.48826C17.1269 7.264 16.8234 7.14066 16.5033 7.14066H15.0134Z" fill="#4B4B4B"/>
<path d="M20.6912 8.34033C21.3479 8.34033 21.8666 8.51974 22.2473 8.87295C22.6281 9.22615 22.8157 9.71952 22.8157 10.3418V13.3077H21.9659V12.6405H21.9273C21.5575 13.1899 21.0719 13.4646 20.4594 13.4646C19.9407 13.4646 19.4993 13.3077 19.1516 12.9937C18.8095 12.7022 18.6164 12.2705 18.6274 11.8163C18.6274 11.3174 18.815 10.9249 19.1847 10.6278C19.5545 10.3306 20.0511 10.1849 20.6691 10.1849C21.1989 10.1849 21.6293 10.2858 21.9714 10.4764V10.269C21.9714 9.9606 21.839 9.66907 21.6072 9.46723C21.3699 9.25419 21.0664 9.13645 20.7519 9.13645C20.2553 9.13645 19.8635 9.3495 19.5765 9.77559L18.7929 9.27661C19.2123 8.65429 19.8469 8.34033 20.6912 8.34033ZM19.5434 11.8332C19.5434 12.0686 19.6538 12.2873 19.8359 12.4218C20.0345 12.5788 20.2773 12.6629 20.5256 12.6573C20.9009 12.6573 21.2596 12.5059 21.5244 12.2368C21.8169 11.9565 21.9659 11.6257 21.9659 11.2445C21.69 11.0202 21.3037 10.9081 20.8071 10.9137C20.4484 10.9137 20.1449 11.0034 19.9021 11.1772C19.6648 11.351 19.5434 11.5697 19.5434 11.8332Z" fill="#4B4B4B"/>
<path fill-rule="evenodd" clip-rule="evenodd" d="M27.6939 8.49707L24.7251 15.4211H23.8091L24.9128 12.9991L22.9648 8.49707H23.9305L25.3377 11.9507H25.3542L26.7282 8.49707H27.6939Z" fill="#4B4B4B"/>
<path fill-rule="evenodd" clip-rule="evenodd" d="M11.4205 9.84296C11.4205 9.56824 11.3984 9.29352 11.3543 9.02441H7.60742V10.5774H9.75399C9.6657 11.0764 9.37876 11.5249 8.95938 11.8052V12.8144H10.2396C10.9901 12.1136 11.4205 11.0764 11.4205 9.84296Z" fill="#4285F4"/>
<path fill-rule="evenodd" clip-rule="evenodd" d="M7.60678 13.7898C8.6773 13.7898 9.58228 13.431 10.2389 12.8143L8.95873 11.8051C8.60005 12.0518 8.14204 12.192 7.60678 12.192C6.56936 12.192 5.69197 11.48 5.37744 10.5269H4.05859V11.5697C4.73181 12.932 6.10584 13.7898 7.60678 13.7898Z" fill="#34A853"/>
<path fill-rule="evenodd" clip-rule="evenodd" d="M5.37793 10.527C5.21239 10.028 5.21239 9.48416 5.37793 8.97958V7.94238H4.05909C3.49072 9.0805 3.49072 10.426 4.05909 11.5642L5.37793 10.527Z" fill="#FBBC04"/>
<path fill-rule="evenodd" clip-rule="evenodd" d="M7.60678 7.3144C8.17515 7.30318 8.72145 7.52184 9.12979 7.9199L10.2665 6.76496C9.54366 6.08097 8.59453 5.70534 7.60678 5.71655C6.10584 5.71655 4.73181 6.57995 4.05859 7.94232L5.37744 8.98512C5.69197 8.02642 6.56936 7.3144 7.60678 7.3144Z" fill="#EA4335"/>
</svg>
