<svg width="29" height="23" viewBox="0 0 29 23" fill="none" xmlns="http://www.w3.org/2000/svg">
<g clip-path="url(#clip0_1378_1486)">
<path d="M27.9352 14.8359V14.5002H27.8477L27.7465 14.7308L27.6458 14.5002H27.5577V14.8359H27.6199V14.5828L27.7146 14.8013H27.7789L27.8736 14.5822V14.8359H27.9352ZM27.38 14.8359V14.5575H27.4922V14.5008H27.2061V14.5575H27.3183V14.8359H27.38Z" fill="#0099DF"/>
<path d="M17.9863 16.2793H10.4131V2.66895H17.9863V16.2793Z" fill="#6C6BBD"/>
<path d="M10.8983 9.47346C10.8983 6.71253 12.191 4.25318 14.2041 2.66827C12.732 1.5093 10.8741 0.817566 8.855 0.817566C4.07497 0.817566 0.200195 4.69288 0.200195 9.47346C0.200195 14.2541 4.07497 18.1294 8.855 18.1294C10.8741 18.1294 12.732 17.4376 14.2041 16.2787C12.191 14.6938 10.8983 12.2344 10.8983 9.47346Z" fill="#EB001B"/>
<path d="M28.2007 9.47346C28.2007 14.2541 24.3259 18.1294 19.5459 18.1294C17.5268 18.1294 15.6689 17.4376 14.1963 16.2787C16.2099 14.6938 17.5026 12.2344 17.5026 9.47346C17.5026 6.71253 16.2099 4.25318 14.1963 2.66827C15.6689 1.5093 17.5268 0.817566 19.5459 0.817566C24.3259 0.817566 28.2007 4.69288 28.2007 9.47346Z" fill="#0099DF"/>
<path d="M20.5398 20.1232C20.6405 20.1232 20.7852 20.1424 20.8958 20.1859L20.7418 20.657C20.6361 20.6135 20.5304 20.5992 20.4292 20.5992C20.1023 20.5992 19.9388 20.8105 19.9388 21.1902V22.4791H19.4386V20.1809H19.9339V20.4599C20.0638 20.258 20.2514 20.1232 20.5398 20.1232ZM18.6918 20.6377H17.8746V21.6761C17.8746 21.9067 17.9561 22.0608 18.2065 22.0608C18.3363 22.0608 18.4998 22.0173 18.6484 21.9309L18.7925 22.3585C18.634 22.4691 18.3842 22.5368 18.1679 22.5368C17.5763 22.5368 17.37 22.2193 17.37 21.6855V20.6377H16.9033V20.1809H17.37V19.4837H17.8746V20.1809H18.6918V20.6377ZM12.2922 21.128C12.3456 20.7962 12.547 20.57 12.9031 20.57C13.225 20.57 13.4319 20.772 13.4847 21.128H12.2922ZM14.0042 21.33C13.9993 20.6135 13.5568 20.1232 12.9124 20.1232C12.2394 20.1232 11.7683 20.6135 11.7683 21.33C11.7683 22.0603 12.2586 22.5363 12.9465 22.5363C13.2927 22.5363 13.6097 22.4499 13.8887 22.2144L13.6432 21.844C13.4512 21.9981 13.2057 22.0845 12.9752 22.0845C12.6532 22.0845 12.3599 21.9353 12.2878 21.5221H13.9943C13.9993 21.4593 14.0042 21.3971 14.0042 21.33ZM16.2011 20.7676C16.0619 20.6806 15.7785 20.57 15.4851 20.57C15.2111 20.57 15.0476 20.6713 15.0476 20.8397C15.0476 20.9932 15.2204 21.0367 15.4367 21.0653L15.6723 21.0989C16.1725 21.1715 16.4752 21.3828 16.4752 21.7868C16.4752 22.2243 16.0905 22.5368 15.4274 22.5368C15.052 22.5368 14.7059 22.4405 14.4318 22.2386L14.6674 21.8489C14.8358 21.9788 15.0862 22.0894 15.4323 22.0894C15.7735 22.0894 15.9562 21.9887 15.9562 21.8104C15.9562 21.6811 15.8263 21.6085 15.5523 21.5705L15.3167 21.5369C14.8022 21.4643 14.5232 21.2337 14.5232 20.8589C14.5232 20.4022 14.8985 20.1232 15.4802 20.1232C15.8456 20.1232 16.1774 20.2052 16.4174 20.3636L16.2011 20.7676ZM22.3674 20.5981C22.2645 20.5981 22.1693 20.6162 22.0807 20.652C21.9926 20.6883 21.9161 20.739 21.8517 20.8039C21.7873 20.8688 21.7367 20.947 21.6998 21.0378C21.663 21.1286 21.6448 21.2287 21.6448 21.3377C21.6448 21.4472 21.663 21.5468 21.6998 21.6376C21.7367 21.7284 21.7873 21.8066 21.8517 21.8715C21.9161 21.9364 21.9926 21.9871 22.0807 22.0234C22.1693 22.0597 22.2645 22.0773 22.3674 22.0773C22.4703 22.0773 22.566 22.0597 22.6541 22.0234C22.7427 21.9871 22.8197 21.9364 22.8841 21.8715C22.9496 21.8066 23.0002 21.7284 23.0377 21.6376C23.0745 21.5468 23.0927 21.4472 23.0927 21.3377C23.0927 21.2287 23.0745 21.1286 23.0377 21.0378C23.0002 20.947 22.9496 20.8688 22.8841 20.8039C22.8197 20.739 22.7427 20.6883 22.6541 20.652C22.566 20.6162 22.4703 20.5981 22.3674 20.5981ZM22.3674 20.1232C22.5457 20.1232 22.7108 20.154 22.8627 20.2162C23.0146 20.2778 23.1461 20.3631 23.2567 20.4715C23.3679 20.5799 23.4543 20.7081 23.517 20.8556C23.5797 21.0037 23.6111 21.1644 23.6111 21.3377C23.6111 21.5111 23.5797 21.6717 23.517 21.8198C23.4543 21.9673 23.3679 22.096 23.2567 22.2044C23.1461 22.3129 23.0146 22.3976 22.8627 22.4598C22.7108 22.5214 22.5457 22.5522 22.3674 22.5522C22.1891 22.5522 22.024 22.5214 21.8721 22.4598C21.7202 22.3976 21.5898 22.3129 21.4797 22.2044C21.3697 22.096 21.2833 21.9673 21.2205 21.8198C21.1578 21.6717 21.1264 21.5111 21.1264 21.3377C21.1264 21.1644 21.1578 21.0037 21.2205 20.8556C21.2833 20.7081 21.3697 20.5799 21.4797 20.4715C21.5898 20.3631 21.7202 20.2778 21.8721 20.2162C22.024 20.154 22.1891 20.1232 22.3674 20.1232ZM9.37114 21.33C9.37114 20.9261 9.63585 20.5942 10.0684 20.5942C10.4817 20.5942 10.7607 20.9118 10.7607 21.33C10.7607 21.7482 10.4817 22.0652 10.0684 22.0652C9.63585 22.0652 9.37114 21.7339 9.37114 21.33ZM11.2318 21.33V20.1809H10.7321V20.4599C10.573 20.253 10.3331 20.1232 10.0062 20.1232C9.36179 20.1232 8.85715 20.6278 8.85715 21.33C8.85715 22.0316 9.36179 22.5368 10.0062 22.5368C10.3331 22.5368 10.573 22.407 10.7321 22.2V22.4791H11.2318V21.33ZM8.4147 22.4791V21.0367C8.4147 20.4935 8.06855 20.1281 7.51108 20.1232C7.21776 20.1182 6.91454 20.2096 6.70322 20.532C6.54473 20.2772 6.29433 20.1232 5.94323 20.1232C5.69834 20.1232 5.45786 20.1952 5.2702 20.4644V20.1809H4.77051V22.4791H5.27515V21.2051C5.27515 20.8061 5.49638 20.5942 5.83757 20.5942C6.16941 20.5942 6.33781 20.8105 6.33781 21.2001V22.4791H6.84245V21.2051C6.84245 20.8061 7.07358 20.5942 7.40487 20.5942C7.74662 20.5942 7.91006 20.8105 7.91006 21.2001V22.4791H8.4147Z" fill="white"/>
<path d="M24.1489 22.3065V22.3632H24.2012C24.2128 22.3632 24.2227 22.3605 24.2293 22.3561C24.2364 22.3517 24.2403 22.344 24.2403 22.3346C24.2403 22.3252 24.2364 22.3181 24.2293 22.3137C24.2227 22.3087 24.2128 22.3065 24.2012 22.3065H24.1489ZM24.2017 22.2669C24.2287 22.2669 24.2496 22.273 24.2645 22.2851C24.2793 22.2972 24.2865 22.3137 24.2865 22.3346C24.2865 22.3522 24.281 22.3665 24.2689 22.3781C24.2573 22.3891 24.2403 22.3962 24.2188 22.399L24.2881 22.4788H24.2342L24.1698 22.3995H24.1489V22.4788H24.1038V22.2669H24.2017ZM24.188 22.5514C24.2128 22.5514 24.2359 22.547 24.2568 22.5377C24.2782 22.5283 24.297 22.5157 24.3129 22.4997C24.3289 22.4837 24.3415 22.465 24.3509 22.443C24.3597 22.4215 24.3646 22.3984 24.3646 22.3737C24.3646 22.3489 24.3597 22.3258 24.3509 22.3043C24.3415 22.2829 24.3289 22.2636 24.3129 22.2476C24.297 22.2317 24.2782 22.219 24.2568 22.2102C24.2359 22.2009 24.2128 22.1965 24.188 22.1965C24.1632 22.1965 24.1396 22.2009 24.1181 22.2102C24.0961 22.219 24.0768 22.2317 24.0609 22.2476C24.0449 22.2636 24.0323 22.2829 24.0234 22.3043C24.0141 22.3258 24.0097 22.3489 24.0097 22.3737C24.0097 22.3984 24.0141 22.4215 24.0234 22.443C24.0323 22.465 24.0449 22.4837 24.0609 22.4997C24.0768 22.5157 24.0961 22.5283 24.1181 22.5377C24.1396 22.547 24.1632 22.5514 24.188 22.5514ZM24.188 22.1453C24.2205 22.1453 24.2502 22.1513 24.2782 22.1634C24.3069 22.175 24.3311 22.1915 24.3525 22.2124C24.3734 22.2328 24.39 22.257 24.4021 22.2851C24.4142 22.3126 24.4202 22.3423 24.4202 22.3737C24.4202 22.405 24.4142 22.4348 24.4021 22.4623C24.39 22.4898 24.3734 22.514 24.3525 22.5344C24.3311 22.5553 24.3069 22.5718 24.2782 22.5839C24.2502 22.596 24.2205 22.6021 24.188 22.6021C24.155 22.6021 24.1247 22.596 24.0961 22.5839C24.0675 22.5718 24.0427 22.5553 24.0218 22.5344C24.0009 22.514 23.9844 22.4898 23.9723 22.4623C23.9602 22.4348 23.9541 22.405 23.9541 22.3737C23.9541 22.3423 23.9602 22.3126 23.9723 22.2851C23.9844 22.257 24.0009 22.2328 24.0218 22.2124C24.0427 22.1915 24.0675 22.175 24.0961 22.1634C24.1247 22.1513 24.155 22.1453 24.188 22.1453Z" fill="#4B4B4B"/>
</g>
<defs>
<clipPath id="clip0_1378_1486">
<rect width="28" height="23" fill="white" transform="translate(0.200195)"/>
</clipPath>
</defs>
</svg>
