<svg width="30" height="23" viewBox="0 0 30 23" fill="none" xmlns="http://www.w3.org/2000/svg">
<g clip-path="url(#clip0_1378_1480)">
<path d="M6.46699 21.9769V20.5816C6.47532 20.4643 6.45793 20.3466 6.41596 20.2363C6.37399 20.126 6.30841 20.0257 6.22358 19.9421C6.13876 19.8585 6.03664 19.7935 5.92404 19.7514C5.81143 19.7093 5.69092 19.6911 5.57053 19.698C5.41294 19.6879 5.25548 19.7193 5.11456 19.7888C4.97365 19.8583 4.85446 19.9635 4.76944 20.0933C4.69193 19.9674 4.58104 19.8642 4.44844 19.7946C4.31585 19.7251 4.16646 19.6917 4.01603 19.698C3.88491 19.6915 3.75432 19.7186 3.63723 19.7765C3.52013 19.8344 3.42058 19.9212 3.34846 20.0282V19.7538H2.85254V21.9769H3.35323V20.7537C3.34258 20.6777 3.34928 20.6003 3.37285 20.5271C3.39642 20.4539 3.43628 20.3867 3.48958 20.3303C3.54289 20.2738 3.60831 20.2296 3.68118 20.2007C3.75406 20.1718 3.83257 20.1589 3.91113 20.1631C4.24015 20.1631 4.40704 20.3723 4.40704 20.7491V21.9862H4.90772V20.7537C4.89751 20.6778 4.90451 20.6006 4.92825 20.5275C4.95198 20.4545 4.99186 20.3875 5.04507 20.3311C5.09828 20.2748 5.16353 20.2306 5.23619 20.2015C5.30886 20.1725 5.38718 20.1593 5.46562 20.1631C5.80418 20.1631 5.9663 20.3723 5.9663 20.7491V21.9862L6.46699 21.9769ZM13.8747 19.7538H13.0593V19.0794H12.5586V19.7538H12.1056V20.1956H12.5681V21.2188C12.5681 21.735 12.7732 22.042 13.3597 22.042C13.5788 22.0427 13.7937 21.983 13.9796 21.8699L13.8365 21.456C13.7035 21.5333 13.5526 21.5765 13.3978 21.5815C13.1594 21.5815 13.0688 21.4327 13.0688 21.2095V20.1956H13.8794L13.8747 19.7538ZM18.1042 19.698C17.9833 19.6945 17.8637 19.7229 17.758 19.7802C17.6522 19.8375 17.5643 19.9216 17.5034 20.0235V19.7538H17.0123V21.9769H17.5082V20.7305C17.5082 20.363 17.6703 20.1584 17.985 20.1584C18.0911 20.157 18.1964 20.176 18.295 20.2142L18.4476 19.7491C18.3343 19.7096 18.215 19.6892 18.0947 19.6887L18.1042 19.698ZM11.7098 19.9305C11.4291 19.7677 11.1064 19.687 10.78 19.698C10.203 19.698 9.82632 19.9677 9.82632 20.4095C9.82632 20.7723 10.1029 20.9955 10.6131 21.0653L10.8515 21.0979C11.1233 21.1351 11.2521 21.2048 11.2521 21.3304C11.2521 21.5025 11.0709 21.6001 10.7323 21.6001C10.46 21.6078 10.1929 21.5259 9.97414 21.3676L9.73572 21.7443C10.0246 21.941 10.3706 22.0421 10.7228 22.0327C11.3808 22.0327 11.7623 21.7304 11.7623 21.3071C11.7623 20.8839 11.4619 20.7118 10.966 20.6421L10.7275 20.6095C10.513 20.5816 10.3413 20.5398 10.3413 20.3909C10.3413 20.2421 10.5034 20.1305 10.7752 20.1305C11.0264 20.1333 11.2727 20.199 11.4905 20.3212L11.7098 19.9305ZM24.9922 19.698C24.8713 19.6945 24.7516 19.7229 24.6459 19.7802C24.5402 19.8375 24.4522 19.9216 24.3914 20.0235V19.7538H23.9002V21.9769H24.3961V20.7305C24.3961 20.363 24.5583 20.1584 24.873 20.1584C24.979 20.157 25.0844 20.176 25.1829 20.2142L25.3355 19.7491C25.2222 19.7096 25.1029 19.6892 24.9826 19.6887L24.9922 19.698ZM18.6025 20.8607C18.5966 21.0169 18.6242 21.1726 18.6836 21.3178C18.7429 21.463 18.8327 21.5946 18.9471 21.704C19.0616 21.8135 19.1982 21.8984 19.3483 21.9534C19.4983 22.0084 19.6584 22.0322 19.8185 22.0234C20.1162 22.0381 20.4089 21.9436 20.6386 21.7583L20.4002 21.3676C20.2288 21.4951 20.0197 21.5652 19.8042 21.5676C19.6209 21.5531 19.4499 21.4719 19.3252 21.34C19.2005 21.2082 19.1313 21.0354 19.1313 20.856C19.1313 20.6767 19.2005 20.5039 19.3252 20.372C19.4499 20.2402 19.6209 20.1589 19.8042 20.1445C20.0197 20.1468 20.2288 20.2169 20.4002 20.3444L20.6386 19.9538C20.4089 19.7685 20.1162 19.6739 19.8185 19.6887C19.6584 19.6798 19.4983 19.7037 19.3483 19.7587C19.1982 19.8136 19.0616 19.8986 18.9471 20.008C18.8327 20.1175 18.7429 20.249 18.6836 20.3942C18.6242 20.5394 18.5966 20.6951 18.6025 20.8514V20.8607ZM23.2469 20.8607V19.7538H22.751V20.0235C22.6668 19.9178 22.558 19.8332 22.4337 19.7766C22.3093 19.72 22.1729 19.693 22.0358 19.698C21.7196 19.698 21.4164 19.8205 21.1928 20.0385C20.9693 20.2566 20.8437 20.5523 20.8437 20.8607C20.8437 21.169 20.9693 21.4648 21.1928 21.6828C21.4164 21.9009 21.7196 22.0234 22.0358 22.0234C22.1729 22.0283 22.3093 22.0014 22.4337 21.9447C22.558 21.8881 22.6668 21.8035 22.751 21.6978V21.9676H23.2469V20.8607ZM21.4016 20.8607C21.4095 20.7298 21.4565 20.6041 21.5367 20.4989C21.617 20.3938 21.727 20.3138 21.8533 20.2689C21.9795 20.224 22.1165 20.216 22.2473 20.2461C22.3781 20.2761 22.4971 20.3428 22.5895 20.4379C22.682 20.5331 22.7439 20.6525 22.7676 20.7815C22.7914 20.9106 22.7759 21.0435 22.7231 21.1641C22.6703 21.2847 22.5826 21.3875 22.4706 21.46C22.3587 21.5326 22.2274 21.5716 22.093 21.5722C21.9986 21.5734 21.905 21.5555 21.818 21.5197C21.731 21.4838 21.6526 21.4308 21.5877 21.364C21.5227 21.2972 21.4727 21.2179 21.4407 21.1313C21.4086 21.0447 21.3953 20.9526 21.4016 20.8607ZM15.4172 19.698C15.1011 19.7023 14.7996 19.8289 14.5792 20.05C14.3588 20.2711 14.2374 20.5686 14.2418 20.877C14.2463 21.1853 14.3761 21.4793 14.6028 21.6943C14.8295 21.9093 15.1345 22.0277 15.4506 22.0234C15.7936 22.0405 16.131 21.9328 16.3972 21.7211L16.1587 21.363C15.9705 21.5102 15.7372 21.592 15.4959 21.5955C15.332 21.6092 15.169 21.5601 15.0417 21.4585C14.9144 21.3569 14.8327 21.2108 14.814 21.0514H16.5068C16.5068 20.9909 16.5068 20.9304 16.5068 20.8653C16.5068 20.1677 16.0634 19.7026 15.4244 19.7026L15.4172 19.698ZM15.4172 20.1305C15.4915 20.129 15.5652 20.1417 15.6344 20.168C15.7036 20.1942 15.7667 20.2336 15.8203 20.2837C15.8739 20.3338 15.9168 20.3937 15.9467 20.46C15.9765 20.5262 15.9927 20.5976 15.9942 20.67H14.8021C14.8108 20.5207 14.879 20.3807 14.9922 20.2798C15.1053 20.179 15.2545 20.1254 15.4077 20.1305H15.4172ZM27.8413 20.8653V18.8608H27.3645V20.0235C27.2802 19.9178 27.1715 19.8332 27.0471 19.7766C26.9227 19.72 26.7863 19.693 26.6492 19.698C26.333 19.698 26.0298 19.8205 25.8063 20.0385C25.5827 20.2566 25.4571 20.5523 25.4571 20.8607C25.4571 21.169 25.5827 21.4648 25.8063 21.6828C26.0298 21.9009 26.333 22.0234 26.6492 22.0234C26.7863 22.0283 26.9227 22.0014 27.0471 21.9447C27.1715 21.8881 27.2802 21.8035 27.3645 21.6978V21.9676H27.8413V20.8653ZM28.6686 21.6536C28.6996 21.6533 28.7304 21.6588 28.7592 21.6699C28.7866 21.6808 28.8117 21.6966 28.8331 21.7164C28.8541 21.7365 28.871 21.7601 28.8832 21.7862C28.8953 21.8133 28.9015 21.8426 28.9015 21.8722C28.9015 21.9018 28.8953 21.9311 28.8832 21.9583C28.871 21.9843 28.8541 22.008 28.8331 22.028C28.8117 22.0479 28.7866 22.0636 28.7592 22.0745C28.7307 22.0868 28.6998 22.0931 28.6686 22.0931C28.6234 22.0928 28.5792 22.0799 28.5413 22.0561C28.5033 22.0322 28.473 21.9983 28.454 21.9583C28.4421 21.9311 28.4359 21.9018 28.4359 21.8722C28.4359 21.8426 28.4421 21.8134 28.454 21.7862C28.4662 21.7601 28.4831 21.7365 28.5041 21.7164C28.5256 21.6966 28.5506 21.6808 28.578 21.6699C28.6091 21.6579 28.6424 21.6523 28.6758 21.6536H28.6686ZM28.6686 22.0466C28.6924 22.0468 28.716 22.042 28.7377 22.0327C28.7583 22.0237 28.7769 22.0111 28.7926 21.9955C28.8224 21.9637 28.839 21.9222 28.839 21.8792C28.839 21.8361 28.8224 21.7947 28.7926 21.7629C28.7769 21.7472 28.7583 21.7346 28.7377 21.7257C28.7159 21.7164 28.6924 21.7117 28.6686 21.7118C28.6448 21.7119 28.6213 21.7166 28.5995 21.7257C28.578 21.7343 28.5586 21.7469 28.5422 21.7629C28.5124 21.7947 28.4959 21.8361 28.4959 21.8792C28.4959 21.9222 28.5124 21.9637 28.5422 21.9955C28.5586 22.0114 28.5781 22.024 28.5995 22.0327C28.6235 22.0428 28.6496 22.0476 28.6758 22.0466H28.6686ZM28.6829 21.7699C28.7052 21.7688 28.7271 21.7754 28.7449 21.7885C28.7522 21.7944 28.758 21.8019 28.7617 21.8104C28.7654 21.8189 28.767 21.8281 28.7664 21.8373C28.7667 21.8451 28.7654 21.8528 28.7625 21.86C28.7597 21.8672 28.7553 21.8737 28.7497 21.8792C28.7359 21.8914 28.7182 21.8988 28.6996 21.9001L28.7687 21.9769H28.7139L28.6495 21.9001H28.6281V21.9769H28.5828V21.7722L28.6829 21.7699ZM28.6305 21.8094V21.8652H28.6829C28.6922 21.868 28.7022 21.868 28.7115 21.8652C28.7132 21.862 28.7141 21.8584 28.7141 21.8548C28.7141 21.8511 28.7132 21.8476 28.7115 21.8443C28.7132 21.8411 28.7141 21.8375 28.7141 21.8338C28.7141 21.8302 28.7132 21.8266 28.7115 21.8234C28.7022 21.8207 28.6922 21.8207 28.6829 21.8234L28.6305 21.8094ZM26.0078 20.8653C26.0158 20.7345 26.0627 20.6087 26.143 20.5036C26.2232 20.3984 26.3333 20.3185 26.4595 20.2735C26.5858 20.2286 26.7227 20.2207 26.8536 20.2507C26.9844 20.2807 27.1034 20.3474 27.1958 20.4426C27.2883 20.5377 27.3502 20.6572 27.3739 20.7862C27.3976 20.9152 27.3822 21.0482 27.3294 21.1687C27.2766 21.2893 27.1888 21.3922 27.0769 21.4647C26.9649 21.5372 26.8337 21.5762 26.6993 21.5769C26.6049 21.5781 26.5112 21.5602 26.4243 21.5243C26.3373 21.4885 26.2589 21.4355 26.1939 21.3686C26.129 21.3018 26.0789 21.2226 26.0469 21.136C26.0149 21.0493 26.0016 20.9572 26.0078 20.8653ZM9.26365 20.8653V19.7538H8.76773V20.0235C8.68352 19.9178 8.57474 19.8332 8.45037 19.7766C8.32601 19.72 8.18962 19.693 8.05248 19.698C7.73631 19.698 7.4331 19.8205 7.20954 20.0385C6.98597 20.2566 6.86038 20.5523 6.86038 20.8607C6.86038 21.169 6.98597 21.4648 7.20954 21.6828C7.4331 21.9009 7.73631 22.0234 8.05248 22.0234C8.18962 22.0283 8.32601 22.0014 8.45037 21.9447C8.57474 21.8881 8.68352 21.8035 8.76773 21.6978V21.9676H9.26365V20.8653ZM7.41828 20.8653C7.42619 20.7345 7.47316 20.6087 7.55341 20.5036C7.63366 20.3984 7.74369 20.3185 7.86995 20.2735C7.99621 20.2286 8.13318 20.2207 8.26401 20.2507C8.39483 20.2807 8.51379 20.3474 8.60624 20.4426C8.69869 20.5377 8.76059 20.6572 8.78432 20.7862C8.80806 20.9152 8.79258 21.0482 8.73981 21.1687C8.68704 21.2893 8.59927 21.3922 8.48731 21.4647C8.37535 21.5372 8.24409 21.5762 8.1097 21.5769C8.0149 21.5787 7.92075 21.5613 7.83322 21.5257C7.74568 21.4902 7.66668 21.4373 7.60123 21.3704C7.53577 21.3035 7.48528 21.224 7.45297 21.1371C7.42065 21.0501 7.40722 20.9576 7.41351 20.8653H7.41828Z" fill="white"/>
<path d="M19.0542 2.81396H11.5439V15.978H19.0542V2.81396Z" fill="#FF5F00"/>
<path d="M12.0215 9.39796C12.0201 8.12998 12.3145 6.87833 12.8825 5.73777C13.4505 4.59721 14.2771 3.59765 15.2998 2.81478C14.0335 1.84422 12.5129 1.24068 10.9116 1.07315C9.31037 0.905617 7.6931 1.18085 6.24463 1.8674C4.79615 2.55395 3.57493 3.6241 2.72055 4.95556C1.86616 6.28702 1.41309 7.82606 1.41309 9.39679C1.41309 10.9675 1.86616 12.5066 2.72055 13.838C3.57493 15.1695 4.79615 16.2396 6.24463 16.9262C7.6931 17.6127 9.31037 17.888 10.9116 17.7204C12.5129 17.5529 14.0335 16.9494 15.2998 15.9788C14.2774 15.1962 13.451 14.197 12.883 13.0569C12.3151 11.9167 12.0205 10.6655 12.0215 9.39796Z" fill="#EB001B"/>
<path d="M29.1877 9.39697C29.1877 10.9678 28.7345 12.507 27.88 13.8385C27.0254 15.17 25.804 16.2401 24.3554 16.9266C22.9067 17.613 21.2893 17.8881 19.6879 17.7203C18.0866 17.5525 16.5659 16.9487 15.2998 15.9778C16.3217 15.1945 17.1479 14.195 17.716 13.0548C18.2841 11.9147 18.5793 10.6635 18.5793 9.39581C18.5793 8.12811 18.2841 6.87696 17.716 5.73677C17.1479 4.59658 16.3217 3.59712 15.2998 2.8138C16.5659 1.84293 18.0866 1.23909 19.6879 1.07132C21.2893 0.903554 22.9067 1.17861 24.3554 1.86506C25.804 2.55151 27.0254 3.62165 27.88 4.95315C28.7345 6.28466 29.1877 7.8238 29.1877 9.39465V9.39697Z" fill="#F79E1B"/>
<path d="M28.3679 14.5824V14.3126H28.48V14.2568H28.1963V14.3126H28.3179V14.5824H28.3679ZM28.9187 14.5824V14.2568H28.8329L28.7327 14.4894L28.6326 14.2568H28.5563V14.5824H28.6183V14.3382L28.7113 14.5498H28.7756L28.8686 14.3382V14.5847L28.9187 14.5824Z" fill="#F79E1B"/>
</g>
<defs>
<clipPath id="clip0_1378_1480">
<rect width="29" height="22" fill="white" transform="translate(0.799805 0.5)"/>
</clipPath>
</defs>
</svg>
