<svg width="65" height="16" viewBox="0 0 65 16" fill="none" xmlns="http://www.w3.org/2000/svg">
<g clip-path="url(#clip0_1378_1532)">
<path fill-rule="evenodd" clip-rule="evenodd" d="M6.3575 0.000488281C5.17015 0.000488281 3.7624 1.1471 2.60121 3.07477C1.39095 5.07118 0.668945 7.54269 0.668945 9.68898C0.668945 12.831 2.42437 15.9997 6.35783 15.9997C10.2866 15.9997 12.0467 12.831 12.0467 9.68898C12.0467 7.54269 11.3251 5.07118 10.1206 3.07477C8.94856 1.1471 7.54096 0.000488281 6.3575 0.000488281ZM37.0761 4.71461H41.0583V15.1429H45.3249V4.71461H49.3055V0.85714H37.0761V4.71412V4.71461ZM58.4078 4.71461H64.6655V0.85714H58.4078C52.6587 0.85714 49.5884 3.72832 49.5884 7.99951C49.5884 12.2707 52.6587 15.1429 58.4078 15.1429H64.6655V11.2855H58.4078C55.747 11.2855 53.9981 10.3303 53.9981 8C53.9981 5.66971 55.747 4.71461 58.4078 4.71461ZM28.3981 0.85714L26.1241 9.38367L23.8502 0.85714H16.3132V15.1429H20.5783V3.52326L23.6779 15.1429H28.5704L31.6716 3.51624V15.1429H35.9383V0.85714H28.3981Z" fill="#E30613"/>
</g>
<defs>
<clipPath id="clip0_1378_1532">
<rect width="64" height="16" fill="white" transform="translate(0.666992)"/>
</clipPath>
</defs>
</svg>
