<svg width="41" height="13" viewBox="0 0 41 13" fill="none" xmlns="http://www.w3.org/2000/svg">
<g clip-path="url(#clip0_1378_1464)">
<path d="M14.8418 12.1292L16.8424 0.875977H19.9683L18.0302 12.1292H14.8418Z" fill="white"/>
<path d="M14.8418 12.1292L17.405 0.875977H19.9683L18.0302 12.1292H14.8418Z" fill="white"/>
<path d="M29.3445 1.00014C28.7194 0.750071 27.7191 0.5 26.4687 0.5C23.3428 0.5 21.0922 2.06294 21.0922 4.31358C21.0922 6.00156 22.6551 6.87681 23.9055 7.43947C25.1558 8.00213 25.5309 8.37724 25.5309 8.87738C25.5309 9.6276 24.5307 10.0027 23.6554 10.0027C22.4051 10.0027 21.7174 9.81515 20.6546 9.37753L20.2169 9.18997L19.7793 11.7532C20.5295 12.0658 21.9049 12.3784 23.3428 12.3784C26.6563 12.3784 28.8444 10.8154 28.8444 8.43976C28.8444 7.12689 28.0317 6.1266 26.1561 5.31387C25.0308 4.75121 24.3431 4.43862 24.3431 3.87596C24.3431 3.37582 24.9058 2.87568 26.1561 2.87568C27.2189 2.87568 27.9691 3.06323 28.5318 3.3133L28.8444 3.43834L29.3445 1.00014Z" fill="white"/>
<path d="M29.3445 1.00014C28.7194 0.750071 27.7191 0.5 26.4687 0.5C23.3428 0.5 21.6548 2.06294 21.6548 4.31358C21.6548 6.00156 22.6551 6.87681 23.9055 7.43947C25.1558 8.00213 25.5309 8.37724 25.5309 8.87738C25.5309 9.6276 24.5307 10.0027 23.6554 10.0027C22.4051 10.0027 21.7174 9.81515 20.6546 9.37753L20.2169 9.18997L19.7793 11.7532C20.5295 12.0658 21.9049 12.3784 23.3428 12.3784C26.6563 12.3784 28.8444 10.8154 28.8444 8.43976C28.8444 7.12689 28.0317 6.1266 26.1561 5.31387C25.0308 4.75121 24.3431 4.43862 24.3431 3.87596C24.3431 3.37582 24.9058 2.87568 26.1561 2.87568C27.2189 2.87568 27.9691 3.06323 28.5318 3.3133L28.8444 3.43834L29.3445 1.00014Z" fill="white"/>
<path d="M34.7225 0.875977C33.9723 0.875977 33.4096 0.938495 33.097 1.68871L28.4082 12.1292H31.7842L32.4094 10.2536H36.4105L36.7856 12.1292H39.7865L37.1607 0.875977H34.7225ZM33.2846 8.37811C33.4722 7.81545 34.535 5.06467 34.535 5.06467C34.535 5.06467 34.785 4.37697 34.9726 3.93935L35.1601 5.00215C35.1601 5.00215 35.7853 7.81545 35.9103 8.44063H33.2846V8.37811Z" fill="white"/>
<path d="M35.4727 0.875977C34.7225 0.875977 34.1599 0.938495 33.8473 1.68871L28.4082 12.1292H31.7842L32.4094 10.2536H36.4105L36.7856 12.1292H39.7865L37.1607 0.875977H35.4727ZM33.2846 8.37811C33.5347 7.75294 34.535 5.06467 34.535 5.06467C34.535 5.06467 34.785 4.37697 34.9726 3.93935L35.1601 5.00215C35.1601 5.00215 35.7853 7.81545 35.9103 8.44063H33.2846V8.37811Z" fill="white"/>
<path d="M9.08923 8.7527L8.77664 7.12724C8.21398 5.25171 6.40096 3.18862 4.40039 2.18834L7.21369 12.1912H10.5897L15.6536 0.937988H12.2776L9.08923 8.7527Z" fill="white"/>
<path d="M9.08923 8.7527L8.77664 7.12724C8.21398 5.25171 6.40096 3.18862 4.40039 2.18834L7.21369 12.1912H10.5897L15.6536 0.937988H12.9028L9.08923 8.7527Z" fill="white"/>
<path d="M0.400391 0.875977L0.963051 1.00101C4.96419 1.93878 7.71497 4.31446 8.77778 7.12776L7.65246 1.81374C7.4649 1.06353 6.90224 0.875977 6.21455 0.875977H0.400391Z" fill="white"/>
<path d="M0.400391 0.875977C4.40153 1.81374 7.71497 4.25194 8.77778 7.06524L7.71497 2.62648C7.52742 1.87626 6.90224 1.43864 6.21455 1.43864L0.400391 0.875977Z" fill="white"/>
<path d="M0.400391 0.875977C4.40153 1.81374 7.71497 4.25194 8.77778 7.06524L8.02756 4.62704C7.84001 3.87683 7.58994 3.12662 6.71469 2.81403L0.400391 0.875977Z" fill="white"/>
<path d="M12.2171 8.37776L10.0915 6.25215L9.09116 8.62783L8.84109 7.06488C8.27843 5.18935 6.46541 3.12626 4.46484 2.12598L7.27814 12.1288H10.6541L12.2171 8.37776Z" fill="white"/>
<path d="M18.0341 12.1282L15.3459 9.37744L14.8457 12.1282H18.0341Z" fill="white"/>
<path d="M25.2223 8.25244C25.4723 8.50251 25.5974 8.69007 25.5349 8.94014C25.5349 9.69035 24.5346 10.0655 23.6593 10.0655C22.409 10.0655 21.7213 9.87791 20.6585 9.44028L20.2208 9.25273L19.7832 11.816C20.5334 12.1285 21.9088 12.4411 23.3467 12.4411C25.3473 12.4411 26.9728 11.8785 27.9105 10.8782L25.2223 8.25244Z" fill="white"/>
<path d="M28.8477 12.1288H31.786L32.4112 10.2533H36.4123L36.7874 12.1288H39.7883L38.7255 7.565L34.9744 3.93896L35.162 4.93925C35.162 4.93925 35.7871 7.75255 35.9122 8.37773H33.2864C33.5365 7.75255 34.5368 5.06429 34.5368 5.06429C34.5368 5.06429 34.7869 4.37659 34.9744 3.93896" fill="white"/>
</g>
<defs>
<clipPath id="clip0_1378_1464">
<rect width="40" height="12" fill="white" transform="translate(0.400391 0.5)"/>
</clipPath>
</defs>
</svg>
