<svg width="135" height="45" viewBox="0 0 135 45" fill="none" xmlns="http://www.w3.org/2000/svg">
<rect x="0.5" y="0.5" width="134" height="44" rx="6.5" fill="white"/>
<path d="M91.7165 21.601V24.1784H90.101V25.8687H91.7165V31.6118C91.7165 33.5728 92.6037 34.3573 94.8355 34.3573C95.2277 34.3573 95.6013 34.3106 95.9281 34.2545V32.583C95.648 32.611 95.4705 32.6297 95.1624 32.6297C94.1632 32.6297 93.7243 32.1627 93.7243 31.0982V25.8687H95.9281V24.1784H93.7243V21.601H91.7165Z" fill="black"/>
<path d="M101.614 34.4973C104.583 34.4973 106.404 32.5083 106.404 29.2118C106.404 25.934 104.574 23.9356 101.614 23.9356C98.6441 23.9356 96.8138 25.934 96.8138 29.2118C96.8138 32.5083 98.6348 34.4973 101.614 34.4973ZM101.614 32.7137C99.8674 32.7137 98.8869 31.4343 98.8869 29.2118C98.8869 27.0079 99.8674 25.7193 101.614 25.7193C103.351 25.7193 104.341 27.0079 104.341 29.2118C104.341 31.425 103.351 32.7137 101.614 32.7137Z" fill="black"/>
<path d="M107.962 34.3012H109.97V28.2966C109.97 26.8679 111.044 25.906 112.566 25.906C112.921 25.906 113.519 25.9714 113.687 26.0274V24.0477C113.472 23.9917 113.089 23.9636 112.79 23.9636C111.464 23.9636 110.334 24.692 110.045 25.6912H109.895V24.1317H107.962V34.3012Z" fill="black"/>
<path d="M118.672 25.6445C120.157 25.6445 121.128 26.6811 121.175 28.278H116.039C116.151 26.6904 117.187 25.6445 118.672 25.6445ZM121.165 31.5557C120.792 32.3495 119.961 32.7884 118.747 32.7884C117.14 32.7884 116.104 31.6585 116.039 29.8748V29.7628H123.22V29.0624C123.22 25.8687 121.511 23.9356 118.681 23.9356C115.814 23.9356 113.993 25.9994 113.993 29.2492C113.993 32.4989 115.777 34.4973 118.691 34.4973C121.016 34.4973 122.641 33.3767 123.098 31.5557H121.165Z" fill="black"/>
<path d="M78.55 30.5458C78.7048 33.043 80.7858 34.64 83.8831 34.64C87.1933 34.64 89.2646 32.9655 89.2646 30.2941C89.2646 28.1938 88.0838 27.0323 85.2188 26.3645L83.6798 25.987C81.8602 25.5611 81.1246 24.9901 81.1246 23.9931C81.1246 22.7349 82.2667 21.9122 83.9799 21.9122C85.6059 21.9122 86.7287 22.7155 86.932 24.0028H89.042C88.9161 21.6508 86.8449 19.9957 84.0089 19.9957C80.96 19.9957 78.9275 21.6508 78.9275 24.1383C78.9275 26.1903 80.0793 27.4098 82.6055 28.0002L84.4058 28.4358C86.2544 28.8713 87.0675 29.5101 87.0675 30.5748C87.0675 31.8137 85.7898 32.7139 84.0476 32.7139C82.1796 32.7139 80.8826 31.8718 80.6987 30.5458H78.55Z" fill="black"/>
<path d="M57.7517 23.9636C56.3697 23.9636 55.1743 24.6547 54.558 25.8126H54.4086V24.1317H52.4755V37.6817H54.4833V32.7604H54.6421C55.1743 33.8343 56.323 34.4693 57.7704 34.4693C60.3385 34.4693 61.9727 32.4429 61.9727 29.2118C61.9727 25.9807 60.3385 23.9636 57.7517 23.9636ZM57.1821 32.667C55.5012 32.667 54.4459 31.341 54.4459 29.2211C54.4459 27.092 55.5012 25.7659 57.1914 25.7659C58.891 25.7659 59.9089 27.064 59.9089 29.2118C59.9089 31.369 58.891 32.667 57.1821 32.667Z" fill="black"/>
<path d="M68.9981 23.9636C67.616 23.9636 66.4207 24.6547 65.8044 25.8126H65.655V24.1317H63.7219V37.6817H65.7297V32.7604H65.8884C66.4207 33.8343 67.5694 34.4693 69.0168 34.4693C71.5849 34.4693 73.2191 32.4429 73.2191 29.2118C73.2191 25.9807 71.5849 23.9636 68.9981 23.9636ZM68.4285 32.667C66.7476 32.667 65.6923 31.341 65.6923 29.2211C65.6923 27.092 66.7476 25.7659 68.4378 25.7659C70.1374 25.7659 71.1553 27.064 71.1553 29.2118C71.1553 31.369 70.1374 32.667 68.4285 32.667Z" fill="black"/>
<path d="M48.8733 34.3012H51.1769L46.1342 20.3345H43.8015L38.7588 34.3012H40.9849L42.2723 30.5942H47.5957L48.8733 34.3012ZM44.8565 22.8704H45.0211L47.044 28.7745H42.824L44.8565 22.8704Z" fill="black"/>
<path d="M40.1074 9.79977V16.5374H42.5401C44.5478 16.5374 45.7104 15.3001 45.7104 13.1476C45.7104 11.0278 44.5385 9.79977 42.5401 9.79977H40.1074ZM41.1533 10.7523H42.4233C43.8194 10.7523 44.6459 11.6394 44.6459 13.1616C44.6459 14.7071 43.8334 15.5849 42.4233 15.5849H41.1533V10.7523Z" fill="black"/>
<path d="M49.2712 16.6355C50.756 16.6355 51.6665 15.6409 51.6665 13.9927C51.6665 12.3538 50.7513 11.3546 49.2712 11.3546C47.7864 11.3546 46.8712 12.3538 46.8712 13.9927C46.8712 15.6409 47.7817 16.6355 49.2712 16.6355ZM49.2712 15.7437C48.398 15.7437 47.9078 15.104 47.9078 13.9927C47.9078 12.8908 48.398 12.2464 49.2712 12.2464C50.1396 12.2464 50.6346 12.8908 50.6346 13.9927C50.6346 15.0993 50.1396 15.7437 49.2712 15.7437Z" fill="black"/>
<path d="M59.4201 11.4527H58.4162L57.5104 15.3328H57.431L56.3851 11.4527H55.4233L54.3774 15.3328H54.3027L53.3922 11.4527H52.3743L53.7751 16.5374H54.807L55.8529 12.7927H55.9322L56.9828 16.5374H58.024L59.4201 11.4527Z" fill="black"/>
<path d="M60.5762 16.5374H61.5801V13.5631C61.5801 12.7694 62.0517 12.2744 62.7941 12.2744C63.5365 12.2744 63.8913 12.6807 63.8913 13.4978V16.5374H64.8952V13.2456C64.8952 12.0363 64.2695 11.3546 63.1349 11.3546C62.3692 11.3546 61.8649 11.6955 61.6174 12.2604H61.5427V11.4527H60.5762V16.5374Z" fill="black"/>
<path d="M66.4762 16.5374H67.4801V9.46826H66.4762V16.5374Z" fill="black"/>
<path d="M71.2556 16.6355C72.7404 16.6355 73.6509 15.6409 73.6509 13.9927C73.6509 12.3538 72.7357 11.3546 71.2556 11.3546C69.7708 11.3546 68.8556 12.3538 68.8556 13.9927C68.8556 15.6409 69.7661 16.6355 71.2556 16.6355ZM71.2556 15.7437C70.3824 15.7437 69.8922 15.104 69.8922 13.9927C69.8922 12.8908 70.3824 12.2464 71.2556 12.2464C72.1241 12.2464 72.619 12.8908 72.619 13.9927C72.619 15.0993 72.1241 15.7437 71.2556 15.7437Z" fill="black"/>
<path d="M76.642 15.7763C76.0957 15.7763 75.6988 15.5102 75.6988 15.0526C75.6988 14.6044 76.0163 14.3662 76.7167 14.3195L77.9587 14.2402V14.6651C77.9587 15.2954 77.3984 15.7763 76.642 15.7763ZM76.3852 16.6215C77.0528 16.6215 77.6085 16.332 77.912 15.823H77.9914V16.5374H78.9579V13.0635C78.9579 11.9896 78.2388 11.3546 76.9641 11.3546C75.8108 11.3546 74.9891 11.9149 74.8863 12.7881H75.8575C75.9696 12.4285 76.3571 12.2231 76.9174 12.2231C77.6038 12.2231 77.9587 12.5266 77.9587 13.0635V13.5024L76.5813 13.5818C75.3719 13.6565 74.6902 14.1841 74.6902 15.0993C74.6902 16.0285 75.4046 16.6215 76.3852 16.6215Z" fill="black"/>
<path d="M82.3645 16.6215C83.0649 16.6215 83.6579 16.2899 83.9614 15.7343H84.0408V16.5374H85.0026V9.46826H83.9987V12.2604H83.924C83.6485 11.7001 83.0602 11.3686 82.3645 11.3686C81.0805 11.3686 80.254 12.3865 80.254 13.9927C80.254 15.6036 81.0712 16.6215 82.3645 16.6215ZM82.6493 12.2698C83.4898 12.2698 84.0174 12.9375 84.0174 13.9974C84.0174 15.062 83.4945 15.7203 82.6493 15.7203C81.7995 15.7203 81.2906 15.0713 81.2906 13.9927C81.2906 12.9235 81.8042 12.2698 82.6493 12.2698Z" fill="black"/>
<path d="M91.5124 16.6355C92.9972 16.6355 93.9077 15.6409 93.9077 13.9927C93.9077 12.3538 92.9925 11.3546 91.5124 11.3546C90.0276 11.3546 89.1124 12.3538 89.1124 13.9927C89.1124 15.6409 90.0229 16.6355 91.5124 16.6355ZM91.5124 15.7437C90.6393 15.7437 90.149 15.104 90.149 13.9927C90.149 12.8908 90.6393 12.2464 91.5124 12.2464C92.3809 12.2464 92.8758 12.8908 92.8758 13.9927C92.8758 15.0993 92.3809 15.7437 91.5124 15.7437Z" fill="black"/>
<path d="M95.2365 16.5374H96.2404V13.5631C96.2404 12.7694 96.712 12.2744 97.4544 12.2744C98.1968 12.2744 98.5517 12.6807 98.5517 13.4978V16.5374H99.5555V13.2456C99.5555 12.0363 98.9299 11.3546 97.7953 11.3546C97.0295 11.3546 96.5252 11.6955 96.2778 12.2604H96.2031V11.4527H95.2365V16.5374Z" fill="black"/>
<path d="M104.179 10.1873V11.476H103.371V12.3211H104.179V15.1927C104.179 16.1732 104.623 16.5654 105.738 16.5654C105.935 16.5654 106.121 16.5421 106.285 16.5141V15.6783C106.145 15.6923 106.056 15.7016 105.902 15.7016C105.402 15.7016 105.183 15.4682 105.183 14.9359V12.3211H106.285V11.476H105.183V10.1873H104.179Z" fill="black"/>
<path d="M107.632 16.5374H108.636V13.5678C108.636 12.7974 109.094 12.2791 109.916 12.2791C110.625 12.2791 111.003 12.69 111.003 13.5024V16.5374H112.007V13.255C112.007 12.0457 111.34 11.3593 110.256 11.3593C109.491 11.3593 108.954 11.7001 108.706 12.2698H108.627V9.46826H107.632V16.5374Z" fill="black"/>
<path d="M115.629 12.2091C116.371 12.2091 116.857 12.7274 116.88 13.5258H114.312C114.368 12.732 114.886 12.2091 115.629 12.2091ZM116.875 15.1647C116.689 15.5616 116.273 15.781 115.666 15.781C114.863 15.781 114.345 15.216 114.312 14.3242V14.2682H117.903V13.918C117.903 12.3211 117.048 11.3546 115.633 11.3546C114.2 11.3546 113.289 12.3865 113.289 14.0114C113.289 15.6363 114.181 16.6355 115.638 16.6355C116.801 16.6355 117.613 16.0752 117.842 15.1647H116.875Z" fill="black"/>
<path d="M27.8652 22.8385C27.8896 20.9473 28.9052 19.1579 30.5164 18.1674C29.5 16.7158 27.7975 15.7954 26.0263 15.74C24.1372 15.5417 22.3057 16.8704 21.3431 16.8704C20.3617 16.8704 18.8796 15.7597 17.2835 15.7925C15.2031 15.8597 13.2636 17.0425 12.2515 18.8614C10.0757 22.6283 11.6986 28.1645 13.7828 31.2095C14.8256 32.7005 16.0443 34.366 17.6389 34.3069C19.1993 34.2422 19.7821 33.3119 21.6657 33.3119C23.5318 33.3119 24.0786 34.3069 25.7056 34.2694C27.38 34.2422 28.435 32.7717 29.4412 31.2666C30.1904 30.2042 30.7669 29.03 31.1494 27.7875C29.1816 26.9553 27.8675 24.975 27.8652 22.8385Z" fill="black"/>
<path d="M24.7921 13.7375C25.7051 12.6415 26.1549 11.2328 26.046 9.81055C24.6511 9.95704 23.3627 10.6237 22.4374 11.6776C21.5326 12.7074 21.0617 14.0913 21.1508 15.4592C22.5461 15.4735 23.9178 14.825 24.7921 13.7375Z" fill="black"/>
<rect x="0.5" y="0.5" width="134" height="44" rx="6.5" stroke="#A6A6A6"/>
</svg>
