<svg width="51" height="36" viewBox="0 0 51 36" fill="none" xmlns="http://www.w3.org/2000/svg">
<path d="M34.8341 1.31434C34.2483 0.728553 33.2986 0.728553 32.7128 1.31434C32.127 1.90013 32.127 2.84987 32.7128 3.43566L34.8341 1.31434ZM49.3985 18L50.4591 19.0607C51.0449 18.4749 51.0449 17.5251 50.4591 16.9393L49.3985 18ZM32.7128 32.5643C32.127 33.1501 32.127 34.0999 32.7128 34.6857C33.2986 35.2714 34.2483 35.2714 34.8341 34.6857L32.7128 32.5643ZM2.08789 16.5C1.25946 16.5 0.587891 17.1716 0.587891 18C0.587891 18.8284 1.25946 19.5 2.08789 19.5V16.5ZM32.7128 3.43566L48.3378 19.0607L50.4591 16.9393L34.8341 1.31434L32.7128 3.43566ZM48.3378 16.9393L32.7128 32.5643L34.8341 34.6857L50.4591 19.0607L48.3378 16.9393ZM49.3985 16.5H2.08789V19.5H49.3985V16.5Z" fill="url(#paint0_linear_453_562)"/>
<defs>
<linearGradient id="paint0_linear_453_562" x1="25.7432" y1="2.375" x2="25.7432" y2="33.625" gradientUnits="userSpaceOnUse">
<stop stop-color="#71EA87"/>
<stop offset="1" stop-color="#24AA2D"/>
</linearGradient>
</defs>
</svg>
