<svg width="90" height="90" viewBox="0 0 90 90" fill="none" xmlns="http://www.w3.org/2000/svg">
<rect width="90" height="90" rx="5" fill="#E0E0E0"/>
<path d="M52.1105 46.3608C53.9895 44.8824 55.3611 42.8551 56.0343 40.5608C56.7076 38.2666 56.649 35.8196 55.8667 33.5603C55.0845 31.3009 53.6175 29.3415 51.6698 27.9548C49.7221 26.568 47.3906 25.8228 44.9996 25.8228C42.6087 25.8228 40.2772 26.568 38.3295 27.9548C36.3818 29.3415 34.9148 31.3009 34.1325 33.5603C33.3503 35.8196 33.2917 38.2666 33.9649 40.5608C34.6381 42.8551 36.0097 44.8824 37.8888 46.3608C34.6689 47.6508 31.8595 49.7904 29.76 52.5515C27.6605 55.3125 26.3496 58.5916 25.9671 62.0391C25.9394 62.2908 25.9616 62.5455 26.0323 62.7886C26.1031 63.0318 26.221 63.2586 26.3794 63.4562C26.6993 63.8551 27.1646 64.1107 27.673 64.1666C28.1813 64.2225 28.691 64.0742 29.09 63.7543C29.489 63.4344 29.7445 62.9691 29.8005 62.4608C30.2213 58.7141 32.0079 55.2538 34.8187 52.741C37.6296 50.2282 41.2677 48.8391 45.038 48.8391C48.8082 48.8391 52.4464 50.2282 55.2572 52.741C58.0681 55.2538 59.8546 58.7141 60.2755 62.4608C60.3276 62.9318 60.5523 63.3667 60.9062 63.6817C61.2602 63.9968 61.7183 64.1695 62.1921 64.1666H62.403C62.9054 64.1088 63.3646 63.8548 63.6805 63.4599C63.9965 63.0649 64.1435 62.5611 64.0896 62.0583C63.7053 58.601 62.3874 55.3135 60.2771 52.5482C58.1668 49.7828 55.3437 47.644 52.1105 46.3608ZM44.9996 45C43.4833 45 42.001 44.5503 40.7403 43.7079C39.4795 42.8655 38.4968 41.6681 37.9166 40.2672C37.3363 38.8663 37.1845 37.3248 37.4803 35.8376C37.7761 34.3504 38.5063 32.9843 39.5785 31.9121C40.6507 30.8399 42.0168 30.1098 43.5039 29.8139C44.9911 29.5181 46.5326 29.6699 47.9335 30.2502C49.3344 30.8305 50.5318 31.8131 51.3742 33.0739C52.2167 34.3347 52.6663 35.817 52.6663 37.3333C52.6663 39.3666 51.8586 41.3167 50.4208 42.7544C48.983 44.1922 47.033 45 44.9996 45Z" fill="#828282"/>
</svg>
