<svg width="17" height="17" viewBox="0 0 17 17" fill="none" xmlns="http://www.w3.org/2000/svg">
<path d="M13.7467 6.23328C13.697 6.11909 13.6163 6.02109 13.5138 5.9504C13.4113 5.8797 13.2911 5.83913 13.1667 5.83328H10.1133L10.96 2.67328C10.987 2.57439 10.9908 2.47062 10.9711 2.37003C10.9515 2.26944 10.9089 2.17474 10.8467 2.09328C10.7846 2.0126 10.7048 1.94722 10.6135 1.90215C10.5222 1.85708 10.4218 1.83352 10.32 1.83328H5.65333C5.50282 1.82812 5.355 1.87408 5.23395 1.96366C5.11289 2.05324 5.02573 2.18117 4.98667 2.32661L3.2 8.99328C3.17303 9.09216 3.16923 9.19593 3.18889 9.29652C3.20854 9.39711 3.25113 9.49182 3.31333 9.57328C3.37612 9.65485 3.45695 9.72077 3.54948 9.76588C3.64201 9.81099 3.74373 9.83406 3.84667 9.83328H6.42667L5.22 14.3266C5.18046 14.4715 5.19101 14.6255 5.24993 14.7636C5.30886 14.9018 5.4127 15.016 5.54464 15.0878C5.67658 15.1595 5.82888 15.1846 5.97687 15.159C6.12486 15.1334 6.25986 15.0585 6.36 14.9466L13.6267 6.94661C13.7132 6.85187 13.7705 6.73417 13.7918 6.60763C13.8131 6.4811 13.7974 6.35112 13.7467 6.23328ZM7.22 12.0199L7.93333 9.35328C7.9603 9.25439 7.9641 9.15062 7.94444 9.05003C7.92479 8.94944 7.8822 8.85474 7.82 8.77328C7.75789 8.6926 7.67814 8.62722 7.58684 8.58215C7.49555 8.53708 7.39514 8.51352 7.29333 8.51328H4.73333L6.16 3.16661H9.44667L8.6 6.32661C8.57282 6.42731 8.56964 6.53299 8.59074 6.63514C8.61183 6.7373 8.65659 6.83308 8.72144 6.91478C8.78628 6.99648 8.86939 7.06183 8.96409 7.10557C9.05878 7.14931 9.16242 7.17021 9.26667 7.16661H11.6467L7.22 12.0199Z" fill="white"/>
</svg>
