<svg width="19" height="23" viewBox="0 0 19 23" fill="none" xmlns="http://www.w3.org/2000/svg">
<path d="M6.16702 7.39453L6.16477 7.39636L6.16263 7.39844L6.16702 7.39453ZM16.1211 7.208C16.0516 7.14095 15.9744 7.08228 15.8911 7.03319C15.7733 6.96385 15.6425 6.91941 15.5069 6.90263C15.3712 6.88584 15.2335 6.89707 15.1024 6.9356C14.9712 6.97413 14.8493 7.03916 14.7443 7.12666C14.6393 7.21417 14.5533 7.32228 14.4917 7.44433C14.1473 8.12302 13.6722 8.72702 13.0937 9.22167C13.1822 8.72327 13.2268 8.21808 13.227 7.7119C13.2289 6.172 12.8226 4.65911 12.0497 3.32726C11.2767 1.99542 10.1646 0.892186 8.82663 0.129899C8.67924 0.0463458 8.51303 0.00160832 8.34362 -0.000116038C8.1742 -0.00184039 8.00712 0.0395049 7.85806 0.12004C7.70899 0.200576 7.58283 0.317661 7.49142 0.460309C7.4 0.602958 7.34632 0.766492 7.33542 0.935569C7.27946 1.88374 7.03158 2.81069 6.60681 3.66023C6.18204 4.50978 5.58921 5.26425 4.86425 5.87793L4.63378 6.06543C3.87569 6.57552 3.20467 7.20433 2.64648 7.92773C1.77879 9.02083 1.17772 10.3011 0.890936 11.6669C0.604148 13.0327 0.639529 14.4466 0.994275 15.7964C1.34902 17.1462 2.01337 18.3948 2.93465 19.4431C3.85592 20.4914 5.00878 21.3107 6.30179 21.8359C6.45361 21.898 6.61836 21.9217 6.78151 21.905C6.94466 21.8883 7.1012 21.8317 7.23732 21.7403C7.37344 21.6488 7.48495 21.5252 7.56202 21.3804C7.63909 21.2357 7.67935 21.0742 7.67925 20.9102C7.67853 20.8041 7.66174 20.6987 7.62945 20.5977C7.40572 19.7567 7.3413 18.8813 7.4395 18.0166C8.38574 19.8013 9.90464 21.216 11.752 22.0332C11.9775 22.1341 12.2324 22.1476 12.4673 22.0713C13.9269 21.6002 15.2418 20.7637 16.287 19.6413C17.3322 18.519 18.0731 17.1479 18.4392 15.6586C18.8053 14.1692 18.7846 12.611 18.3788 11.1319C17.9731 9.65286 17.1959 8.3021 16.1211 7.208ZM12.2163 20.0391C11.3447 19.5973 10.5757 18.977 9.95949 18.2185C9.34328 17.4601 8.8936 16.5804 8.63968 15.6367C8.56213 15.319 8.50215 14.9972 8.45999 14.6728C8.43143 14.4663 8.33903 14.2738 8.19571 14.1224C8.0524 13.9709 7.86534 13.868 7.66068 13.8281C7.59763 13.8157 7.53351 13.8095 7.46925 13.8096C7.29349 13.8095 7.12082 13.8558 6.96866 13.9437C6.8165 14.0317 6.69021 14.1582 6.60255 14.3106C5.77282 15.7417 5.35555 17.3746 5.39698 19.0283C4.66722 18.4609 4.05733 17.7544 3.60266 16.9495C3.14798 16.1447 2.85757 15.2576 2.74825 14.3397C2.63893 13.4218 2.71288 12.4914 2.9658 11.6023C3.21873 10.7132 3.6456 9.88309 4.22169 9.16018C4.6591 8.59201 5.18678 8.09947 5.78369 7.70218C5.80954 7.6855 5.83432 7.66723 5.85791 7.64749C5.85791 7.64749 6.1546 7.40201 6.16474 7.39639C7.58944 6.19135 8.60275 4.5719 9.06348 2.7637C10.153 3.77093 10.8796 5.10973 11.1302 6.57221C11.3809 8.03469 11.1417 9.53901 10.4497 10.8516C10.3583 11.0267 10.3208 11.225 10.3419 11.4215C10.3631 11.6179 10.4419 11.8037 10.5685 11.9554C10.6951 12.1071 10.8638 12.2178 11.0533 12.2738C11.2428 12.3297 11.4446 12.3282 11.6333 12.2696C13.1651 11.7894 14.513 10.8515 15.4956 9.58209C16.0862 10.4544 16.4723 11.4487 16.6251 12.4909C16.778 13.5332 16.6937 14.5965 16.3784 15.6016C16.0632 16.6068 15.5253 17.5278 14.8046 18.2961C14.084 19.0644 13.1992 19.6602 12.2163 20.0391L12.2163 20.0391Z" fill="url(#paint0_linear_453_585)"/>
<defs>
<linearGradient id="paint0_linear_453_585" x1="9.69924" y1="-0.000167847" x2="9.69924" y2="22.1201" gradientUnits="userSpaceOnUse">
<stop stop-color="#71EA87"/>
<stop offset="1" stop-color="#24AA2D"/>
</linearGradient>
</defs>
</svg>
