<svg width="130" height="130" viewBox="0 0 130 130" fill="none" xmlns="http://www.w3.org/2000/svg">
<path d="M108.334 56.8751C106.897 56.8751 105.519 57.4458 104.503 58.4616C103.488 59.4774 102.917 60.8552 102.917 62.2918V100.208C102.917 101.645 102.346 103.023 101.33 104.039C100.315 105.054 98.9369 105.625 97.5003 105.625H21.667C20.2304 105.625 18.8527 105.054 17.8368 104.039C16.821 103.023 16.2503 101.645 16.2503 100.208V56.8751C16.2503 55.4385 16.821 54.0607 17.8368 53.0449C18.8527 52.0291 20.2304 51.4584 21.667 51.4584H32.5003C33.6815 51.5201 34.8504 51.1934 35.8285 50.5283C36.8066 49.8632 37.5401 48.8962 37.917 47.7751L40.842 38.8917C41.2054 37.8159 41.8977 36.8814 42.8211 36.2205C43.7445 35.5595 44.8522 35.2055 45.9878 35.2084H75.8336C77.2702 35.2084 78.648 34.6377 79.6638 33.6219C80.6796 32.6061 81.2503 31.2283 81.2503 29.7917C81.2503 28.3552 80.6796 26.9774 79.6638 25.9616C78.648 24.9458 77.2702 24.3751 75.8336 24.3751H45.717C42.3129 24.3815 38.9967 25.4567 36.2366 27.4491C33.4764 29.4414 31.4116 32.2503 30.3337 35.4792L28.6003 40.8959H21.667C17.3572 40.8959 13.224 42.608 10.1765 45.6554C7.12904 48.7029 5.41699 52.8362 5.41699 57.1459V100.479C5.41699 104.789 7.12904 108.922 10.1765 111.97C13.224 115.017 17.3572 116.729 21.667 116.729H97.5003C101.81 116.729 105.943 115.017 108.991 111.97C112.038 108.922 113.75 104.789 113.75 100.479V62.5626C113.787 61.8288 113.674 61.0952 113.418 60.4064C113.163 59.7177 112.77 59.0881 112.263 58.5561C111.756 58.0241 111.147 57.6007 110.471 57.3117C109.796 57.0227 109.068 56.8742 108.334 56.8751ZM59.5837 51.4584C55.2984 51.4584 51.1094 52.7291 47.5463 55.1099C43.9832 57.4907 41.2062 60.8745 39.5663 64.8336C37.9264 68.7927 37.4973 73.1491 38.3333 77.352C39.1693 81.555 41.2329 85.4156 44.263 88.4457C47.2931 91.4759 51.1538 93.5394 55.3567 94.3754C59.5596 95.2114 63.9161 94.7824 67.8751 93.1425C71.8342 91.5026 75.2181 88.7255 77.5988 85.1624C79.9796 81.5994 81.2503 77.4103 81.2503 73.1251C81.2503 67.3787 78.9676 61.8677 74.9043 57.8044C70.841 53.7411 65.33 51.4584 59.5837 51.4584ZM59.5837 83.9584C57.441 83.9584 55.3465 83.3231 53.565 82.1327C51.7834 80.9423 50.3949 79.2504 49.575 77.2708C48.755 75.2913 48.5405 73.1131 48.9585 71.0116C49.3765 68.9101 50.4083 66.9798 51.9233 65.4648C53.4384 63.9497 55.3687 62.9179 57.4702 62.4999C59.5716 62.0819 61.7499 62.2964 63.7294 63.1164C65.7089 63.9363 67.4009 65.3249 68.5912 67.1064C69.7816 68.8879 70.417 70.9825 70.417 73.1251C70.417 75.9983 69.2756 78.7538 67.244 80.7854C65.2123 82.817 62.4568 83.9584 59.5837 83.9584ZM119.167 24.3751H113.75V18.9584C113.75 17.5218 113.18 16.1441 112.164 15.1283C111.148 14.1124 109.77 13.5417 108.334 13.5417C106.897 13.5417 105.519 14.1124 104.503 15.1283C103.488 16.1441 102.917 17.5218 102.917 18.9584V24.3751H97.5003C96.0637 24.3751 94.686 24.9458 93.6702 25.9616C92.6543 26.9774 92.0836 28.3552 92.0836 29.7917C92.0836 31.2283 92.6543 32.6061 93.6702 33.6219C94.686 34.6377 96.0637 35.2084 97.5003 35.2084H102.917V40.6251C102.917 42.0617 103.488 43.4394 104.503 44.4552C105.519 45.4711 106.897 46.0417 108.334 46.0417C109.77 46.0417 111.148 45.4711 112.164 44.4552C113.18 43.4394 113.75 42.0617 113.75 40.6251V35.2084H119.167C120.604 35.2084 121.981 34.6377 122.997 33.6219C124.013 32.6061 124.584 31.2283 124.584 29.7917C124.584 28.3552 124.013 26.9774 122.997 25.9616C121.981 24.9458 120.604 24.3751 119.167 24.3751Z" fill="url(#paint0_linear_1049_2199)"/>
<defs>
<linearGradient id="paint0_linear_1049_2199" x1="65.0003" y1="13.5417" x2="65.0003" y2="116.729" gradientUnits="userSpaceOnUse">
<stop stop-color="#71EA87"/>
<stop offset="1" stop-color="#24AA2D"/>
</linearGradient>
</defs>
</svg>
