<svg width="26" height="26" viewBox="0 0 26 26" fill="none" xmlns="http://www.w3.org/2000/svg">
<path d="M10.7625 16.4375C10.8787 16.5547 11.017 16.6477 11.1693 16.7111C11.3216 16.7746 11.485 16.8072 11.65 16.8072C11.815 16.8072 11.9784 16.7746 12.1307 16.7111C12.283 16.6477 12.4213 16.5547 12.5375 16.4375L17.6375 11.3375C17.8729 11.1021 18.0051 10.7829 18.0051 10.45C18.0051 10.1171 17.8729 9.79788 17.6375 9.5625C17.4021 9.32712 17.0829 9.19489 16.75 9.19489C16.4171 9.19489 16.0979 9.32712 15.8625 9.5625L11.65 13.7875L10.1375 12.2625C9.90212 12.0271 9.58288 11.8949 9.25 11.8949C8.91712 11.8949 8.59788 12.0271 8.3625 12.2625C8.12712 12.4979 7.99489 12.8171 7.99489 13.15C7.99489 13.4829 8.12712 13.8021 8.3625 14.0375L10.7625 16.4375ZM24.25 0.5H1.75C1.41848 0.5 1.10054 0.631696 0.866116 0.866116C0.631696 1.10054 0.5 1.41848 0.5 1.75V24.25C0.5 24.5815 0.631696 24.8995 0.866116 25.1339C1.10054 25.3683 1.41848 25.5 1.75 25.5H24.25C24.5815 25.5 24.8995 25.3683 25.1339 25.1339C25.3683 24.8995 25.5 24.5815 25.5 24.25V1.75C25.5 1.41848 25.3683 1.10054 25.1339 0.866116C24.8995 0.631696 24.5815 0.5 24.25 0.5ZM23 23H3V3H23V23Z" fill="url(#paint0_linear_453_545)"/>
<defs>
<linearGradient id="paint0_linear_453_545" x1="13" y1="0.5" x2="13" y2="25.5" gradientUnits="userSpaceOnUse">
<stop stop-color="#71EA87"/>
<stop offset="1" stop-color="#24AA2D"/>
</linearGradient>
</defs>
</svg>
