<svg width="30" height="30" viewBox="0 0 30 30" fill="none" xmlns="http://www.w3.org/2000/svg">
<path d="M8.75 15C8.75 14.5055 8.60338 14.0222 8.32868 13.6111C8.05397 13.2 7.66353 12.8795 7.20671 12.6903C6.74989 12.5011 6.24723 12.4516 5.76228 12.548C5.27732 12.6445 4.83187 12.8826 4.48223 13.2322C4.1326 13.5819 3.8945 14.0273 3.79804 14.5123C3.70157 14.9972 3.75108 15.4999 3.9403 15.9567C4.12952 16.4135 4.44995 16.804 4.86108 17.0787C5.2722 17.3534 5.75555 17.5 6.25 17.5C6.91304 17.5 7.54893 17.2366 8.01777 16.7678C8.48661 16.2989 8.75 15.663 8.75 15ZM21.25 15C21.25 15.4945 21.3966 15.9778 21.6713 16.3889C21.946 16.8 22.3365 17.1205 22.7933 17.3097C23.2501 17.4989 23.7528 17.5484 24.2377 17.452C24.7227 17.3555 25.1681 17.1174 25.5178 16.7678C25.8674 16.4181 26.1055 15.9727 26.202 15.4877C26.2984 15.0028 26.2489 14.5001 26.0597 14.0433C25.8705 13.5865 25.55 13.196 25.1389 12.9213C24.7278 12.6466 24.2445 12.5 23.75 12.5C23.087 12.5 22.4511 12.7634 21.9822 13.2322C21.5134 13.7011 21.25 14.337 21.25 15ZM12.5 15C12.5 15.4945 12.6466 15.9778 12.9213 16.3889C13.196 16.8 13.5865 17.1205 14.0433 17.3097C14.5001 17.4989 15.0028 17.5484 15.4877 17.452C15.9727 17.3555 16.4181 17.1174 16.7678 16.7678C17.1174 16.4181 17.3555 15.9727 17.452 15.4877C17.5484 15.0028 17.4989 14.5001 17.3097 14.0433C17.1205 13.5865 16.8 13.196 16.3889 12.9213C15.9778 12.6466 15.4945 12.5 15 12.5C14.337 12.5 13.7011 12.7634 13.2322 13.2322C12.7634 13.7011 12.5 14.337 12.5 15Z" fill="#828282"/>
</svg>
