<svg width="12" height="14" viewBox="0 0 12 14" fill="none" xmlns="http://www.w3.org/2000/svg">
<path d="M3.93955 4.89681L3.93824 4.89788L3.93699 4.89909L3.93955 4.89681ZM9.74611 4.788C9.70553 4.74889 9.6605 4.71466 9.61195 4.68603C9.54322 4.64558 9.46693 4.61966 9.38779 4.60987C9.30865 4.60008 9.22834 4.60662 9.15183 4.6291C9.07532 4.65158 9.00423 4.68951 8.94297 4.74056C8.8817 4.7916 8.83155 4.85467 8.79563 4.92586C8.59469 5.32176 8.31755 5.67409 7.98013 5.96264C8.03172 5.67191 8.05774 5.37722 8.05788 5.08194C8.05897 4.18367 7.822 3.30115 7.3711 2.52424C6.9202 1.74733 6.27148 1.10378 5.49099 0.659109C5.40501 0.61037 5.30806 0.584273 5.20923 0.583267C5.1104 0.582261 5.01294 0.606379 4.92599 0.653358C4.83903 0.700337 4.76544 0.768637 4.71212 0.851848C4.65879 0.93506 4.62748 1.03046 4.62112 1.12908C4.58847 1.68218 4.44388 2.2229 4.1961 2.71847C3.94831 3.21404 3.6025 3.65415 3.1796 4.01213L3.04516 4.1215C2.60294 4.41905 2.21152 4.78586 1.8859 5.20784C1.37975 5.84549 1.02913 6.59229 0.861835 7.38903C0.694542 8.18577 0.715181 9.01053 0.922116 9.7979C1.12905 10.5853 1.51659 11.3136 2.054 11.9251C2.59141 12.5367 3.26391 13.0146 4.01817 13.321C4.10673 13.3572 4.20283 13.371 4.298 13.3613C4.39318 13.3515 4.48449 13.3185 4.56389 13.2652C4.64329 13.2118 4.70834 13.1397 4.7533 13.0553C4.79826 12.9708 4.82174 12.8766 4.82168 12.7809C4.82127 12.719 4.81147 12.6576 4.79263 12.5986C4.66213 12.1081 4.62455 11.5974 4.68183 11.093C5.2338 12.1341 6.11983 12.9593 7.19746 13.436C7.32899 13.4949 7.47769 13.5028 7.61474 13.4583C8.46615 13.1834 9.23315 12.6955 9.84286 12.0408C10.4526 11.3861 10.8848 10.5863 11.0983 9.71751C11.3119 8.84872 11.2998 7.93974 11.0631 7.07696C10.8264 6.21417 10.3731 5.42623 9.74611 4.788ZM7.46832 12.2728C6.95984 12.0151 6.51129 11.6533 6.15183 11.2108C5.79237 10.7684 5.53005 10.2552 5.38194 9.70475C5.3367 9.5194 5.30171 9.3317 5.27712 9.1425C5.26046 9.02201 5.20656 8.90974 5.12296 8.82139C5.03936 8.73304 4.93024 8.67303 4.81085 8.64974C4.77407 8.64249 4.73667 8.63886 4.69919 8.63892C4.59666 8.63888 4.49594 8.66588 4.40717 8.71719C4.31841 8.7685 4.24475 8.84231 4.19361 8.93117C3.7096 9.76599 3.46619 10.7185 3.49036 11.6832C3.06467 11.3522 2.7089 10.94 2.44367 10.4706C2.17845 10.0011 2.00904 9.48362 1.94527 8.94818C1.8815 8.41274 1.92463 7.86997 2.07217 7.35132C2.21971 6.83268 2.46872 6.34847 2.80477 5.92677C3.05993 5.59534 3.36774 5.30803 3.71594 5.07627C3.73102 5.06654 3.74548 5.05589 3.75924 5.04437C3.75924 5.04437 3.93231 4.90117 3.93822 4.89789C4.76929 4.19496 5.36039 3.25028 5.62915 2.19549C6.26473 2.78304 6.68854 3.56401 6.83476 4.41712C6.98098 5.27024 6.84143 6.14776 6.43779 6.91343C6.38446 7.0156 6.36258 7.13128 6.37492 7.24586C6.38725 7.36045 6.43325 7.46882 6.5071 7.5573C6.58095 7.64578 6.67936 7.71041 6.78989 7.74303C6.90043 7.77565 7.01816 7.7748 7.12821 7.7406C8.02176 7.4605 8.80804 6.91338 9.38123 6.17289C9.72572 6.68172 9.95094 7.26174 10.0401 7.86972C10.1293 8.4777 10.0801 9.09796 9.89621 9.68429C9.71234 10.2706 9.39853 10.8079 8.97815 11.2561C8.55777 11.7043 8.04167 12.0518 7.4683 12.2728L7.46832 12.2728Z" fill="#828282"/>
</svg>
