<svg width="152" height="45" viewBox="0 0 152 45" fill="none" xmlns="http://www.w3.org/2000/svg">
<rect x="0.5" y="0.5" width="151" height="44" rx="4.5" fill="white"/>
<path d="M76.7163 24.47C74.0681 24.47 71.9097 26.4826 71.9097 29.2546C71.9097 32.0097 74.0681 34.0392 76.7163 34.0392C79.3656 34.0392 81.524 32.0097 81.524 29.2546C81.5229 26.4826 79.3645 24.47 76.7163 24.47ZM76.7163 32.156C75.265 32.156 74.0141 30.9601 74.0141 29.2557C74.0141 27.5334 75.2661 26.3555 76.7163 26.3555C78.1676 26.3555 79.4185 27.5334 79.4185 29.2557C79.4185 30.959 78.1676 32.156 76.7163 32.156ZM66.2294 24.47C63.5812 24.47 61.4228 26.4826 61.4228 29.2546C61.4228 32.0097 63.5812 34.0392 66.2294 34.0392C68.8787 34.0392 71.0371 32.0097 71.0371 29.2546C71.0371 26.4826 68.8787 24.47 66.2294 24.47ZM66.2294 32.156C64.7781 32.156 63.5272 30.9601 63.5272 29.2557C63.5272 27.5334 64.7792 26.3555 66.2294 26.3555C67.6807 26.3555 68.9316 27.5334 68.9316 29.2557C68.9328 30.959 67.6807 32.156 66.2294 32.156ZM53.7564 25.9392V27.9687H58.6182C58.4729 29.1106 58.0923 29.9442 57.5114 30.5236C56.8043 31.2301 55.6975 32.0097 53.7564 32.0097C50.7637 32.0097 48.424 29.5989 48.424 26.6086C48.424 23.6184 50.7637 21.2075 53.7564 21.2075C55.371 21.2075 56.5498 21.842 57.4202 22.6576L58.8535 21.2255C57.6375 20.0656 56.024 19.178 53.7564 19.178C49.6569 19.178 46.2104 22.5125 46.2104 26.6086C46.2104 30.7047 49.6569 34.0392 53.7564 34.0392C55.9688 34.0392 57.6386 33.3136 58.9435 31.9546C60.2857 30.6136 60.7034 28.7281 60.7034 27.206C60.7034 26.7357 60.6673 26.3004 60.5942 25.9381H53.7564V25.9392ZM104.77 27.5154C104.371 26.4466 103.155 24.47 100.67 24.47C98.2035 24.47 96.1531 26.4095 96.1531 29.2546C96.1531 31.9366 98.1854 34.0392 100.906 34.0392C103.1 34.0392 104.37 32.6982 104.897 31.9186L103.264 30.8307C102.721 31.6284 101.976 32.1537 100.906 32.1537C99.8361 32.1537 99.0738 31.6644 98.584 30.7036L104.987 28.0576L104.77 27.5154ZM98.2395 29.1106C98.1854 27.2611 99.6728 26.3195 100.744 26.3195C101.578 26.3195 102.285 26.7369 102.521 27.3342L98.2395 29.1106ZM93.0343 33.7501H95.1376V19.6865H93.0343V33.7501ZM89.5867 25.5399H89.5147C89.0429 24.9774 88.1354 24.47 86.9937 24.47C84.5989 24.47 82.4045 26.5726 82.4045 29.2737C82.4045 31.9557 84.5989 34.0404 86.9937 34.0404C88.1366 34.0404 89.0429 33.533 89.5147 32.9536H89.5867V33.6421C89.5867 35.4725 88.6072 36.4512 87.0298 36.4512C85.7417 36.4512 84.9434 35.5276 84.6169 34.748L82.785 35.5096C83.3108 36.7775 84.707 38.3367 87.0298 38.3367C89.4967 38.3367 91.583 36.8866 91.583 33.3519V24.7614H89.5879V25.5399H89.5867ZM87.175 32.156C85.7237 32.156 84.5088 30.941 84.5088 29.2737C84.5088 27.5874 85.7237 26.3555 87.175 26.3555C88.6072 26.3555 89.732 27.5874 89.732 29.2737C89.732 30.941 88.6072 32.156 87.175 32.156ZM114.626 19.6865H109.592V33.7501H111.692V28.4221H114.625C116.953 28.4221 119.244 26.738 119.244 24.0549C119.244 21.3717 116.955 19.6865 114.626 19.6865ZM114.68 26.4646H111.692V21.644H114.68C116.251 21.644 117.143 22.9434 117.143 24.0549C117.143 25.1439 116.251 26.4646 114.68 26.4646ZM127.664 24.4452C126.143 24.4452 124.568 25.1146 123.916 26.5985L125.781 27.3759C126.179 26.5985 126.922 26.3442 127.7 26.3442C128.787 26.3442 129.892 26.9956 129.91 28.1532V28.2984C129.529 28.0812 128.714 27.7561 127.718 27.7561C125.709 27.7561 123.662 28.8597 123.662 30.9219C123.662 32.804 125.31 34.0156 127.157 34.0156C128.569 34.0156 129.348 33.3822 129.836 32.6397H129.908V33.7254H131.937V28.3332C131.938 25.838 130.072 24.4452 127.664 24.4452ZM127.41 32.1526C126.723 32.1526 125.763 31.8084 125.763 30.9579C125.763 29.8722 126.958 29.456 127.991 29.456C128.913 29.456 129.349 29.6551 129.91 29.9262C129.746 31.2301 128.624 32.1526 127.41 32.1526ZM139.326 24.7524L136.917 30.8499H136.845L134.346 24.7524H132.083L135.831 33.2742L133.694 38.015H135.885L141.662 24.7524H139.326ZM120.403 33.7501H122.503V19.6865H120.403V33.7501Z" fill="black"/>
<path d="M53.3894 11.5233C53.3894 12.4661 53.1102 13.2165 52.5506 13.7767C51.9156 14.4427 51.0869 14.7757 50.0691 14.7757C49.094 14.7757 48.2642 14.4382 47.583 13.7632C46.9007 13.0871 46.5596 12.2501 46.5596 11.2511C46.5596 10.251 46.9007 9.41397 47.583 8.73897C48.2642 8.06284 49.094 7.72534 50.0691 7.72534C50.5532 7.72534 51.016 7.81984 51.4551 8.00772C51.8953 8.19672 52.2477 8.44759 52.5112 8.76147L51.9179 9.35547C51.4709 8.82109 50.855 8.55447 50.068 8.55447C49.3564 8.55447 48.7416 8.80422 48.2226 9.30372C47.7035 9.80322 47.4445 10.4523 47.4445 11.25C47.4445 12.0476 47.7035 12.6967 48.2226 13.1962C48.7416 13.6957 49.3564 13.9455 50.068 13.9455C50.8223 13.9455 51.4517 13.6946 51.955 13.1917C52.2815 12.8643 52.4707 12.4087 52.5213 11.8248H50.068V11.0137H53.341C53.3748 11.1903 53.3894 11.3602 53.3894 11.5233Z" fill="black"/>
<path d="M58.5801 8.70416H55.504V10.8439H58.2783V11.655H55.504V13.7948H58.5801V14.625H54.6359V7.87503H58.5801V8.70416Z" fill="black"/>
<path d="M62.2403 14.625H61.3722V8.70416H59.4852V7.87503H64.1274V8.70416H62.2403V14.625Z" fill="black"/>
<path d="M67.486 14.625V7.87503H68.354V14.625H67.486Z" fill="black"/>
<path d="M72.2038 14.625H71.3357V8.70416H69.4486V7.87503H74.0908V8.70416H72.2038V14.625Z" fill="black"/>
<path d="M82.8784 13.7531C82.2141 14.4349 81.3888 14.7758 80.4014 14.7758C79.4139 14.7758 78.5886 14.4349 77.9255 13.7531C77.2612 13.0714 76.9302 12.2366 76.9302 11.25C76.9302 10.2634 77.2612 9.42864 77.9255 8.74689C78.5886 8.06514 79.4139 7.72314 80.4014 7.72314C81.3832 7.72314 82.2074 8.06627 82.8739 8.75139C83.5405 9.43652 83.8737 10.269 83.8737 11.25C83.8737 12.2366 83.5416 13.0714 82.8784 13.7531ZM78.5661 13.1873C79.066 13.6935 79.6774 13.9455 80.4014 13.9455C81.1254 13.9455 81.7379 13.6924 82.2366 13.1873C82.7366 12.681 82.9876 12.0353 82.9876 11.25C82.9876 10.4648 82.7366 9.81902 82.2366 9.31277C81.7379 8.80652 81.1254 8.55452 80.4014 8.55452C79.6774 8.55452 79.066 8.80764 78.5661 9.31277C78.0673 9.81902 77.8163 10.4648 77.8163 11.25C77.8163 12.0353 78.0673 12.681 78.5661 13.1873Z" fill="black"/>
<path d="M85.092 14.625V7.87503H86.1481L89.4313 13.1254H89.4685L89.4313 11.8249V7.87503H90.2994V14.625H89.3931L85.9579 9.11928H85.9207L85.9579 10.4198V14.625H85.092Z" fill="black"/>
<path d="M53.3894 11.5233C53.3894 12.4661 53.1102 13.2165 52.5506 13.7767C51.9156 14.4427 51.0869 14.7757 50.0691 14.7757C49.094 14.7757 48.2642 14.4382 47.583 13.7632C46.9007 13.0871 46.5596 12.2501 46.5596 11.2511C46.5596 10.251 46.9007 9.41397 47.583 8.73897C48.2642 8.06284 49.094 7.72534 50.0691 7.72534C50.5532 7.72534 51.016 7.81984 51.4551 8.00772C51.8953 8.19672 52.2477 8.44759 52.5112 8.76147L51.9179 9.35547C51.4709 8.82109 50.855 8.55447 50.068 8.55447C49.3564 8.55447 48.7416 8.80422 48.2226 9.30372C47.7035 9.80322 47.4445 10.4523 47.4445 11.25C47.4445 12.0476 47.7035 12.6967 48.2226 13.1962C48.7416 13.6957 49.3564 13.9455 50.068 13.9455C50.8223 13.9455 51.4517 13.6946 51.955 13.1917C52.2815 12.8643 52.4707 12.4087 52.5213 11.8248H50.068V11.0137H53.341C53.3748 11.1903 53.3894 11.3602 53.3894 11.5233Z" stroke="black" stroke-width="0.2" stroke-miterlimit="10"/>
<path d="M58.5801 8.70416H55.504V10.8439H58.2783V11.655H55.504V13.7948H58.5801V14.625H54.6359V7.87503H58.5801V8.70416Z" stroke="black" stroke-width="0.2" stroke-miterlimit="10"/>
<path d="M62.2403 14.625H61.3722V8.70416H59.4852V7.87503H64.1274V8.70416H62.2403V14.625Z" stroke="black" stroke-width="0.2" stroke-miterlimit="10"/>
<path d="M67.486 14.625V7.87503H68.354V14.625H67.486Z" stroke="black" stroke-width="0.2" stroke-miterlimit="10"/>
<path d="M72.2038 14.625H71.3357V8.70416H69.4486V7.87503H74.0908V8.70416H72.2038V14.625Z" stroke="black" stroke-width="0.2" stroke-miterlimit="10"/>
<path d="M82.8784 13.7531C82.2141 14.4349 81.3888 14.7758 80.4014 14.7758C79.4139 14.7758 78.5886 14.4349 77.9255 13.7531C77.2612 13.0714 76.9302 12.2366 76.9302 11.25C76.9302 10.2634 77.2612 9.42864 77.9255 8.74689C78.5886 8.06514 79.4139 7.72314 80.4014 7.72314C81.3832 7.72314 82.2074 8.06627 82.8739 8.75139C83.5405 9.43652 83.8737 10.269 83.8737 11.25C83.8737 12.2366 83.5416 13.0714 82.8784 13.7531ZM78.5661 13.1873C79.066 13.6935 79.6774 13.9455 80.4014 13.9455C81.1254 13.9455 81.7379 13.6924 82.2366 13.1873C82.7366 12.681 82.9876 12.0353 82.9876 11.25C82.9876 10.4648 82.7366 9.81902 82.2366 9.31277C81.7379 8.80652 81.1254 8.55452 80.4014 8.55452C79.6774 8.55452 79.066 8.80764 78.5661 9.31277C78.0673 9.81902 77.8163 10.4648 77.8163 11.25C77.8163 12.0353 78.0673 12.681 78.5661 13.1873Z" stroke="black" stroke-width="0.2" stroke-miterlimit="10"/>
<path d="M85.092 14.625V7.87503H86.1481L89.4313 13.1254H89.4685L89.4313 11.8249V7.87503H90.2994V14.625H89.3931L85.9579 9.11928H85.9207L85.9579 10.4198V14.625H85.092Z" stroke="black" stroke-width="0.2" stroke-miterlimit="10"/>
<g filter="url(#filter0_ii_453_707)">
<path d="M11.7503 8.48026C11.4227 8.82676 11.229 9.36451 11.229 10.0609V34.9414C11.229 35.6389 11.4227 36.1755 11.7503 36.522L11.8336 36.603L25.7827 22.6654V22.5011V22.3369L11.8336 8.39813L11.7503 8.48026Z" fill="url(#paint0_linear_453_707)"/>
<path d="M30.4317 27.3128L25.7827 22.6654V22.5012V22.3369L30.4328 17.6907L30.5375 17.7503L36.0467 20.8778C37.6196 21.771 37.6196 23.2324 36.0467 24.1268L30.5375 27.2543L30.4317 27.3128Z" fill="url(#paint1_linear_453_707)"/>
<g filter="url(#filter1_i_453_707)">
<path d="M30.5377 27.2532L25.7818 22.5012L11.7505 36.522C12.2684 37.071 13.1252 37.1385 14.0902 36.5918L30.5377 27.2532Z" fill="url(#paint2_linear_453_707)"/>
</g>
<path d="M30.5377 17.7492L14.0902 8.41165C13.1252 7.86378 12.2684 7.9324 11.7505 8.4814L25.7829 22.5023L30.5377 17.7492Z" fill="url(#paint3_linear_453_707)"/>
</g>
<rect x="0.5" y="0.5" width="151" height="44" rx="4.5" stroke="#A6A6A6"/>
<defs>
<filter id="filter0_ii_453_707" x="11.229" y="8.03357" width="25.9976" height="28.9359" filterUnits="userSpaceOnUse" color-interpolation-filters="sRGB">
<feFlood flood-opacity="0" result="BackgroundImageFix"/>
<feBlend mode="normal" in="SourceGraphic" in2="BackgroundImageFix" result="shape"/>
<feColorMatrix in="SourceAlpha" type="matrix" values="0 0 0 0 0 0 0 0 0 0 0 0 0 0 0 0 0 0 127 0" result="hardAlpha"/>
<feOffset dy="-0.15"/>
<feComposite in2="hardAlpha" operator="arithmetic" k2="-1" k3="1"/>
<feColorMatrix type="matrix" values="0 0 0 0 0 0 0 0 0 0 0 0 0 0 0 0 0 0 0.12 0"/>
<feBlend mode="normal" in2="shape" result="effect1_innerShadow_453_707"/>
<feColorMatrix in="SourceAlpha" type="matrix" values="0 0 0 0 0 0 0 0 0 0 0 0 0 0 0 0 0 0 127 0" result="hardAlpha"/>
<feOffset dy="0.15"/>
<feComposite in2="hardAlpha" operator="arithmetic" k2="-1" k3="1"/>
<feColorMatrix type="matrix" values="0 0 0 0 1 0 0 0 0 1 0 0 0 0 1 0 0 0 0.25 0"/>
<feBlend mode="normal" in2="effect1_innerShadow_453_707" result="effect2_innerShadow_453_707"/>
</filter>
<filter id="filter1_i_453_707" x="11.7505" y="22.5012" width="18.7871" height="14.4683" filterUnits="userSpaceOnUse" color-interpolation-filters="sRGB">
<feFlood flood-opacity="0" result="BackgroundImageFix"/>
<feBlend mode="normal" in="SourceGraphic" in2="BackgroundImageFix" result="shape"/>
<feColorMatrix in="SourceAlpha" type="matrix" values="0 0 0 0 0 0 0 0 0 0 0 0 0 0 0 0 0 0 127 0" result="hardAlpha"/>
<feOffset dy="-0.15"/>
<feComposite in2="hardAlpha" operator="arithmetic" k2="-1" k3="1"/>
<feColorMatrix type="matrix" values="0 0 0 0 0 0 0 0 0 0 0 0 0 0 0 0 0 0 0.08 0"/>
<feBlend mode="normal" in2="shape" result="effect1_innerShadow_453_707"/>
</filter>
<linearGradient id="paint0_linear_453_707" x1="24.5462" y1="9.79763" x2="5.66649" y2="28.6929" gradientUnits="userSpaceOnUse">
<stop stop-color="#00A0FF"/>
<stop offset="0.0066" stop-color="#00A1FF"/>
<stop offset="0.2601" stop-color="#00BEFF"/>
<stop offset="0.5122" stop-color="#00D2FF"/>
<stop offset="0.7604" stop-color="#00DFFF"/>
<stop offset="1" stop-color="#00E3FF"/>
</linearGradient>
<linearGradient id="paint1_linear_453_707" x1="38.0942" y1="22.5012" x2="10.8514" y2="22.5012" gradientUnits="userSpaceOnUse">
<stop stop-color="#FFE000"/>
<stop offset="0.4087" stop-color="#FFBD00"/>
<stop offset="0.7754" stop-color="#FFA500"/>
<stop offset="1" stop-color="#FF9C00"/>
</linearGradient>
<linearGradient id="paint2_linear_453_707" x1="27.9549" y1="25.0818" x2="2.35163" y2="50.7062" gradientUnits="userSpaceOnUse">
<stop stop-color="#FF3A44"/>
<stop offset="1" stop-color="#C31162"/>
</linearGradient>
<linearGradient id="paint3_linear_453_707" x1="21.1441" y1="8.03357" x2="21.1441" y2="22.5023" gradientUnits="userSpaceOnUse">
<stop stop-color="#71EA87"/>
<stop offset="1" stop-color="#24AA2D"/>
</linearGradient>
</defs>
</svg>
