<svg width="30" height="30" viewBox="0 0 30 30" fill="none" xmlns="http://www.w3.org/2000/svg">
<g clip-path="url(#clip0_1198_295)">
<rect width="30" height="30" rx="5" fill="url(#paint0_linear_1198_295)"/>
<path d="M18 14.5798C18 16.1655 16.5857 17.5798 15 17.5798C13.4143 17.5798 12 16.1655 12 14.5798C12 12.9941 13.4143 11.5798 15 11.5798C16.5857 11.5798 18 12.9941 18 14.5798Z" fill="#1F1F1F"/>
<path d="M22.6072 8.82465C22.4508 8.40094 22.2013 8.01743 21.8772 7.70263C21.5624 7.3785 21.1791 7.12905 20.7552 6.97268C20.4113 6.83914 19.8948 6.68019 18.9434 6.63688C17.9142 6.58995 17.6056 6.57983 15.0001 6.57983C12.3944 6.57983 12.0858 6.58969 11.0569 6.63662C10.1055 6.68019 9.58866 6.83914 9.24508 6.97268C8.82111 7.12905 8.4376 7.3785 8.12306 7.70263C7.79892 8.01743 7.54947 8.40069 7.39285 8.82465C7.25931 9.16849 7.10035 9.68529 7.05705 10.6367C7.01011 11.6656 7 11.9742 7 14.58C7 17.1855 7.01011 17.4941 7.05705 18.5232C7.10035 19.4746 7.25931 19.9912 7.39285 20.335C7.54947 20.759 7.79866 21.1422 8.1228 21.457C8.4376 21.7812 8.82085 22.0306 9.24482 22.187C9.58866 22.3208 10.1055 22.4797 11.0569 22.523C12.0858 22.57 12.3941 22.5798 14.9999 22.5798C17.6059 22.5798 17.9145 22.57 18.9431 22.523C19.8945 22.4797 20.4113 22.3208 20.7552 22.187C21.6062 21.8587 22.2789 21.1861 22.6072 20.335C22.7407 19.9912 22.8996 19.4746 22.9432 18.5232C22.9901 17.4941 23 17.1855 23 14.58C23 11.9742 22.9901 11.6656 22.9432 10.6367C22.8999 9.68529 22.741 9.16849 22.6072 8.82465ZM14.9305 19.6085C12.1629 19.6085 9.83232 17.2779 9.83232 14.5103C9.83232 11.7428 12.1629 9.41215 14.9305 9.41215C17.6978 9.41215 20.0287 11.7428 20.0287 14.5103C20.0287 17.2779 17.6978 19.6085 14.9305 19.6085ZM20.2091 10.5418C19.5624 10.5418 19.0381 10.0175 19.0381 9.37075C19.0381 8.72404 19.5624 8.19972 20.2091 8.19972C20.8558 8.19972 21.3801 8.72404 21.3801 9.37075C21.3799 10.0175 20.8558 10.5418 20.2091 10.5418Z" fill="#1F1F1F"/>
</g>
<defs>
<linearGradient id="paint0_linear_1198_295" x1="0.333333" y1="14.4088" x2="28.6752" y2="14.8593" gradientUnits="userSpaceOnUse">
<stop stop-color="#DADADA"/>
<stop offset="1" stop-color="white"/>
</linearGradient>
<clipPath id="clip0_1198_295">
<rect width="30" height="30" fill="white"/>
</clipPath>
</defs>
</svg>
