<svg width="17" height="16" viewBox="0 0 17 16" fill="none" xmlns="http://www.w3.org/2000/svg">
<path d="M13.8333 8.00004C13.8333 7.82323 13.7631 7.65366 13.6381 7.52864C13.5131 7.40361 13.3435 7.33337 13.1667 7.33337H8.10667L9.64001 5.80671C9.70216 5.74455 9.75147 5.67075 9.78511 5.58954C9.81875 5.50833 9.83607 5.42128 9.83607 5.33337C9.83607 5.24547 9.81875 5.15842 9.78511 5.07721C9.75147 4.99599 9.70216 4.9222 9.64001 4.86004C9.57785 4.79788 9.50405 4.74857 9.42284 4.71493C9.34162 4.68129 9.25458 4.66398 9.16667 4.66398C9.07877 4.66398 8.99172 4.68129 8.91051 4.71493C8.82929 4.74857 8.7555 4.79788 8.69334 4.86004L6.02667 7.52671C5.96598 7.59011 5.9184 7.66487 5.88667 7.74671C5.81999 7.90901 5.81999 8.09107 5.88667 8.25337C5.9184 8.33521 5.96598 8.40997 6.02667 8.47337L8.69334 11.14C8.75531 11.2025 8.82905 11.2521 8.91029 11.286C8.99153 11.3198 9.07866 11.3372 9.16667 11.3372C9.25468 11.3372 9.34182 11.3198 9.42306 11.286C9.5043 11.2521 9.57803 11.2025 9.64001 11.14C9.70249 11.0781 9.75209 11.0043 9.78593 10.9231C9.81978 10.8419 9.8372 10.7547 9.8372 10.6667C9.8372 10.5787 9.81978 10.4916 9.78593 10.4103C9.75209 10.3291 9.70249 10.2553 9.64001 10.1934L8.10667 8.66671H13.1667C13.3435 8.66671 13.5131 8.59647 13.6381 8.47144C13.7631 8.34642 13.8333 8.17685 13.8333 8.00004ZM11.8333 1.33337H5.16667C4.63624 1.33337 4.12753 1.54409 3.75246 1.91916C3.37739 2.29423 3.16667 2.80294 3.16667 3.33337V12.6667C3.16667 13.1971 3.37739 13.7058 3.75246 14.0809C4.12753 14.456 4.63624 14.6667 5.16667 14.6667H11.8333C12.3638 14.6667 12.8725 14.456 13.2476 14.0809C13.6226 13.7058 13.8333 13.1971 13.8333 12.6667V10.6667C13.8333 10.4899 13.7631 10.3203 13.6381 10.1953C13.5131 10.0703 13.3435 10 13.1667 10C12.9899 10 12.8203 10.0703 12.6953 10.1953C12.5702 10.3203 12.5 10.4899 12.5 10.6667V12.6667C12.5 12.8435 12.4298 13.0131 12.3047 13.1381C12.1797 13.2631 12.0101 13.3334 11.8333 13.3334H5.16667C4.98986 13.3334 4.82029 13.2631 4.69527 13.1381C4.57024 13.0131 4.50001 12.8435 4.50001 12.6667V3.33337C4.50001 3.15656 4.57024 2.98699 4.69527 2.86197C4.82029 2.73695 4.98986 2.66671 5.16667 2.66671H11.8333C12.0101 2.66671 12.1797 2.73695 12.3047 2.86197C12.4298 2.98699 12.5 3.15656 12.5 3.33337V5.33337C12.5 5.51018 12.5702 5.67975 12.6953 5.80478C12.8203 5.9298 12.9899 6.00004 13.1667 6.00004C13.3435 6.00004 13.5131 5.9298 13.6381 5.80478C13.7631 5.67975 13.8333 5.51018 13.8333 5.33337V3.33337C13.8333 2.80294 13.6226 2.29423 13.2476 1.91916C12.8725 1.54409 12.3638 1.33337 11.8333 1.33337Z" fill="url(#paint0_linear_666_1828)"/>
<defs>
<linearGradient id="paint0_linear_666_1828" x1="8.50001" y1="1.33337" x2="8.50001" y2="14.6667" gradientUnits="userSpaceOnUse">
<stop stop-color="#71EA87"/>
<stop offset="1" stop-color="#24AA2D"/>
</linearGradient>
</defs>
</svg>
