<svg width="200" height="38" viewBox="0 0 200 38" fill="none" xmlns="http://www.w3.org/2000/svg">
<path d="M44.1396 26.5423L46.1806 24.0708C47.1384 24.9221 48.1007 25.5629 49.0674 25.9931C50.0342 26.4142 51.0949 26.6247 52.2497 26.6247C53.297 26.6247 54.125 26.4004 54.7337 25.9519C55.3514 25.4942 55.6602 24.8764 55.6602 24.0983C55.6602 23.604 55.5483 23.1967 55.3245 22.8763C55.1007 22.5468 54.6711 22.2355 54.0355 21.9426C53.4089 21.6406 52.5048 21.3476 51.3232 21.0639C50.2132 20.7984 49.2957 20.5238 48.5706 20.24C47.8455 19.9471 47.1876 19.5764 46.5968 19.1279C46.015 18.6793 45.5853 18.1347 45.3078 17.494C45.0392 16.844 44.905 16.066 44.905 15.1598C44.905 13.4755 45.5181 12.1025 46.7445 11.0406C47.9798 9.97881 49.5598 9.4479 51.4843 9.4479C54.1429 9.4479 56.4703 10.2717 58.4665 11.9194L56.6538 14.5419C54.8725 13.1872 53.1314 12.5098 51.4306 12.5098C50.4639 12.5098 49.6985 12.7341 49.1346 13.1826C48.5706 13.6311 48.2886 14.2032 48.2886 14.8989C48.2886 15.4207 48.414 15.8509 48.6646 16.1896C48.9242 16.5282 49.3763 16.8395 50.0208 17.1232C50.6653 17.407 51.6097 17.6999 52.8539 18.002C54.9933 18.5329 56.5598 19.2377 57.5535 20.1165C58.5471 20.9861 59.0439 22.2172 59.0439 23.81C59.0439 25.6224 58.4083 27.0549 57.1372 28.1076C55.8751 29.1603 54.219 29.6866 52.1691 29.6866C49.1077 29.6866 46.4312 28.6385 44.1396 26.5423Z" fill="url(#paint0_linear_1198_293)"/>
<path d="M63.5683 29.412V9.72251H67.1803L73.0346 19.0318L78.8889 9.72251H82.4874V29.412H79.1037V15.2971L73.0346 24.5789H72.9272L66.8983 15.352V29.412H63.5683Z" fill="url(#paint1_linear_1198_293)"/>
<path d="M86.3405 29.412L94.8131 9.5852H97.9551L106.414 29.412H102.843L100.896 24.6613H91.792L89.8047 29.412H86.3405ZM93.0273 21.5994H99.6603L96.3304 13.7181L93.0273 21.5994Z" fill="url(#paint2_linear_1198_293)"/>
<path d="M110.267 29.412V9.72251H118.847C121.076 9.72251 122.826 10.29 124.097 11.4251C125.369 12.5601 126.004 14.0842 126.004 15.9973C126.004 17.5535 125.592 18.835 124.769 19.8419C123.945 20.8396 122.826 21.5444 121.412 21.9564L126.608 29.412H122.62L117.84 22.5468H113.651V29.412H110.267ZM113.651 19.4849H118.606C119.814 19.4849 120.776 19.1828 121.493 18.5787C122.209 17.9745 122.567 17.1598 122.567 16.1346C122.567 15.0911 122.218 14.2902 121.519 13.7318C120.821 13.1643 119.841 12.8805 118.579 12.8805H113.651V19.4849Z" fill="url(#paint3_linear_1198_293)"/>
<path d="M129.32 12.9354V9.72251H144.936V12.9354H138.84V29.412H135.43V12.9354H129.32Z" fill="url(#paint4_linear_1198_293)"/>
<path d="M149.071 29.412V9.72251H163.398V12.8805H152.455V18.2491H162.163V21.3934H152.455V29.412H149.071Z" fill="url(#paint5_linear_1198_293)"/>
<path d="M167.869 29.412V9.72251H171.252V29.412H167.869Z" fill="url(#paint6_linear_1198_293)"/>
<path d="M175.576 12.9354V9.72251H191.191V12.9354H185.095V29.412H181.685V12.9354H175.576Z" fill="url(#paint7_linear_1198_293)"/>
<path fill-rule="evenodd" clip-rule="evenodd" d="M0 0H200V38H0V0ZM22.7566 19.0217L13.725 32.431L16.2724 23.2937L10.2513 22.2257V11.9017L29.4724 9.17241L24.6518 16.2924L25.4198 12.41L13.725 18.1911L22.7566 19.0217ZM197.77 2.28H37.1609V35.72H197.77V2.28Z" fill="url(#paint8_linear_1198_293)"/>
<defs>
<linearGradient id="paint0_linear_1198_293" x1="2.22222" y1="18.2511" x2="189.902" y2="33.9534" gradientUnits="userSpaceOnUse">
<stop stop-color="#DADADA"/>
<stop offset="1" stop-color="white"/>
</linearGradient>
<linearGradient id="paint1_linear_1198_293" x1="2.22222" y1="18.2511" x2="189.902" y2="33.9534" gradientUnits="userSpaceOnUse">
<stop stop-color="#DADADA"/>
<stop offset="1" stop-color="white"/>
</linearGradient>
<linearGradient id="paint2_linear_1198_293" x1="2.22222" y1="18.2511" x2="189.902" y2="33.9534" gradientUnits="userSpaceOnUse">
<stop stop-color="#DADADA"/>
<stop offset="1" stop-color="white"/>
</linearGradient>
<linearGradient id="paint3_linear_1198_293" x1="2.22222" y1="18.2511" x2="189.902" y2="33.9534" gradientUnits="userSpaceOnUse">
<stop stop-color="#DADADA"/>
<stop offset="1" stop-color="white"/>
</linearGradient>
<linearGradient id="paint4_linear_1198_293" x1="2.22222" y1="18.2511" x2="189.902" y2="33.9534" gradientUnits="userSpaceOnUse">
<stop stop-color="#DADADA"/>
<stop offset="1" stop-color="white"/>
</linearGradient>
<linearGradient id="paint5_linear_1198_293" x1="2.22222" y1="18.2511" x2="189.902" y2="33.9534" gradientUnits="userSpaceOnUse">
<stop stop-color="#DADADA"/>
<stop offset="1" stop-color="white"/>
</linearGradient>
<linearGradient id="paint6_linear_1198_293" x1="2.22222" y1="18.2511" x2="189.902" y2="33.9534" gradientUnits="userSpaceOnUse">
<stop stop-color="#DADADA"/>
<stop offset="1" stop-color="white"/>
</linearGradient>
<linearGradient id="paint7_linear_1198_293" x1="2.22222" y1="18.2511" x2="189.902" y2="33.9534" gradientUnits="userSpaceOnUse">
<stop stop-color="#DADADA"/>
<stop offset="1" stop-color="white"/>
</linearGradient>
<linearGradient id="paint8_linear_1198_293" x1="2.22222" y1="18.2511" x2="189.902" y2="33.9534" gradientUnits="userSpaceOnUse">
<stop stop-color="#DADADA"/>
<stop offset="1" stop-color="white"/>
</linearGradient>
</defs>
</svg>
