<svg width="16" height="16" viewBox="0 0 16 16" fill="none" xmlns="http://www.w3.org/2000/svg">
<path d="M10.8672 6.84671L7.53386 4.92004C7.33127 4.80307 7.10147 4.74147 6.86753 4.74141C6.6336 4.74135 6.40377 4.80284 6.20112 4.9197C5.99846 5.03656 5.83012 5.20468 5.713 5.40719C5.59588 5.60969 5.5341 5.83944 5.53386 6.07337V9.92671C5.5341 10.1605 5.59582 10.3902 5.71283 10.5926C5.82984 10.795 5.99803 10.9631 6.20052 11.08C6.40322 11.1971 6.63314 11.2587 6.86719 11.2587C7.10124 11.2587 7.33117 11.1971 7.53386 11.08L10.8672 9.15337C11.0692 9.03617 11.237 8.86794 11.3535 8.66552C11.4701 8.46311 11.5315 8.23363 11.5315 8.00004C11.5315 7.76645 11.4701 7.53697 11.3535 7.33456C11.237 7.13215 11.0692 6.96391 10.8672 6.84671ZM10.2005 8.00004L6.86719 9.92671V6.07337L10.2005 8.00004ZM8.20052 1.33337C6.88198 1.33337 5.59305 1.72437 4.49672 2.45691C3.40039 3.18945 2.54591 4.23064 2.04133 5.44882C1.53674 6.66699 1.40472 8.00744 1.66196 9.30064C1.91919 10.5938 2.55413 11.7817 3.48648 12.7141C4.41883 13.6464 5.60672 14.2814 6.89992 14.5386C8.19313 14.7958 9.53357 14.6638 10.7517 14.1592C11.9699 13.6547 13.0111 12.8002 13.7437 11.7038C14.4762 10.6075 14.8672 9.31858 14.8672 8.00004C14.8672 7.12456 14.6948 6.25765 14.3597 5.44882C14.0247 4.63998 13.5336 3.90505 12.9146 3.286C12.2955 2.66694 11.5606 2.17588 10.7517 1.84084C9.94291 1.50581 9.076 1.33337 8.20052 1.33337ZM8.20052 13.3334C7.14569 13.3334 6.11454 13.0206 5.23748 12.4345C4.36042 11.8485 3.67683 11.0156 3.27317 10.041C2.8695 9.06648 2.76388 7.99412 2.96967 6.95956C3.17546 5.92499 3.68341 4.97468 4.42929 4.2288C5.17517 3.48292 6.12548 2.97497 7.16004 2.76919C8.19461 2.5634 9.26696 2.66902 10.2415 3.07268C11.216 3.47635 12.049 4.15994 12.635 5.037C13.2211 5.91406 13.5339 6.94521 13.5339 8.00004C13.5339 9.41453 12.972 10.7711 11.9718 11.7713C10.9716 12.7715 9.61501 13.3334 8.20052 13.3334Z" fill="white"/>
</svg>
