<svg width="30" height="30" viewBox="0 0 30 30" fill="none" xmlns="http://www.w3.org/2000/svg">
<g clip-path="url(#clip0_1198_307)">
<rect width="30" height="30" rx="5" fill="url(#paint0_linear_1198_307)"/>
<path d="M21.008 8.12875C21.008 8.12875 22.6269 7.4975 22.492 9.03053C22.447 9.66179 22.0423 11.8712 21.7275 14.2609L20.6483 21.34C20.6483 21.34 20.5584 22.377 19.7489 22.5574C18.9395 22.7377 17.7253 21.9261 17.5005 21.7457C17.3206 21.6105 14.1278 19.5815 13.0036 18.5895C12.6888 18.319 12.329 17.7779 13.0485 17.1466L17.7703 12.6377C18.3099 12.0966 18.8495 10.8341 16.6011 12.3672L10.3055 16.6507C10.3055 16.6507 9.58596 17.1015 8.23692 16.6958L5.31393 15.794C5.31393 15.794 4.23467 15.1176 6.0784 14.4412C10.5753 12.322 16.1065 10.1577 21.008 8.12875Z" fill="#1F1F1F"/>
</g>
<defs>
<linearGradient id="paint0_linear_1198_307" x1="0.333333" y1="14.4088" x2="28.6752" y2="14.8593" gradientUnits="userSpaceOnUse">
<stop stop-color="#DADADA"/>
<stop offset="1" stop-color="white"/>
</linearGradient>
<clipPath id="clip0_1198_307">
<rect width="30" height="30" fill="white"/>
</clipPath>
</defs>
</svg>
