<svg width="126" height="126" viewBox="0 0 126 126" fill="none" xmlns="http://www.w3.org/2000/svg">
<path d="M87.999 52.1882L56.749 34.1257C54.8497 33.0292 52.6954 32.4516 50.5022 32.451C48.3091 32.4505 46.1544 33.0269 44.2546 34.1225C42.3547 35.2181 40.7766 36.7943 39.6785 38.6927C38.5805 40.5912 38.0013 42.7451 37.999 44.9382V81.0632C38.0013 83.2553 38.5799 85.4082 39.6769 87.306C40.7739 89.2038 42.3507 90.7797 44.249 91.8757C46.1493 92.9728 48.3048 93.5504 50.499 93.5504C52.6933 93.5504 54.8488 92.9728 56.749 91.8757L87.999 73.8132C89.8933 72.7144 91.4656 71.1372 92.5586 69.2396C93.6516 67.342 94.2269 65.1906 94.2269 63.0007C94.2269 60.8109 93.6516 58.6594 92.5586 56.7618C91.4656 54.8642 89.8933 53.287 87.999 52.1882ZM81.749 63.0007L50.499 81.0632V44.9382L81.749 63.0007ZM62.999 0.500732C50.6377 0.500732 38.554 4.16629 28.2759 11.0339C17.9978 17.9015 9.98706 27.6626 5.25658 39.083C0.526104 50.5034 -0.711605 63.0701 1.69997 75.1939C4.11155 87.3177 10.0641 98.4541 18.8049 107.195C27.5457 115.936 38.6821 121.888 50.8059 124.3C62.9297 126.711 75.4964 125.474 86.9168 120.743C98.3371 116.013 108.098 108.002 114.966 97.7239C121.833 87.4458 125.499 75.3621 125.499 63.0007C125.499 54.7931 123.882 46.6659 120.742 39.083C117.601 31.5002 112.997 24.6102 107.193 18.8066C101.39 13.0029 94.4996 8.39918 86.9168 5.25826C79.3339 2.11734 71.2067 0.500732 62.999 0.500732ZM62.999 113.001C53.11 113.001 43.443 110.068 35.2205 104.574C26.9981 99.0801 20.5895 91.2712 16.8051 82.1349C13.0207 72.9986 12.0305 62.9453 13.9598 53.2462C15.889 43.5472 20.6511 34.638 27.6437 27.6454C34.6363 20.6528 43.5455 15.8907 53.2445 13.9615C62.9436 12.0322 72.9969 13.0224 82.1332 16.8068C91.2695 20.5911 99.0784 26.9998 104.573 35.2222C110.067 43.4447 112.999 53.1117 112.999 63.0007C112.999 76.2616 107.731 88.9793 98.3544 98.3561C88.9776 107.733 76.2599 113.001 62.999 113.001Z" fill="white"/>
</svg>
