<svg width="31" height="30" viewBox="0 0 31 30" fill="none" xmlns="http://www.w3.org/2000/svg">
<g clip-path="url(#clip0_1198_304)">
<rect x="0.333252" width="30" height="30" rx="5" fill="url(#paint0_linear_1198_304)"/>
<path d="M23.1353 17.298C23.1353 17.298 24.7523 18.895 25.1523 19.634C25.1601 19.6446 25.1662 19.6564 25.1703 19.669C25.3333 19.942 25.3733 20.156 25.2933 20.314C25.1583 20.575 24.7013 20.706 24.5463 20.717H21.6883C21.4893 20.717 21.0753 20.665 20.5713 20.317C20.1863 20.048 19.8033 19.605 19.4323 19.172C18.8783 18.529 18.3993 17.971 17.9143 17.971C17.8531 17.9708 17.7922 17.981 17.7343 18.001C17.3673 18.117 16.9013 18.64 16.9013 20.033C16.9013 20.469 16.5573 20.717 16.3163 20.717H15.0073C14.5613 20.717 12.2393 20.561 10.1803 18.39C7.65734 15.732 5.39134 10.4 5.36934 10.353C5.22834 10.008 5.52434 9.81996 5.84434 9.81996H8.73034C9.11734 9.81996 9.24334 10.054 9.33134 10.264C9.43334 10.505 9.81134 11.469 10.4313 12.552C11.4353 14.314 12.0523 15.031 12.5453 15.031C12.638 15.0312 12.729 15.0071 12.8093 14.961C13.4533 14.607 13.3333 12.307 13.3033 11.833C13.3033 11.741 13.3023 10.806 12.9723 10.354C12.7363 10.03 12.3343 9.90396 12.0913 9.85796C12.1563 9.76396 12.2943 9.61996 12.4713 9.53496C12.9123 9.31496 13.7093 9.28296 14.5003 9.28296H14.9393C15.7973 9.29496 16.0193 9.34996 16.3313 9.42896C16.9593 9.57896 16.9713 9.98596 16.9163 11.372C16.9003 11.768 16.8833 12.214 16.8833 12.739C16.8833 12.851 16.8783 12.976 16.8783 13.103C16.8593 13.814 16.8343 14.615 17.3363 14.944C17.4015 14.9845 17.4766 15.006 17.5533 15.006C17.7273 15.006 18.2483 15.006 19.6613 12.581C20.2813 11.51 20.7613 10.247 20.7943 10.152C20.8223 10.099 20.9063 9.94996 21.0083 9.88996C21.0809 9.85135 21.1622 9.83207 21.2443 9.83396H24.6393C25.0093 9.83396 25.2603 9.88996 25.3093 10.03C25.3913 10.257 25.2933 10.95 23.7433 13.046C23.4823 13.395 23.2533 13.697 23.0523 13.961C21.6473 15.805 21.6473 15.898 23.1353 17.298Z" fill="#1F1F1F"/>
</g>
<defs>
<linearGradient id="paint0_linear_1198_304" x1="0.666585" y1="14.4088" x2="29.0084" y2="14.8593" gradientUnits="userSpaceOnUse">
<stop stop-color="#DADADA"/>
<stop offset="1" stop-color="white"/>
</linearGradient>
<clipPath id="clip0_1198_304">
<rect width="30" height="30" fill="white" transform="translate(0.333252)"/>
</clipPath>
</defs>
</svg>
