<svg width="218" height="218" viewBox="0 0 218 218" fill="none" xmlns="http://www.w3.org/2000/svg">
<path d="M109 130.667C106.322 130.667 103.704 131.461 101.477 132.949C99.2501 134.437 97.5144 136.552 96.4895 139.026C95.4646 141.501 95.1964 144.223 95.7189 146.85C96.2414 149.477 97.5311 151.89 99.425 153.784C101.319 155.678 103.732 156.967 106.359 157.49C108.985 158.012 111.708 157.744 114.183 156.719C116.657 155.694 118.772 153.959 120.26 151.732C121.748 149.505 122.542 146.887 122.542 144.208C122.542 140.617 121.115 137.172 118.576 134.633C116.036 132.093 112.592 130.667 109 130.667V130.667ZM109 114.417C111.874 114.417 114.629 113.275 116.661 111.244C118.692 109.212 119.834 106.456 119.834 103.583V71.0833C119.834 68.2101 118.692 65.4546 116.661 63.423C114.629 61.3913 111.874 60.25 109 60.25C106.127 60.25 103.372 61.3913 101.34 63.423C99.3084 65.4546 98.167 68.2101 98.167 71.0833V103.583C98.167 106.456 99.3084 109.212 101.34 111.244C103.372 113.275 106.127 114.417 109 114.417ZM109 0.666626C87.5741 0.666626 66.6289 7.02027 48.8136 18.9241C30.9983 30.8279 17.1129 47.7473 8.91342 67.5426C0.713931 87.3379 -1.43143 109.12 2.74864 130.135C6.9287 151.149 17.2465 170.453 32.3971 185.603C47.5478 200.754 66.851 211.072 87.8656 215.252C108.88 219.432 130.662 217.286 150.458 209.087C170.253 200.887 187.172 187.002 199.076 169.187C210.98 151.371 217.334 130.426 217.334 109C217.302 80.278 205.878 52.7415 185.568 32.432C165.259 12.1225 137.722 0.698569 109 0.666626V0.666626ZM109 195.667C91.8593 195.667 75.1032 190.584 60.8509 181.061C46.5987 171.538 35.4904 158.002 28.9308 142.166C22.3712 126.33 20.6549 108.904 23.999 92.0921C27.343 75.2805 35.5972 59.8379 47.7178 47.7174C59.8383 35.5968 75.2809 27.3426 92.0925 23.9986C108.904 20.6545 126.33 22.3708 142.166 28.9304C158.003 35.49 171.538 46.5983 181.061 60.8505C190.584 75.1028 195.667 91.8589 195.667 109C195.641 131.977 186.501 154.006 170.254 170.254C154.006 186.501 131.978 195.64 109 195.667V195.667Z" fill="#F2C94C"/>
</svg>
