<svg width="100" height="100" viewBox="0 0 100 100" fill="none" xmlns="http://www.w3.org/2000/svg">
<rect width="100" height="100" rx="10" fill="url(#paint0_linear_640_529)"/>
<path d="M29.1666 44.4444H44.4444C46.3889 44.4399 48.2706 43.7555 49.7637 42.5097C51.2568 41.2639 52.2672 39.5352 52.62 37.623C52.9727 35.7107 52.6457 33.7353 51.6954 32.0388C50.7451 30.3422 49.2315 29.0314 47.4166 28.3333C46.3722 26.2834 44.7173 24.6083 42.6802 23.5391C40.6431 22.4699 38.3244 22.0594 36.044 22.3642C33.7637 22.6691 31.6342 23.6743 29.9495 25.241C28.2649 26.8078 27.1081 28.8588 26.6388 31.1111C25.18 31.731 23.9771 32.8313 23.2299 34.2292C22.4828 35.6272 22.2364 37.2387 22.5316 38.7961C22.8268 40.3534 23.646 41.7629 24.853 42.7904C26.0599 43.8179 27.5821 44.4016 29.1666 44.4444ZM29.1666 36.1111C29.9033 36.1111 30.6099 35.8185 31.1308 35.2975C31.6517 34.7766 31.9444 34.07 31.9444 33.3333C31.9536 32.023 32.4256 30.758 33.2772 29.762C34.1287 28.766 35.3049 28.1031 36.5979 27.8904C37.8909 27.6776 39.2175 27.9288 40.3433 28.5995C41.469 29.2702 42.3214 30.3172 42.7499 31.5556C42.9129 32.0277 43.2002 32.4472 43.5815 32.7698C43.9628 33.0925 44.424 33.3063 44.9166 33.3889C45.5594 33.4998 46.1426 33.8333 46.5641 34.331C46.9857 34.8287 47.2186 35.4589 47.2222 36.1111C47.2222 36.8478 46.9295 37.5544 46.4086 38.0753C45.8876 38.5962 45.1811 38.8889 44.4444 38.8889H29.1666C28.7983 38.8889 28.445 38.7426 28.1845 38.4821C27.9241 38.2216 27.7777 37.8684 27.7777 37.5C27.7777 37.1316 27.9241 36.7784 28.1845 36.5179C28.445 36.2574 28.7983 36.1111 29.1666 36.1111ZM69.4444 22.2222H55.5555C54.8188 22.2222 54.1122 22.5149 53.5913 23.0358C53.0704 23.5567 52.7777 24.2633 52.7777 25C52.7777 25.7367 53.0704 26.4433 53.5913 26.9642C54.1122 27.4851 54.8188 27.7778 55.5555 27.7778H69.4444C70.1811 27.7778 70.8876 28.0704 71.4086 28.5914C71.9295 29.1123 72.2222 29.8188 72.2222 30.5556V50H24.9999C24.2632 50 23.5567 50.2927 23.0358 50.8136C22.5148 51.3345 22.2222 52.0411 22.2222 52.7778V58.3333C22.2222 60.5435 23.1001 62.6631 24.6629 64.2259C26.2257 65.7887 28.3454 66.6667 30.5555 66.6667H38.8888V72.2222H30.5555C29.8188 72.2222 29.1123 72.5149 28.5913 73.0358C28.0704 73.5567 27.7777 74.2633 27.7777 75C27.7777 75.7367 28.0704 76.4432 28.5913 76.9642C29.1123 77.4851 29.8188 77.7778 30.5555 77.7778H69.4444C70.1811 77.7778 70.8876 77.4851 71.4086 76.9642C71.9295 76.4432 72.2222 75.7367 72.2222 75C72.2222 74.2633 71.9295 73.5567 71.4086 73.0358C70.8876 72.5149 70.1811 72.2222 69.4444 72.2222H61.1111V66.6667H69.4444C71.6545 66.6667 73.7741 65.7887 75.3369 64.2259C76.8997 62.6631 77.7777 60.5435 77.7777 58.3333V30.5556C77.7777 28.3454 76.8997 26.2258 75.3369 24.663C73.7741 23.1002 71.6545 22.2222 69.4444 22.2222ZM55.5555 72.2222H44.4444V66.6667H55.5555V72.2222ZM72.2222 58.3333C72.2222 59.07 71.9295 59.7766 71.4086 60.2975C70.8876 60.8185 70.1811 61.1111 69.4444 61.1111H30.5555C29.8188 61.1111 29.1123 60.8185 28.5913 60.2975C28.0704 59.7766 27.7777 59.07 27.7777 58.3333V55.5556H72.2222V58.3333Z" fill="white"/>
<defs>
<linearGradient id="paint0_linear_640_529" x1="50" y1="0" x2="50" y2="100" gradientUnits="userSpaceOnUse">
<stop stop-color="#71EA87"/>
<stop offset="1" stop-color="#24AA2D"/>
</linearGradient>
</defs>
</svg>
