<svg width="100" height="100" viewBox="0 0 100 100" fill="none" xmlns="http://www.w3.org/2000/svg">
<rect width="100" height="100" rx="10" fill="url(#paint0_linear_640_533)"/>
<path d="M50.0001 52.7778C49.1544 52.7679 48.3259 53.0173 47.6263 53.4925C46.9266 53.9677 46.3894 54.6458 46.0868 55.4356C45.7842 56.2253 45.7308 57.0889 45.9338 57.9099C46.1368 58.7309 46.5865 59.47 47.2223 60.0278V63.8889C47.2223 64.6256 47.5149 65.3321 48.0359 65.8531C48.5568 66.374 49.2633 66.6667 50.0001 66.6667C50.7368 66.6667 51.4433 66.374 51.9642 65.8531C52.4852 65.3321 52.7778 64.6256 52.7778 63.8889V60.0278C53.4136 59.47 53.8633 58.7309 54.0663 57.9099C54.2693 57.0889 54.2159 56.2253 53.9133 55.4356C53.6108 54.6458 53.0735 53.9677 52.3738 53.4925C51.6742 53.0173 50.8458 52.7679 50.0001 52.7778ZM63.8889 41.6667H41.6667V36.1111C41.6627 34.4616 42.1482 32.8481 43.0619 31.4747C43.9755 30.1014 45.2762 29.0301 46.7992 28.3966C48.3221 27.763 49.9988 27.5956 51.617 27.9157C53.2351 28.2357 54.7219 29.0288 55.8889 30.1944C56.9332 31.2613 57.6802 32.5828 58.0556 34.0278C58.1468 34.3816 58.3068 34.714 58.5265 35.006C58.7461 35.298 59.0212 35.5439 59.3358 35.7296C59.6505 35.9154 59.9987 36.0373 60.3605 36.0884C60.7223 36.1396 61.0907 36.119 61.4445 36.0278C61.7983 35.9366 62.1308 35.7766 62.4228 35.5569C62.7148 35.3373 62.9606 35.0622 63.1464 34.7475C63.3321 34.4329 63.454 34.0847 63.5051 33.7229C63.5563 33.3611 63.5357 32.9927 63.4445 32.6389C62.8117 30.2356 61.5565 28.0415 59.8056 26.2778C57.8617 24.3399 55.3871 23.0215 52.6944 22.489C50.0017 21.9565 47.2115 22.2339 44.6763 23.286C42.1411 24.3381 39.9745 26.1179 38.4501 28.4005C36.9256 30.6831 36.1117 33.3663 36.1112 36.1111V41.6667C33.901 41.6667 31.7814 42.5446 30.2186 44.1074C28.6558 45.6702 27.7778 47.7899 27.7778 50V69.4444C27.7778 71.6546 28.6558 73.7742 30.2186 75.337C31.7814 76.8998 33.901 77.7778 36.1112 77.7778H63.8889C66.0991 77.7778 68.2187 76.8998 69.7815 75.337C71.3443 73.7742 72.2223 71.6546 72.2223 69.4444V50C72.2223 47.7899 71.3443 45.6702 69.7815 44.1074C68.2187 42.5446 66.0991 41.6667 63.8889 41.6667ZM66.6667 69.4444C66.6667 70.1812 66.3741 70.8877 65.8531 71.4086C65.3322 71.9296 64.6257 72.2222 63.8889 72.2222H36.1112C35.3745 72.2222 34.6679 71.9296 34.147 71.4086C33.626 70.8877 33.3334 70.1812 33.3334 69.4444V50C33.3334 49.2633 33.626 48.5567 34.147 48.0358C34.6679 47.5149 35.3745 47.2222 36.1112 47.2222H63.8889C64.6257 47.2222 65.3322 47.5149 65.8531 48.0358C66.3741 48.5567 66.6667 49.2633 66.6667 50V69.4444Z" fill="white"/>
<defs>
<linearGradient id="paint0_linear_640_533" x1="50" y1="0" x2="50" y2="100" gradientUnits="userSpaceOnUse">
<stop stop-color="#71EA87"/>
<stop offset="1" stop-color="#24AA2D"/>
</linearGradient>
</defs>
</svg>
