<svg width="15" height="23" viewBox="0 0 15 23" fill="none" xmlns="http://www.w3.org/2000/svg">
<g clip-path="url(#clip0_1378_1493)">
<path d="M7.38367 1.36945C8.82163 1.36945 9.27347 2.40084 9.65256 3.43061C9.8118 3.8679 13.5486 14.101 13.6609 14.4081C13.6908 14.4938 13.6706 14.6344 13.5389 14.6854C13.4063 14.7355 11.4648 15.4904 11.3573 15.5308C11.2498 15.5721 11.1293 15.5123 11.0905 15.4047C11.0501 15.2989 10.2442 13.068 10.1537 12.819H4.61524C4.52794 13.068 3.71237 15.3037 3.676 15.4047C3.63882 15.5074 3.52323 15.5769 3.40845 15.5308C3.29367 15.4856 1.34486 14.7306 1.22847 14.6854C1.11692 14.6417 1.066 14.5148 1.1048 14.4081C1.24221 14.025 4.92239 3.95601 5.10992 3.43061C5.47527 2.4162 5.94247 1.36945 7.38367 1.36945ZM0.808958 19.6798C0.692564 19.6798 0.599609 19.7768 0.599609 19.8949V22.2866C0.599609 22.4046 0.692564 22.5 0.808958 22.5H13.9527C14.0715 22.5 14.1645 22.4046 14.1645 22.2866V19.8949C14.1645 19.7768 14.0715 19.6798 13.9527 19.6798H0.808958ZM7.37073 4.71096L5.49871 10.3327H9.27347L7.39498 4.71096H7.37073Z" fill="#EE2A23"/>
</g>
<defs>
<clipPath id="clip0_1378_1493">
<rect width="14" height="22" fill="white" transform="translate(0.599609 0.5)"/>
</clipPath>
</defs>
</svg>
