<svg width="64" height="17" viewBox="0 0 64 17" fill="none" xmlns="http://www.w3.org/2000/svg">
<g clip-path="url(#clip0_1378_1495)">
<path d="M49.1782 5.08789H45.8025C45.6039 5.08789 45.4053 5.27778 45.306 5.46768L43.916 13.823C43.916 14.0129 44.0153 14.1078 44.2139 14.1078H46.001C46.1996 14.1078 46.2989 14.0129 46.2989 13.823L46.696 11.4493C46.696 11.2594 46.8946 11.0695 47.1925 11.0695H48.2846C50.5682 11.0695 51.8589 10.0251 52.1568 7.93629C52.3554 7.08177 52.1568 6.3222 51.7596 5.84746C51.1639 5.37273 50.2703 5.08789 49.1782 5.08789ZM49.5753 8.22113C49.3768 9.36049 48.4832 9.36049 47.5896 9.36049H46.9939L47.391 7.17672C47.391 7.08177 47.4903 6.98682 47.6889 6.98682H47.8875C48.4832 6.98682 49.0789 6.98682 49.3768 7.36661C49.5753 7.46155 49.5753 7.74639 49.5753 8.22113Z" fill="#139AD6"/>
<path d="M24.854 5.08789H21.4782C21.2797 5.08789 21.0811 5.27778 20.9818 5.46768L19.5918 13.823C19.5918 14.0129 19.6911 14.1078 19.8897 14.1078H21.4782C21.6768 14.1078 21.8754 13.9179 21.9747 13.728L22.3718 11.4493C22.3718 11.2594 22.5704 11.0695 22.8683 11.0695H23.9604C26.244 11.0695 27.5347 10.0251 27.8326 7.93629C28.0311 7.08177 27.8326 6.3222 27.4354 5.84746C26.8397 5.37273 26.0454 5.08789 24.854 5.08789ZM25.2511 8.22113C25.0526 9.36049 24.159 9.36049 23.2654 9.36049H22.769L23.1661 7.17672C23.1661 7.08177 23.2654 6.98682 23.464 6.98682H23.6625C24.2583 6.98682 24.854 6.98682 25.1518 7.36661C25.2511 7.46155 25.3504 7.74639 25.2511 8.22113Z" fill="white"/>
<path d="M35.0803 8.12593H33.4918C33.3925 8.12593 33.1939 8.22088 33.1939 8.31582L33.0946 8.79056L32.9953 8.60067C32.5982 8.12593 31.9032 7.93604 31.1089 7.93604C29.3217 7.93604 27.7331 9.26529 27.4352 11.0693C27.2367 12.0188 27.5345 12.8733 28.031 13.443C28.5274 14.0127 29.2224 14.2026 30.116 14.2026C31.6053 14.2026 32.3996 13.348 32.3996 13.348L32.3003 13.8228C32.3003 14.0127 32.3996 14.1076 32.5982 14.1076H34.0875C34.286 14.1076 34.4846 13.9177 34.5839 13.7278L35.4775 8.41077C35.3782 8.31582 35.1796 8.12593 35.0803 8.12593ZM32.7967 11.1642C32.5982 12.0188 31.9032 12.6834 30.9103 12.6834C30.4139 12.6834 30.0167 12.4935 29.8181 12.3036C29.6196 12.0188 29.5203 11.639 29.5203 11.1642C29.6196 10.3097 30.4139 9.64509 31.3074 9.64509C31.8039 9.64509 32.1017 9.83498 32.3996 10.0249C32.6975 10.3097 32.7967 10.7845 32.7967 11.1642Z" fill="white"/>
<path d="M59.3068 8.12642H57.7183C57.619 8.12642 57.4204 8.22136 57.4204 8.31631L57.3211 8.79104L57.2218 8.60115C56.8247 8.12642 56.1297 7.93652 55.3354 7.93652C53.5482 7.93652 51.9597 9.26577 51.6618 11.0697C51.4632 12.0192 51.7611 12.8737 52.2575 13.4434C52.754 14.0131 53.449 14.203 54.3425 14.203C55.8318 14.203 56.6261 13.3485 56.6261 13.3485L56.5268 13.8232C56.5268 14.0131 56.6261 14.108 56.8247 14.108H58.314C58.5125 14.108 58.7111 13.9181 58.8104 13.7282L59.704 8.41125C59.6047 8.31631 59.5054 8.12642 59.3068 8.12642ZM57.0233 11.1647C56.8247 12.0192 56.1297 12.6838 55.1368 12.6838C54.6404 12.6838 54.2432 12.4939 54.0447 12.304C53.8461 12.0192 53.7468 11.6394 53.7468 11.1647C53.8461 10.3102 54.6404 9.64556 55.534 9.64556C56.0304 9.64556 56.3283 9.83545 56.6261 10.0253C57.0233 10.3102 57.1225 10.7849 57.0233 11.1647Z" fill="#139AD6"/>
<path d="M43.7174 8.12598H42.0295C41.8309 8.12598 41.7316 8.22092 41.6324 8.31587L39.448 11.544L38.4552 8.50576C38.3559 8.31587 38.2566 8.22092 37.9587 8.22092H36.3701C36.1716 8.22092 36.0723 8.41081 36.0723 8.60071L37.8594 13.6328L36.1716 15.9115C36.0723 16.1014 36.1716 16.3863 36.3701 16.3863H37.9587C38.1573 16.3863 38.2566 16.2913 38.3559 16.1964L43.8167 8.69565C44.1145 8.41081 43.916 8.12598 43.7174 8.12598Z" fill="white"/>
<path d="M61.1928 5.37265L59.8027 13.9178C59.8027 14.1077 59.902 14.2027 60.1006 14.2027H61.4906C61.6892 14.2027 61.8878 14.0128 61.9871 13.8229L63.3771 5.46759C63.3771 5.2777 63.2778 5.18276 63.0792 5.18276H61.4906C61.3913 5.08781 61.292 5.18276 61.1928 5.37265Z" fill="#139AD6"/>
<path d="M12.2442 2.23945C11.5491 1.47988 10.2584 1.1001 8.47125 1.1001H3.50692C3.20905 1.1001 2.91119 1.38493 2.81191 1.66977L0.826172 14.1077C0.826172 14.3926 1.02475 14.5825 1.22332 14.5825H4.30121L5.0955 9.93011V10.12C5.19479 9.83516 5.49265 9.55032 5.79051 9.55032H7.27981C10.1591 9.55032 12.3434 8.41097 13.0384 5.27774C13.0384 5.18279 13.0384 5.08784 13.0384 4.9929C12.9392 4.9929 12.9392 4.9929 13.0384 4.9929C13.1377 3.75859 12.9392 2.99902 12.2442 2.23945Z" fill="white"/>
<path d="M12.9378 4.99268C12.9378 5.08762 12.9378 5.18257 12.9378 5.27752C12.2427 8.50569 10.0584 9.55009 7.17913 9.55009H5.68983C5.39197 9.55009 5.09411 9.83493 4.99482 10.1198L4.00195 15.9115C4.00195 16.1014 4.10124 16.2913 4.3991 16.2913H6.98055C7.27841 16.2913 7.57627 16.1014 7.57627 15.8165V15.7216L8.07271 12.7783V12.5884C8.07271 12.3035 8.37057 12.1136 8.66843 12.1136H9.06557C11.5477 12.1136 13.5335 11.1642 14.0299 8.31579C14.2285 7.17644 14.1292 6.13203 13.5335 5.46741C13.4342 5.27751 13.2356 5.08762 12.9378 4.99268Z" fill="#139AD6"/>
<path d="M12.2444 4.70769C12.1451 4.70769 12.0458 4.61274 11.9465 4.61274C11.8472 4.61274 11.7479 4.61274 11.6487 4.5178C11.2515 4.42285 10.8544 4.42285 10.3579 4.42285H6.48572C6.38643 4.42285 6.28715 4.42285 6.18786 4.5178C5.98929 4.61274 5.89 4.80264 5.89 4.99253L5.0957 9.92974V10.1196C5.19499 9.83479 5.49285 9.54995 5.79071 9.54995H7.28002C10.1593 9.54995 12.3437 8.4106 13.0387 5.27737C13.0387 5.18242 13.0387 5.08747 13.138 4.99253C12.9394 4.89758 12.8401 4.80264 12.6415 4.80264C12.3437 4.70769 12.3437 4.70769 12.2444 4.70769Z" fill="white"/>
</g>
<defs>
<clipPath id="clip0_1378_1495">
<rect width="64" height="16" fill="white" transform="translate(0 0.5)"/>
</clipPath>
</defs>
</svg>
