<svg width="21" height="24" viewBox="0 0 21 24" fill="none" xmlns="http://www.w3.org/2000/svg">
<g clip-path="url(#clip0_1378_1539)">
<path d="M16.5477 14.8303C16.9094 14.9729 17.0485 15.5285 17.0762 15.7709C17.1321 16.213 17.0071 16.384 16.8679 16.384C16.7288 16.384 16.5338 16.213 16.3255 15.871C16.1168 15.5285 16.0333 15.1439 16.1448 14.9441C16.214 14.8156 16.367 14.7589 16.5481 14.8303H16.5477ZM14.4342 16.4412C14.6567 16.4412 14.907 16.5409 15.1296 16.7403C15.5605 17.1111 15.6858 17.5386 15.4632 17.8523C15.3379 18.0092 15.1296 18.1088 14.8932 18.1088C14.6567 18.1088 14.4065 18.0233 14.2397 17.8664C13.8502 17.5245 13.7392 16.9538 13.989 16.6406C14.0867 16.5121 14.2397 16.4412 14.4342 16.4412ZM9.56745 20.5607C4.28279 20.5607 0 16.17 0 10.7533C0 5.33651 4.28322 0.946289 9.56702 0.946289C14.8512 0.946289 19.1344 5.33695 19.1344 10.7533C19.1344 12.5919 18.634 14.3172 17.7859 15.7855C17.7579 15.828 17.6883 15.8138 17.6745 15.7567C17.3407 13.3478 15.9084 12.0217 13.8226 11.623C13.6415 11.5942 13.6138 11.4803 13.8502 11.452C14.4899 11.3948 15.3937 11.409 15.8665 11.4945C15.8942 11.2521 15.9084 10.9956 15.9084 10.7391C15.9084 7.161 13.0714 4.2528 9.58085 4.2528C6.09074 4.2528 3.25369 7.161 3.25369 10.7391C3.25369 14.3172 6.09074 17.2254 9.58128 17.2254H9.87301C9.7739 16.6467 9.73191 16.0592 9.74767 15.4718C9.76194 15.0726 9.84535 15.0155 10.0122 15.3291C10.8883 16.8829 12.14 18.2798 14.5872 18.8358C16.5895 19.2922 18.592 19.8195 20.7475 22.6276C20.942 22.8699 20.6502 23.1264 20.4277 22.9271C18.2307 20.931 16.2283 20.2754 14.4065 20.2754C12.3621 20.29 10.9717 20.5607 9.56702 20.5607H9.56745Z" fill="#FF8C00"/>
</g>
<defs>
<clipPath id="clip0_1378_1539">
<rect width="21" height="23" fill="white" transform="translate(0 0.5)"/>
</clipPath>
</defs>
</svg>
