<svg width="43" height="16" viewBox="0 0 43 16" fill="none" xmlns="http://www.w3.org/2000/svg">
<g clip-path="url(#clip0_1378_1526)">
<path d="M0.924805 5.86845V8.01405L6.91673 7.37737V5.05508L0.924805 5.86845ZM2.83693 8.14457V15.4969H5.03063V7.92799L2.83693 8.14457ZM7.72597 4.94525V15.4969H10.0375V4.63131L7.72597 4.94525ZM10.4681 4.57279V7.00011L13.806 6.64536V4.11977L10.4681 4.57279ZM10.4681 8.80674V11.2783L12.6592 11.1629V8.62456L10.4681 8.80674ZM10.4681 13.0598V15.4969H13.806V12.9625L10.4681 13.0598ZM22.4381 2.94411V15.4969H25.4684V2.53268L22.4381 2.94411ZM26.0343 2.45577V5.34319L30.4503 4.87417V1.85611L26.0343 2.45577ZM26.0343 7.51474V10.4557L28.9287 10.303V7.27531L26.0343 7.51474ZM26.0343 12.6053V15.4969H30.4503V12.4764L26.0343 12.6053ZM14.6892 3.99965V15.4969H17.3223V3.64205L14.6892 3.99965ZM17.8138 12.8457V15.4968H21.6359V12.7343L17.8138 12.8457ZM40.3508 1.71417C39.3931 0.840109 37.9889 0.481594 36.453 0.694737V3.89725C37.075 3.86388 37.579 4.08685 37.8035 4.53577C38.1581 5.24354 37.7923 6.30548 36.9293 7.28936C35.5974 8.80765 32.0556 11.9153 32.0556 11.9153L37.14 11.7538C40.2467 8.82194 41.3624 7.04228 41.5626 4.82114C41.6678 3.64605 41.2262 2.51382 40.3508 1.71417ZM41.7417 15.4969V12.1459L31.4289 12.4461L41.7417 15.4969ZM31.4289 12.4459L31.4299 15.4968H41.7417L31.4289 12.4459ZM35.8602 0.766623C32.8642 1.38297 31.393 3.51211 31.5628 6.98628L34.7572 6.71245C34.6116 4.74971 35.2331 4.28411 35.8617 4.02811L35.8602 0.766623Z" fill="white"/>
</g>
<defs>
<clipPath id="clip0_1378_1526">
<rect width="42" height="16" fill="white" transform="translate(0.333008)"/>
</clipPath>
</defs>
</svg>
