<svg width="19" height="24" viewBox="0 0 19 24" fill="none" xmlns="http://www.w3.org/2000/svg">
<g clip-path="url(#clip0_1378_1528)">
<path fill-rule="evenodd" clip-rule="evenodd" d="M1.45337 12.1564C1.45337 10.8831 1.55622 10.075 4.0965 8.10669C6.19959 6.47705 12.9407 0.908203 12.9407 0.908203V10.2044H18.0672V23.5839H3.05455C2.17393 23.5839 1.45312 22.8357 1.45312 21.9215L1.45337 12.1564Z" fill="#FFCF01"/>
<path fill-rule="evenodd" clip-rule="evenodd" d="M12.9397 10.2041V15.5906L3.51953 22.2522L15.4297 18.2296V10.2041H12.9397Z" fill="#D3AC06"/>
<path fill-rule="evenodd" clip-rule="evenodd" d="M8.63477 9.92554C9.1857 9.24416 9.99024 9.00367 10.432 9.38842C10.8738 9.77326 10.7855 10.6376 10.2345 11.319C9.68404 12.0003 8.87917 12.2405 8.4374 11.8557C7.99563 11.4709 8.08418 10.6067 8.63477 9.92546V9.92554Z" fill="#4B4B4B"/>
</g>
<defs>
<clipPath id="clip0_1378_1528">
<rect width="18" height="24" fill="white" transform="translate(0.5)"/>
</clipPath>
</defs>
</svg>
