<svg width="25" height="25" viewBox="0 0 25 25" fill="none" xmlns="http://www.w3.org/2000/svg">
<path d="M10.5 13.5H3.5C3.23478 13.5 2.98043 13.6054 2.79289 13.7929C2.60536 13.9804 2.5 14.2348 2.5 14.5V21.5C2.5 21.7652 2.60536 22.0196 2.79289 22.2071C2.98043 22.3946 3.23478 22.5 3.5 22.5H10.5C10.7652 22.5 11.0196 22.3946 11.2071 22.2071C11.3946 22.0196 11.5 21.7652 11.5 21.5V14.5C11.5 14.2348 11.3946 13.9804 11.2071 13.7929C11.0196 13.6054 10.7652 13.5 10.5 13.5ZM9.5 20.5H4.5V15.5H9.5V20.5ZM21.5 2.5H14.5C14.2348 2.5 13.9804 2.60536 13.7929 2.79289C13.6054 2.98043 13.5 3.23478 13.5 3.5V10.5C13.5 10.7652 13.6054 11.0196 13.7929 11.2071C13.9804 11.3946 14.2348 11.5 14.5 11.5H21.5C21.7652 11.5 22.0196 11.3946 22.2071 11.2071C22.3946 11.0196 22.5 10.7652 22.5 10.5V3.5C22.5 3.23478 22.3946 2.98043 22.2071 2.79289C22.0196 2.60536 21.7652 2.5 21.5 2.5ZM20.5 9.5H15.5V4.5H20.5V9.5ZM21.5 13.5H14.5C14.2348 13.5 13.9804 13.6054 13.7929 13.7929C13.6054 13.9804 13.5 14.2348 13.5 14.5V21.5C13.5 21.7652 13.6054 22.0196 13.7929 22.2071C13.9804 22.3946 14.2348 22.5 14.5 22.5H21.5C21.7652 22.5 22.0196 22.3946 22.2071 22.2071C22.3946 22.0196 22.5 21.7652 22.5 21.5V14.5C22.5 14.2348 22.3946 13.9804 22.2071 13.7929C22.0196 13.6054 21.7652 13.5 21.5 13.5ZM20.5 20.5H15.5V15.5H20.5V20.5ZM10.5 2.5H3.5C3.23478 2.5 2.98043 2.60536 2.79289 2.79289C2.60536 2.98043 2.5 3.23478 2.5 3.5V10.5C2.5 10.7652 2.60536 11.0196 2.79289 11.2071C2.98043 11.3946 3.23478 11.5 3.5 11.5H10.5C10.7652 11.5 11.0196 11.3946 11.2071 11.2071C11.3946 11.0196 11.5 10.7652 11.5 10.5V3.5C11.5 3.23478 11.3946 2.98043 11.2071 2.79289C11.0196 2.60536 10.7652 2.5 10.5 2.5ZM9.5 9.5H4.5V4.5H9.5V9.5Z" fill="url(#paint0_linear_531_236)"/>
<defs>
<linearGradient id="paint0_linear_531_236" x1="12.5" y1="2.5" x2="12.5" y2="22.5" gradientUnits="userSpaceOnUse">
<stop stop-color="#71EA87"/>
<stop offset="1" stop-color="#24AA2D"/>
</linearGradient>
</defs>
</svg>
