<svg width="51" height="36" viewBox="0 0 51 36" fill="none" xmlns="http://www.w3.org/2000/svg">
<path d="M16.5643 1.31434C17.1501 0.728553 18.0998 0.728553 18.6856 1.31434C19.2714 1.90013 19.2714 2.84987 18.6856 3.43566L16.5643 1.31434ZM1.99996 18L0.939304 19.0607C0.353516 18.4749 0.353516 17.5251 0.939304 16.9393L1.99996 18ZM18.6856 32.5643C19.2714 33.1501 19.2714 34.0999 18.6856 34.6857C18.0998 35.2714 17.1501 35.2714 16.5643 34.6857L18.6856 32.5643ZM49.3105 16.5C50.139 16.5 50.8105 17.1716 50.8105 18C50.8105 18.8284 50.139 19.5 49.3105 19.5V16.5ZM18.6856 3.43566L3.06062 19.0607L0.939304 16.9393L16.5643 1.31434L18.6856 3.43566ZM3.06062 16.9393L18.6856 32.5643L16.5643 34.6857L0.939304 19.0607L3.06062 16.9393ZM1.99996 16.5H49.3105V19.5H1.99996V16.5Z" fill="url(#paint0_linear_453_563)"/>
<defs>
<linearGradient id="paint0_linear_453_563" x1="25.6553" y1="2.375" x2="25.6553" y2="33.625" gradientUnits="userSpaceOnUse">
<stop stop-color="#71EA87"/>
<stop offset="1" stop-color="#24AA2D"/>
</linearGradient>
</defs>
</svg>
