<svg width="40" height="40" viewBox="0 0 40 40" fill="none" xmlns="http://www.w3.org/2000/svg">
<rect width="40" height="40" rx="5" fill="url(#paint0_linear_819_2911)" fill-opacity="0.5"/>
<path d="M27.875 15.7375L29.0125 14.6125C29.2479 14.3771 29.3801 14.0579 29.3801 13.725C29.3801 13.3921 29.2479 13.0729 29.0125 12.8375C28.7772 12.6021 28.4579 12.4699 28.125 12.4699C27.7922 12.4699 27.4729 12.6021 27.2375 12.8375L26.1125 13.975C24.3607 12.6198 22.2086 11.8845 19.9938 11.8845C17.779 11.8845 15.6268 12.6198 13.875 13.975L12.7375 12.825C12.5005 12.5896 12.1797 12.458 11.8456 12.4592C11.5116 12.4604 11.1917 12.5942 10.9563 12.8312C10.7209 13.0683 10.5893 13.3891 10.5905 13.7232C10.5917 14.0572 10.7255 14.3771 10.9625 14.6125L12.1125 15.75C10.7413 17.4969 9.99727 19.6542 10 21.875C9.99595 23.4693 10.3731 25.0414 11.1001 26.4603C11.827 27.8792 12.8827 29.1038 14.179 30.0318C15.4754 30.9598 16.9748 31.5645 18.5523 31.7953C20.1298 32.0261 21.7396 31.8764 23.2475 31.3586C24.7553 30.8409 26.1176 29.9701 27.2206 28.819C28.3235 27.6678 29.1353 26.2696 29.5881 24.741C30.041 23.2123 30.1218 21.5976 29.8238 20.0314C29.5258 18.4652 28.8576 16.993 27.875 15.7375ZM20 29.375C18.5167 29.375 17.0666 28.9351 15.8333 28.111C14.5999 27.2869 13.6386 26.1156 13.0709 24.7451C12.5033 23.3747 12.3548 21.8667 12.6441 20.4118C12.9335 18.957 13.6478 17.6206 14.6967 16.5717C15.7456 15.5228 17.082 14.8085 18.5369 14.5191C19.9917 14.2297 21.4997 14.3782 22.8702 14.9459C24.2406 15.5136 25.4119 16.4749 26.2361 17.7082C27.0602 18.9416 27.5 20.3916 27.5 21.875C27.5 23.8641 26.7099 25.7718 25.3033 27.1783C23.8968 28.5848 21.9892 29.375 20 29.375ZM17.5 10.625H22.5C22.8316 10.625 23.1495 10.4933 23.3839 10.2589C23.6183 10.0245 23.75 9.70652 23.75 9.375C23.75 9.04348 23.6183 8.72554 23.3839 8.49112C23.1495 8.2567 22.8316 8.125 22.5 8.125H17.5C17.1685 8.125 16.8506 8.2567 16.6161 8.49112C16.3817 8.72554 16.25 9.04348 16.25 9.375C16.25 9.70652 16.3817 10.0245 16.6161 10.2589C16.8506 10.4933 17.1685 10.625 17.5 10.625ZM21.25 18.125C21.25 17.7935 21.1183 17.4755 20.8839 17.2411C20.6495 17.0067 20.3316 16.875 20 16.875C19.6685 16.875 19.3506 17.0067 19.1161 17.2411C18.8817 17.4755 18.75 17.7935 18.75 18.125V20.4875C18.467 20.7407 18.2675 21.0738 18.1779 21.4428C18.0884 21.8118 18.113 22.1993 18.2485 22.5541C18.384 22.9088 18.624 23.2141 18.9367 23.4294C19.2495 23.6447 19.6203 23.76 20 23.76C20.3798 23.76 20.7506 23.6447 21.0633 23.4294C21.3761 23.2141 21.6161 22.9088 21.7516 22.5541C21.8871 22.1993 21.9117 21.8118 21.8221 21.4428C21.7326 21.0738 21.5331 20.7407 21.25 20.4875V18.125Z" fill="white"/>
<defs>
<linearGradient id="paint0_linear_819_2911" x1="20" y1="0" x2="20" y2="40" gradientUnits="userSpaceOnUse">
<stop stop-color="#71EA87"/>
<stop offset="1" stop-color="#24AA2D"/>
</linearGradient>
</defs>
</svg>
