<svg width="21" height="18" viewBox="0 0 21 18" fill="none" xmlns="http://www.w3.org/2000/svg">
<path d="M19.1603 2.00001C18.1002 0.93722 16.6951 0.288553 15.1986 0.171183C13.7021 0.0538127 12.213 0.475479 11.0003 1.36001C9.72793 0.41365 8.14427 -0.0154759 6.5682 0.15905C4.99212 0.333576 3.54072 1.09879 2.50625 2.3006C1.47178 3.5024 0.931098 5.05153 0.993077 6.63603C1.05506 8.22052 1.71509 9.72268 2.84028 10.84L9.05028 17.06C9.57029 17.5718 10.2707 17.8586 11.0003 17.8586C11.7299 17.8586 12.4303 17.5718 12.9503 17.06L19.1603 10.84C20.3279 9.66528 20.9832 8.07629 20.9832 6.42001C20.9832 4.76374 20.3279 3.17475 19.1603 2.00001ZM17.7503 9.46001L11.5403 15.67C11.4696 15.7414 11.3855 15.798 11.2928 15.8367C11.2001 15.8753 11.1007 15.8952 11.0003 15.8952C10.8999 15.8952 10.8004 15.8753 10.7077 15.8367C10.615 15.798 10.5309 15.7414 10.4603 15.67L4.25028 9.43001C3.46603 8.62836 3.02689 7.55148 3.02689 6.43001C3.02689 5.30855 3.46603 4.23167 4.25028 3.43001C5.04943 2.641 6.12725 2.19858 7.25028 2.19858C8.3733 2.19858 9.45112 2.641 10.2503 3.43001C10.3432 3.52374 10.4538 3.59814 10.5757 3.6489C10.6976 3.69967 10.8283 3.72581 10.9603 3.72581C11.0923 3.72581 11.223 3.69967 11.3449 3.6489C11.4667 3.59814 11.5773 3.52374 11.6703 3.43001C12.4694 2.641 13.5472 2.19858 14.6703 2.19858C15.7933 2.19858 16.8711 2.641 17.6703 3.43001C18.4653 4.22116 18.9189 5.2922 18.9338 6.4137C18.9488 7.53519 18.5239 8.61795 17.7503 9.43001V9.46001Z" fill="url(#paint0_linear_1622_3679)"/>
<path d="M17.7503 9.46001L11.5403 15.67C11.4696 15.7414 11.3855 15.798 11.2928 15.8367C11.2001 15.8753 11.1007 15.8952 11.0003 15.8952C10.8999 15.8952 10.8004 15.8753 10.7077 15.8367C10.615 15.798 10.5309 15.7414 10.4603 15.67L4.25028 9.43001C3.46603 8.62836 3.02689 7.55148 3.02689 6.43001C3.02689 5.30855 3.46603 4.23167 4.25028 3.43001C5.04943 2.641 6.12725 2.19858 7.25028 2.19858C8.3733 2.19858 9.45112 2.641 10.2503 3.43001C10.3432 3.52374 10.4538 3.59814 10.5757 3.6489C10.6976 3.69967 10.8283 3.72581 10.9603 3.72581C11.0923 3.72581 11.223 3.69967 11.3449 3.6489C11.4667 3.59814 11.5773 3.52374 11.6703 3.43001C12.4694 2.641 13.5472 2.19858 14.6703 2.19858C15.7933 2.19858 16.8711 2.641 17.6703 3.43001C18.4653 4.22116 18.9189 5.2922 18.9338 6.4137C18.9488 7.53519 18.5239 8.61795 17.7503 9.43001V9.46001Z" fill="url(#paint1_linear_1622_3679)"/>
<defs>
<linearGradient id="paint0_linear_1622_3679" x1="10.9857" y1="0.120941" x2="10.9857" y2="17.8586" gradientUnits="userSpaceOnUse">
<stop stop-color="#71EA87"/>
<stop offset="1" stop-color="#24AA2D"/>
</linearGradient>
<linearGradient id="paint1_linear_1622_3679" x1="10.9857" y1="0.120941" x2="10.9857" y2="17.8586" gradientUnits="userSpaceOnUse">
<stop stop-color="#71EA87"/>
<stop offset="1" stop-color="#24AA2D"/>
</linearGradient>
</defs>
</svg>
