<svg width="25" height="25" viewBox="0 0 25 25" fill="none" xmlns="http://www.w3.org/2000/svg">
<path d="M21 5.20834C19.8958 4.10127 18.4321 3.42557 16.8732 3.30331C15.3144 3.18105 13.7633 3.62029 12.5 4.54168C11.1746 3.55588 9.52495 3.10888 7.88321 3.29067C6.24147 3.47247 4.72959 4.26957 3.65202 5.52145C2.57445 6.77333 2.01123 8.38701 2.0758 10.0375C2.14036 11.688 2.8279 13.2528 3.99996 14.4167L10.4687 20.8958C11.0104 21.4289 11.7399 21.7277 12.5 21.7277C13.26 21.7277 13.9895 21.4289 14.5312 20.8958L21 14.4167C22.2162 13.193 22.8988 11.5378 22.8988 9.81251C22.8988 8.08723 22.2162 6.43202 21 5.20834ZM19.5312 12.9792L13.0625 19.4479C12.9889 19.5223 12.9012 19.5813 12.8047 19.6215C12.7081 19.6618 12.6046 19.6825 12.5 19.6825C12.3954 19.6825 12.2918 19.6618 12.1952 19.6215C12.0987 19.5813 12.0111 19.5223 11.9375 19.4479L5.46871 12.9479C4.65179 12.1129 4.19435 10.9911 4.19435 9.82293C4.19435 8.65473 4.65179 7.53298 5.46871 6.69793C6.30117 5.87604 7.42389 5.41519 8.59371 5.41519C9.76353 5.41519 10.8863 5.87604 11.7187 6.69793C11.8155 6.79556 11.9308 6.87305 12.0577 6.92594C12.1846 6.97882 12.3208 7.00605 12.4583 7.00605C12.5958 7.00605 12.732 6.97882 12.8589 6.92594C12.9858 6.87305 13.101 6.79556 13.1979 6.69793C14.0303 5.87604 15.1531 5.41519 16.3229 5.41519C17.4927 5.41519 18.6154 5.87604 19.4479 6.69793C20.276 7.52204 20.7485 8.63771 20.7641 9.80593C20.7796 10.9742 20.3371 12.102 19.5312 12.9479V12.9792Z" fill="#828282"/>
<path d="M19.5312 12.9792L13.0625 19.4479C12.9889 19.5223 12.9012 19.5813 12.8047 19.6215C12.7081 19.6618 12.6046 19.6825 12.5 19.6825C12.3954 19.6825 12.2918 19.6618 12.1952 19.6215C12.0987 19.5813 12.0111 19.5223 11.9375 19.4479L5.46871 12.9479C4.65179 12.1129 4.19435 10.9911 4.19435 9.82293C4.19435 8.65473 4.65179 7.53298 5.46871 6.69793C6.30117 5.87604 7.42389 5.41519 8.59371 5.41519C9.76353 5.41519 10.8863 5.87604 11.7187 6.69793C11.8155 6.79556 11.9308 6.87305 12.0577 6.92594C12.1846 6.97882 12.3208 7.00605 12.4583 7.00605C12.5958 7.00605 12.732 6.97882 12.8589 6.92594C12.9858 6.87305 13.101 6.79556 13.1979 6.69793C14.0303 5.87604 15.1531 5.41519 16.3229 5.41519C17.4927 5.41519 18.6154 5.87604 19.4479 6.69793C20.276 7.52204 20.7485 8.63771 20.7641 9.80593C20.7796 10.9742 20.3371 12.102 19.5312 12.9479V12.9792Z" fill="#828282"/>
</svg>
