<svg width="192" height="36" viewBox="0 0 192 36" fill="none" xmlns="http://www.w3.org/2000/svg">
<path d="M42.374 25.1454L44.3333 22.804C45.2528 23.6104 46.1766 24.2175 47.1047 24.6251C48.0328 25.024 49.0511 25.2234 50.1597 25.2234C51.1651 25.2234 51.96 25.011 52.5444 24.586C53.1373 24.1524 53.4338 23.5671 53.4338 22.83C53.4338 22.3617 53.3264 21.9758 53.1116 21.6723C52.8967 21.3601 52.4842 21.0653 51.8741 20.7877C51.2726 20.5016 50.4046 20.2241 49.2703 19.9552C48.2047 19.7038 47.3239 19.4436 46.6278 19.1748C45.9317 18.8973 45.3001 18.5461 44.7329 18.1211C44.1744 17.6962 43.7619 17.1803 43.4955 16.5732C43.2377 15.9575 43.1088 15.2204 43.1088 14.3619C43.1088 12.7663 43.6974 11.4655 44.8747 10.4595C46.0606 9.45361 47.5774 8.95064 49.425 8.95064C51.9772 8.95064 54.2115 9.73111 56.1279 11.292L54.3877 13.7765C52.6776 12.4931 51.0062 11.8514 49.3734 11.8514C48.4453 11.8514 47.7106 12.0638 47.1692 12.4888C46.6278 12.9137 46.3571 13.4557 46.3571 14.1147C46.3571 14.609 46.4774 15.0166 46.718 15.3375C46.9672 15.6583 47.4012 15.9532 48.0199 16.222C48.6387 16.4908 49.5453 16.7683 50.7398 17.0545C52.7936 17.5575 54.2975 18.2252 55.2513 19.0577C56.2052 19.8815 56.6821 21.0479 56.6821 22.5568C56.6821 24.2738 56.072 25.631 54.8517 26.6283C53.6401 27.6255 52.0503 28.1242 50.0824 28.1242C47.1434 28.1242 44.574 27.1312 42.374 25.1454Z" fill="url(#paint0_linear_1198_841)"/>
<path d="M61.0256 27.864V9.2108H64.4931L70.1132 18.0301L75.7333 9.2108H79.1879V27.864H75.9396V14.492L70.1132 23.2852H70.0101L64.2224 14.544V27.864H61.0256Z" fill="url(#paint1_linear_1198_841)"/>
<path d="M82.8869 27.864L91.0206 9.08072H94.0369L102.158 27.864H98.7289L96.8598 23.3633H88.1203L86.2125 27.864H82.8869ZM89.3062 20.4626H95.6739L92.4772 12.9961L89.3062 20.4626Z" fill="url(#paint2_linear_1198_841)"/>
<path d="M105.857 27.864V9.2108H114.093C116.233 9.2108 117.913 9.74845 119.134 10.8238C120.354 11.8991 120.964 13.3429 120.964 15.1554C120.964 16.6296 120.569 17.8436 119.778 18.7976C118.987 19.7428 117.913 20.4105 116.556 20.8008L121.544 27.864H117.716L113.127 21.3601H109.105V27.864H105.857ZM109.105 18.4594H113.861C115.022 18.4594 115.945 18.1732 116.633 17.6008C117.32 17.0285 117.664 16.2567 117.664 15.2854C117.664 14.2969 117.329 13.5381 116.659 13.0091C115.988 12.4714 115.047 12.2026 113.836 12.2026H109.105V18.4594Z" fill="url(#paint3_linear_1198_841)"/>
<path d="M124.147 12.2546V9.2108H139.139V12.2546H133.286V27.864H130.012V12.2546H124.147Z" fill="url(#paint4_linear_1198_841)"/>
<path d="M143.108 27.864V9.2108H156.862V12.2026H146.357V17.2886H155.676V20.2674H146.357V27.864H143.108Z" fill="url(#paint5_linear_1198_841)"/>
<path d="M161.154 27.864V9.2108H164.402V27.864H161.154Z" fill="url(#paint6_linear_1198_841)"/>
<path d="M168.552 12.2546V9.2108H183.544V12.2546H177.692V27.864H174.418V12.2546H168.552Z" fill="url(#paint7_linear_1198_841)"/>
<path fill-rule="evenodd" clip-rule="evenodd" d="M0 0H192V36H0V0ZM21.8464 18.0206L13.176 30.7241L15.6215 22.0677L9.84123 21.0559V11.2753L28.2935 8.68965L23.6657 15.4349L24.403 11.7569L13.176 17.2336L21.8464 18.0206ZM189.86 2.16H35.6745V33.84H189.86V2.16Z" fill="url(#paint8_linear_1198_841)"/>
<defs>
<linearGradient id="paint0_linear_1198_841" x1="96" y1="0" x2="96" y2="36" gradientUnits="userSpaceOnUse">
<stop stop-color="#71EA87"/>
<stop offset="1" stop-color="#24AA2D"/>
</linearGradient>
<linearGradient id="paint1_linear_1198_841" x1="96" y1="0" x2="96" y2="36" gradientUnits="userSpaceOnUse">
<stop stop-color="#71EA87"/>
<stop offset="1" stop-color="#24AA2D"/>
</linearGradient>
<linearGradient id="paint2_linear_1198_841" x1="96" y1="0" x2="96" y2="36" gradientUnits="userSpaceOnUse">
<stop stop-color="#71EA87"/>
<stop offset="1" stop-color="#24AA2D"/>
</linearGradient>
<linearGradient id="paint3_linear_1198_841" x1="96" y1="0" x2="96" y2="36" gradientUnits="userSpaceOnUse">
<stop stop-color="#71EA87"/>
<stop offset="1" stop-color="#24AA2D"/>
</linearGradient>
<linearGradient id="paint4_linear_1198_841" x1="96" y1="0" x2="96" y2="36" gradientUnits="userSpaceOnUse">
<stop stop-color="#71EA87"/>
<stop offset="1" stop-color="#24AA2D"/>
</linearGradient>
<linearGradient id="paint5_linear_1198_841" x1="96" y1="0" x2="96" y2="36" gradientUnits="userSpaceOnUse">
<stop stop-color="#71EA87"/>
<stop offset="1" stop-color="#24AA2D"/>
</linearGradient>
<linearGradient id="paint6_linear_1198_841" x1="96" y1="0" x2="96" y2="36" gradientUnits="userSpaceOnUse">
<stop stop-color="#71EA87"/>
<stop offset="1" stop-color="#24AA2D"/>
</linearGradient>
<linearGradient id="paint7_linear_1198_841" x1="96" y1="0" x2="96" y2="36" gradientUnits="userSpaceOnUse">
<stop stop-color="#71EA87"/>
<stop offset="1" stop-color="#24AA2D"/>
</linearGradient>
<linearGradient id="paint8_linear_1198_841" x1="96" y1="0" x2="96" y2="36" gradientUnits="userSpaceOnUse">
<stop stop-color="#71EA87"/>
<stop offset="1" stop-color="#24AA2D"/>
</linearGradient>
</defs>
</svg>
