<svg width="34" height="34" viewBox="0 0 34 34" fill="none" xmlns="http://www.w3.org/2000/svg">
<path d="M31.9997 15.3335C31.5577 15.3335 31.1338 15.5091 30.8212 15.8217C30.5087 16.1343 30.3331 16.5582 30.3331 17.0002C30.3529 20.1219 29.2836 23.1528 27.3092 25.571C25.3348 27.9891 22.579 29.643 19.5163 30.2479C16.4537 30.8528 13.276 30.3708 10.5306 28.8848C7.78512 27.3989 5.64375 25.0021 4.47528 22.1073C3.30681 19.2124 3.18439 16.0007 4.1291 13.0253C5.07382 10.0499 7.02653 7.4971 9.65091 5.80651C12.2753 4.11591 15.4071 3.3934 18.5068 3.76339C21.6066 4.13339 24.4803 5.57274 26.6331 7.83354H22.6331C22.191 7.83354 21.7671 8.00914 21.4546 8.3217C21.142 8.63426 20.9664 9.05818 20.9664 9.50021C20.9664 9.94223 21.142 10.3662 21.4546 10.6787C21.7671 10.9913 22.191 11.1669 22.6331 11.1669H30.1831C30.6251 11.1669 31.049 10.9913 31.3616 10.6787C31.6741 10.3662 31.8497 9.94223 31.8497 9.50021V2.00021C31.8497 1.55818 31.6741 1.13426 31.3616 0.821697C31.049 0.509136 30.6251 0.333541 30.1831 0.333541C29.741 0.333541 29.3171 0.509136 29.0046 0.821697C28.692 1.13426 28.5164 1.55818 28.5164 2.00021V4.95021C25.7409 2.29697 22.1343 0.683462 18.3064 0.382423C14.4785 0.0813842 10.6641 1.11128 7.50794 3.29803C4.35176 5.48477 2.04742 8.69422 0.984454 12.3839C-0.0785131 16.0735 0.165091 20.017 1.67409 23.5478C3.18308 27.0785 5.86491 29.98 9.26623 31.7616C12.6676 33.5433 16.5797 34.0959 20.3415 33.326C24.1032 32.5561 27.4837 30.511 29.9116 27.5363C32.3395 24.5617 33.6658 20.8399 33.6664 17.0002C33.6664 16.5582 33.4908 16.1343 33.1783 15.8217C32.8657 15.5091 32.4418 15.3335 31.9997 15.3335Z" fill="white"/>
</svg>
