<svg width="17" height="16" viewBox="0 0 17 16" fill="none" xmlns="http://www.w3.org/2000/svg">
<path d="M14.9733 13.5267L12.5 11.0734C13.4601 9.87633 13.925 8.35692 13.7992 6.82759C13.6734 5.29826 12.9664 3.87525 11.8237 2.85115C10.6809 1.82706 9.1892 1.27973 7.65528 1.32171C6.12136 1.36368 4.66181 1.99177 3.57676 3.07682C2.49171 4.16187 1.86362 5.62142 1.82164 7.15534C1.77967 8.68926 2.327 10.181 3.35109 11.3237C4.37519 12.4665 5.7982 13.1735 7.32753 13.2993C8.85686 13.4251 10.3763 12.9601 11.5733 12.0001L14.0267 14.4534C14.0886 14.5159 14.1624 14.5655 14.2436 14.5993C14.3249 14.6332 14.412 14.6506 14.5 14.6506C14.588 14.6506 14.6751 14.6332 14.7564 14.5993C14.8376 14.5655 14.9114 14.5159 14.9733 14.4534C15.0935 14.3291 15.1607 14.163 15.1607 13.9901C15.1607 13.8172 15.0935 13.651 14.9733 13.5267ZM7.83333 12.0001C6.91035 12.0001 6.0081 11.7264 5.24067 11.2136C4.47324 10.7008 3.8751 9.97197 3.52189 9.11925C3.16868 8.26653 3.07627 7.32821 3.25633 6.42297C3.4364 5.51773 3.88085 4.6862 4.5335 4.03356C5.18614 3.38091 6.01766 2.93646 6.92291 2.75639C7.82815 2.57633 8.76646 2.66874 9.61919 3.02195C10.4719 3.37516 11.2007 3.9733 11.7135 4.74073C12.2263 5.50816 12.5 6.41041 12.5 7.33339C12.5 8.57107 12.0083 9.75805 11.1332 10.6332C10.258 11.5084 9.07101 12.0001 7.83333 12.0001Z" fill="url(#paint0_linear_666_1894)"/>
<defs>
<linearGradient id="paint0_linear_666_1894" x1="8.49003" y1="1.31946" x2="8.49003" y2="14.6506" gradientUnits="userSpaceOnUse">
<stop stop-color="#71EA87"/>
<stop offset="1" stop-color="#24AA2D"/>
</linearGradient>
</defs>
</svg>
