<svg width="17" height="20" viewBox="0 0 17 20" fill="none" xmlns="http://www.w3.org/2000/svg">
<path d="M14.4992 6.59L15.4092 5.69C15.5975 5.5017 15.7033 5.2463 15.7033 4.98C15.7033 4.7137 15.5975 4.4583 15.4092 4.27C15.2209 4.0817 14.9655 3.97591 14.6992 3.97591C14.4329 3.97591 14.1776 4.0817 13.9892 4.27L13.0892 5.18C11.6878 4.09585 9.96609 3.50764 8.19424 3.50764C6.4224 3.50764 4.70069 4.09585 3.29924 5.18L2.38925 4.26C2.19962 4.0717 1.94295 3.96644 1.67571 3.96737C1.40847 3.96831 1.15255 4.07537 0.964245 4.265C0.775941 4.45463 0.67068 4.7113 0.671618 4.97854C0.672556 5.24578 0.779615 5.5017 0.969245 5.69L1.88925 6.6C0.79226 7.99755 0.197036 9.72334 0.199245 11.5C0.195979 12.7754 0.497708 14.0331 1.07927 15.1683C1.66083 16.3034 2.50536 17.283 3.54244 18.0254C4.57951 18.7679 5.77906 19.2516 7.04106 19.4362C8.30305 19.6208 9.59089 19.5011 10.7972 19.0869C12.0035 18.6727 13.0933 17.9761 13.9757 17.0552C14.8581 16.1342 15.5075 15.0157 15.8697 13.7928C16.232 12.5699 16.2966 11.2781 16.0582 10.0251C15.8198 8.77219 15.2853 7.5944 14.4992 6.59ZM8.19925 17.5C7.01256 17.5 5.85252 17.1481 4.86582 16.4888C3.87913 15.8295 3.11009 14.8925 2.65597 13.7961C2.20184 12.6997 2.08302 11.4933 2.31453 10.3295C2.54604 9.16557 3.11749 8.09647 3.9566 7.25736C4.79572 6.41824 5.86482 5.8468 7.0287 5.61529C8.19259 5.38378 9.39899 5.5026 10.4953 5.95672C11.5917 6.41085 12.5288 7.17988 13.1881 8.16658C13.8474 9.15327 14.1992 10.3133 14.1992 11.5C14.1992 13.0913 13.5671 14.6174 12.4419 15.7426C11.3167 16.8679 9.79054 17.5 8.19925 17.5ZM6.19924 2.5H10.1992C10.4645 2.5 10.7188 2.39464 10.9064 2.20711C11.0939 2.01957 11.1992 1.76522 11.1992 1.5C11.1992 1.23478 11.0939 0.98043 10.9064 0.792893C10.7188 0.605357 10.4645 0.5 10.1992 0.5H6.19924C5.93403 0.5 5.67967 0.605357 5.49214 0.792893C5.3046 0.98043 5.19924 1.23478 5.19924 1.5C5.19924 1.76522 5.3046 2.01957 5.49214 2.20711C5.67967 2.39464 5.93403 2.5 6.19924 2.5ZM9.19925 8.5C9.19925 8.23478 9.09389 7.98043 8.90635 7.79289C8.71882 7.60536 8.46446 7.5 8.19925 7.5C7.93403 7.5 7.67967 7.60536 7.49214 7.79289C7.3046 7.98043 7.19924 8.23478 7.19924 8.5V10.39C6.97282 10.5925 6.81322 10.859 6.74156 11.1542C6.66991 11.4495 6.68959 11.7595 6.79799 12.0433C6.90638 12.3271 7.0984 12.5712 7.34861 12.7435C7.59883 12.9158 7.89546 13.008 8.19925 13.008C8.50303 13.008 8.79966 12.9158 9.04988 12.7435C9.30009 12.5712 9.49211 12.3271 9.6005 12.0433C9.7089 11.7595 9.72858 11.4495 9.65693 11.1542C9.58527 10.859 9.42568 10.5925 9.19925 10.39V8.5Z" fill="url(#paint0_linear_453_581)"/>
<defs>
<linearGradient id="paint0_linear_453_581" x1="8.19922" y1="0.5" x2="8.19922" y2="19.5205" gradientUnits="userSpaceOnUse">
<stop stop-color="#71EA87"/>
<stop offset="1" stop-color="#24AA2D"/>
</linearGradient>
</defs>
</svg>
