<svg width="24" height="25" viewBox="0 0 24 25" fill="none" xmlns="http://www.w3.org/2000/svg">
<path d="M15.71 13.2099C16.6904 12.4385 17.406 11.3808 17.7572 10.1838C18.1085 8.98684 18.0779 7.71015 17.6698 6.53135C17.2617 5.35255 16.4963 4.33027 15.4801 3.60674C14.4639 2.8832 13.2474 2.49438 12 2.49438C10.7525 2.49438 9.53611 2.8832 8.51993 3.60674C7.50374 4.33027 6.73834 5.35255 6.33021 6.53135C5.92208 7.71015 5.89151 8.98684 6.24276 10.1838C6.59401 11.3808 7.30961 12.4385 8.29 13.2099C6.61007 13.8829 5.14428 14.9992 4.04889 16.4398C2.95349 17.8804 2.26956 19.5912 2.07 21.3899C2.05555 21.5212 2.06711 21.6541 2.10402 21.7809C2.14093 21.9078 2.20246 22.0261 2.28511 22.1292C2.45202 22.3374 2.69478 22.4707 2.96 22.4999C3.22521 22.5291 3.49116 22.4517 3.69932 22.2848C3.90749 22.1179 4.04082 21.8751 4.07 21.6099C4.28958 19.6551 5.22168 17.8497 6.68822 16.5387C8.15475 15.2277 10.0529 14.5029 12.02 14.5029C13.9871 14.5029 15.8852 15.2277 17.3518 16.5387C18.8183 17.8497 19.7504 19.6551 19.97 21.6099C19.9972 21.8556 20.1144 22.0825 20.2991 22.2469C20.4838 22.4113 20.7228 22.5014 20.97 22.4999H21.08C21.3421 22.4697 21.5817 22.3372 21.7466 22.1311C21.9114 21.9251 21.9881 21.6622 21.96 21.3999C21.7595 19.5961 21.0719 17.8809 19.9708 16.4381C18.8698 14.9953 17.3969 13.8794 15.71 13.2099ZM12 12.4999C11.2089 12.4999 10.4355 12.2653 9.77772 11.8258C9.11992 11.3862 8.60723 10.7615 8.30448 10.0306C8.00173 9.29971 7.92251 8.49544 8.07686 7.71952C8.2312 6.9436 8.61216 6.23086 9.17157 5.67145C9.73098 5.11204 10.4437 4.73108 11.2196 4.57674C11.9956 4.4224 12.7998 4.50161 13.5307 4.80436C14.2616 5.10711 14.8864 5.6198 15.3259 6.2776C15.7654 6.9354 16 7.70876 16 8.49988C16 9.56075 15.5786 10.5782 14.8284 11.3283C14.0783 12.0785 13.0609 12.4999 12 12.4999Z" fill="url(#paint0_linear_531_240)"/>
<defs>
<linearGradient id="paint0_linear_531_240" x1="12.0148" y1="2.49438" x2="12.0148" y2="22.5059" gradientUnits="userSpaceOnUse">
<stop stop-color="#71EA87"/>
<stop offset="1" stop-color="#24AA2D"/>
</linearGradient>
</defs>
</svg>
