<svg width="25" height="25" viewBox="0 0 25 25" fill="none" xmlns="http://www.w3.org/2000/svg">
<path d="M16.6113 10.77L11.6113 7.88C11.3074 7.70455 10.9627 7.61214 10.6118 7.61205C10.2609 7.61196 9.9162 7.70419 9.61222 7.87949C9.30824 8.05478 9.05573 8.30697 8.88005 8.61072C8.70437 8.91447 8.61169 9.2591 8.61133 9.61V15.39C8.61169 15.7407 8.70428 16.0852 8.87979 16.3888C9.05531 16.6925 9.30759 16.9446 9.61133 17.12C9.91537 17.2955 10.2603 17.3879 10.6113 17.3879C10.9624 17.3879 11.3073 17.2955 11.6113 17.12L16.6113 14.23C16.9144 14.0542 17.166 13.8018 17.3409 13.4982C17.5157 13.1946 17.6078 12.8504 17.6078 12.5C17.6078 12.1496 17.5157 11.8054 17.3409 11.5018C17.166 11.1982 16.9144 10.9458 16.6113 10.77ZM15.6113 12.5L10.6113 15.39V9.61L15.6113 12.5ZM12.6113 2.5C10.6335 2.5 8.70012 3.08649 7.05563 4.1853C5.41114 5.28412 4.12941 6.8459 3.37254 8.67317C2.61566 10.5004 2.41763 12.5111 2.80348 14.4509C3.18933 16.3907 4.14174 18.1725 5.54026 19.5711C6.93879 20.9696 8.72062 21.922 10.6604 22.3079C12.6002 22.6937 14.6109 22.4957 16.4382 21.7388C18.2654 20.9819 19.8272 19.7002 20.926 18.0557C22.0248 16.4112 22.6113 14.4778 22.6113 12.5C22.6113 11.1868 22.3527 9.88642 21.8501 8.67317C21.3476 7.45991 20.611 6.35752 19.6824 5.42893C18.7538 4.50035 17.6514 3.76375 16.4382 3.2612C15.2249 2.75866 13.9246 2.5 12.6113 2.5ZM12.6113 20.5C11.0291 20.5 9.48236 20.0308 8.16677 19.1518C6.85118 18.2727 5.8258 17.0233 5.2203 15.5615C4.6148 14.0997 4.45637 12.4911 4.76505 10.9393C5.07373 9.38743 5.83566 7.96197 6.95448 6.84315C8.0733 5.72433 9.49876 4.9624 11.0506 4.65372C12.6025 4.34504 14.211 4.50346 15.6728 5.10896C17.1346 5.71447 18.384 6.73984 19.2631 8.05544C20.1421 9.37103 20.6113 10.9177 20.6113 12.5C20.6113 14.6217 19.7685 16.6566 18.2682 18.1569C16.7679 19.6571 14.7331 20.5 12.6113 20.5Z" fill="url(#paint0_linear_738_2743)"/>
<defs>
<linearGradient id="paint0_linear_738_2743" x1="12.6113" y1="2.5" x2="12.6113" y2="22.5" gradientUnits="userSpaceOnUse">
<stop stop-color="#71EA87"/>
<stop offset="1" stop-color="#24AA2D"/>
</linearGradient>
</defs>
</svg>
