<svg width="100" height="100" viewBox="0 0 100 100" fill="none" xmlns="http://www.w3.org/2000/svg">
<rect width="100" height="100" rx="10" fill="url(#paint0_linear_640_531)"/>
<path d="M59.8054 55.9166C59.5471 55.6563 59.2399 55.4496 58.9014 55.3086C58.5629 55.1676 58.1999 55.095 57.8332 55.095C57.4665 55.095 57.1034 55.1676 56.7649 55.3086C56.4264 55.4496 56.1192 55.6563 55.8609 55.9166C55.3436 56.4371 55.0532 57.1411 55.0532 57.875C55.0532 58.6088 55.3436 59.3129 55.8609 59.8333L73.0276 77C73.2858 77.2603 73.5931 77.467 73.9316 77.608C74.2701 77.749 74.6331 77.8216 74.9998 77.8216C75.3665 77.8216 75.7296 77.749 76.0681 77.608C76.4066 77.467 76.7138 77.2603 76.972 77C77.4894 76.4795 77.7798 75.7755 77.7798 75.0416C77.7798 74.3078 77.4894 73.6038 76.972 73.0833L59.8054 55.9166ZM63.222 49C65.4314 48.998 67.5496 48.1188 69.1109 46.5555L76.972 38.6944C77.4894 38.174 77.7798 37.4699 77.7798 36.7361C77.7798 36.0022 77.4894 35.2982 76.972 34.7778C76.7138 34.5174 76.4066 34.3107 76.0681 34.1697C75.7296 34.0287 75.3665 33.9561 74.9998 33.9561C74.6331 33.9561 74.2701 34.0287 73.9316 34.1697C73.5931 34.3107 73.2858 34.5174 73.0276 34.7778L65.1665 42.6389C64.646 43.1562 63.942 43.4466 63.2081 43.4466C62.4743 43.4466 61.7703 43.1562 61.2498 42.6389L71.0832 32.8055C71.6005 32.2851 71.8909 31.581 71.8909 30.8472C71.8909 30.1133 71.6005 29.4093 71.0832 28.8889C70.8249 28.6285 70.5177 28.4219 70.1792 28.2808C69.8407 28.1398 69.4776 28.0672 69.1109 28.0672C68.7442 28.0672 68.3812 28.1398 68.0427 28.2808C67.7042 28.4219 67.3969 28.6285 67.1387 28.8889L57.3332 38.6944C56.8158 38.174 56.5254 37.4699 56.5254 36.7361C56.5254 36.0022 56.8158 35.2982 57.3332 34.7778L65.1665 26.9166C65.4573 26.6676 65.6934 26.3612 65.8602 26.0166C66.0269 25.6719 66.1206 25.2966 66.1354 24.914C66.1501 24.5315 66.0857 24.15 65.946 23.7935C65.8064 23.4371 65.5946 23.1133 65.3238 22.8426C65.0531 22.5719 64.7294 22.3601 64.3729 22.2204C64.0165 22.0808 63.635 22.0163 63.2524 22.0311C62.8699 22.0459 62.4945 22.1396 62.1499 22.3063C61.8053 22.473 61.4988 22.7092 61.2498 23L53.3887 30.8611C51.8281 32.4236 50.9516 34.5416 50.9516 36.75C50.9516 38.9583 51.8281 41.0764 53.3887 42.6389L49.9998 46.0833L45.6665 41.8055C46.8963 39.586 47.3614 37.0233 46.9899 34.5131C46.6184 32.0029 45.431 29.6848 43.6109 27.9166C39.6109 23.9166 29.2498 19.4444 24.3609 24.4166C19.472 29.3889 23.8887 39.6389 27.7776 43.6666C29.9493 45.8462 32.8692 47.1174 35.9443 47.2222H36.3332C38.2113 47.1955 40.0498 46.6784 41.6665 45.7222L46.0276 50L23.0276 73C22.7704 73.259 22.5668 73.5661 22.4283 73.9038C22.2898 74.2415 22.2192 74.6031 22.2205 74.9681C22.2218 75.3331 22.295 75.6943 22.4358 76.031C22.5767 76.3677 22.7825 76.6734 23.0415 76.9305C23.3005 77.1877 23.6076 77.3913 23.9453 77.5298C24.283 77.6683 24.6447 77.7389 25.0096 77.7376C25.3746 77.7363 25.7358 77.6632 26.0725 77.5223C26.4092 77.3814 26.7149 77.1756 26.972 76.9166L51.972 51.9166L57.3054 46.5833C58.084 47.3557 59.0075 47.9667 60.0228 48.3814C61.0381 48.7961 62.1253 49.0063 63.222 49ZM40.0832 40.1111C39.5628 40.6284 38.9417 41.0334 38.2584 41.301C37.5752 41.5685 36.8442 41.693 36.1109 41.6666C34.4871 41.5967 32.9536 40.8997 31.8332 39.7222C28.8332 36.7222 26.722 29.9166 28.3054 28.3333C28.8313 27.9366 29.4811 27.7397 30.1387 27.7778C33.684 28.0603 37.0396 29.4943 39.6943 31.8611C40.8284 32.9103 41.5047 34.3632 41.5774 35.9065C41.6502 37.4498 41.1135 38.9598 40.0832 40.1111Z" fill="white"/>
<defs>
<linearGradient id="paint0_linear_640_531" x1="50" y1="0" x2="50" y2="100" gradientUnits="userSpaceOnUse">
<stop stop-color="#71EA87"/>
<stop offset="1" stop-color="#24AA2D"/>
</linearGradient>
</defs>
</svg>
