<svg width="100" height="100" viewBox="0 0 100 100" fill="none" xmlns="http://www.w3.org/2000/svg">
<rect width="100" height="100" rx="10" fill="url(#paint0_linear_649_537)"/>
<path d="M80.4561 55.0629C80.4451 54.8995 80.4189 54.7375 80.3778 54.579L73.9759 37.5315C75.1409 36.7779 76.0991 35.7449 76.7631 34.5266C77.4271 33.3082 77.7758 31.9431 77.7777 30.5556C77.7777 29.8188 77.485 29.1123 76.9641 28.5914C76.4431 28.0704 75.7366 27.7778 74.9999 27.7778C74.2632 27.7778 73.5566 28.0704 73.0357 28.5914C72.5148 29.1123 72.2221 29.8188 72.2221 30.5556C72.2219 31.1746 72.015 31.7758 71.6342 32.2639C71.2534 32.7519 70.7206 33.0988 70.1202 33.2496C69.5199 33.4004 68.8863 33.3464 68.3201 33.0962C67.7539 32.846 67.2875 32.4139 66.9948 31.8685C66.282 30.6033 65.2397 29.5548 63.9787 28.8345C62.7177 28.1142 61.2851 27.749 59.8332 27.7778H52.7777V25C52.7777 24.2633 52.485 23.5567 51.9641 23.0358C51.4431 22.5149 50.7366 22.2222 49.9999 22.2222C49.2632 22.2222 48.5566 22.5149 48.0357 23.0358C47.5148 23.5567 47.2221 24.2633 47.2221 25V27.7778H40.1666C38.7146 27.749 37.2821 28.1142 36.0211 28.8345C34.7601 29.5548 33.7178 30.6033 33.005 31.8685C32.7123 32.4139 32.2459 32.846 31.6797 33.0962C31.1135 33.3464 30.4799 33.4004 29.8795 33.2496C29.2792 33.0988 28.7463 32.7519 28.3656 32.2639C27.9848 31.7758 27.7779 31.1746 27.7777 30.5556C27.7777 29.8188 27.485 29.1123 26.9641 28.5914C26.4431 28.0704 25.7366 27.7778 24.9999 27.7778C24.2632 27.7778 23.5566 28.0704 23.0357 28.5914C22.5148 29.1123 22.2221 29.8188 22.2221 30.5556C22.2239 31.9431 22.5727 33.3082 23.2367 34.5266C23.9007 35.7449 24.8588 36.7779 26.0239 37.5315L19.6221 54.579C19.581 54.7375 19.5548 54.8995 19.5438 55.0629C19.495 55.2235 19.4617 55.3885 19.4443 55.5556C19.4443 55.5813 19.4518 55.6051 19.452 55.6308C19.4528 55.6674 19.4603 55.7012 19.4628 55.7376C19.5061 58.6511 20.6938 61.4305 22.7693 63.4755C24.8449 65.5205 27.6417 66.6668 30.5554 66.6668C33.4692 66.6668 36.266 65.5205 38.3416 63.4755C40.4171 61.4305 41.6048 58.6511 41.6481 55.7376C41.6504 55.7012 41.6581 55.6674 41.6589 55.6308C41.6591 55.6051 41.6666 55.5813 41.6666 55.5556C41.6492 55.3885 41.6159 55.2235 41.5672 55.0629C41.5562 54.8995 41.53 54.7375 41.4889 54.579L35.0795 37.5117C36.2566 36.7605 37.2253 35.7246 37.8959 34.4998C38.1383 34.1228 38.4759 33.8164 38.8746 33.6116C39.2733 33.4068 39.7189 33.3108 40.1666 33.3333H47.2221V72.2222H38.8888C38.1521 72.2222 37.4455 72.5149 36.9246 73.0358C36.4037 73.5567 36.111 74.2633 36.111 75C36.111 75.7367 36.4037 76.4432 36.9246 76.9642C37.4455 77.4851 38.1521 77.7778 38.8888 77.7778H61.111C61.8477 77.7778 62.5543 77.4851 63.0752 76.9642C63.5961 76.4432 63.8888 75.7367 63.8888 75C63.8888 74.2633 63.5961 73.5567 63.0752 73.0358C62.5543 72.5149 61.8477 72.2222 61.111 72.2222H52.7777V33.3333H59.8332C60.2808 33.3108 60.7265 33.4068 61.1251 33.6116C61.5238 33.8164 61.8613 34.1228 62.1037 34.4998C62.7744 35.7246 63.7431 36.7605 64.9202 37.5117L58.511 54.579C58.4699 54.7375 58.4437 54.8995 58.4327 55.0629C58.3839 55.2235 58.3506 55.3885 58.3332 55.5556C58.3332 55.5813 58.3407 55.6051 58.3409 55.6308C58.3417 55.6674 58.3492 55.7012 58.3517 55.7376C58.3949 58.6511 59.5827 61.4305 61.6582 63.4755C63.7338 65.5205 66.5306 66.6668 69.4443 66.6668C72.3581 66.6668 75.1549 65.5205 77.2304 63.4755C79.306 61.4305 80.4937 58.6511 80.537 55.7376C80.5393 55.7012 80.547 55.6674 80.5478 55.6308C80.548 55.6051 80.5554 55.5813 80.5554 55.5556C80.5381 55.3885 80.5048 55.2235 80.4561 55.0629ZM30.5554 41.2654L34.8788 52.7778H26.2321L30.5554 41.2654ZM35.3406 58.3333C34.8504 59.1698 34.1521 59.8652 33.3136 60.3519C32.4751 60.8387 31.5249 61.1002 30.5554 61.1111C29.5805 61.1108 28.6229 60.8539 27.7787 60.3663C26.9344 59.8787 26.2334 59.1776 25.7459 58.3333H35.3406ZM69.4443 41.2654L73.7677 52.7778H65.121L69.4443 41.2654ZM69.4443 61.1111C68.4694 61.1108 67.5118 60.8539 66.6676 60.3663C65.8233 59.8787 65.1223 59.1776 64.6348 58.3333H74.2295C73.7393 59.1698 73.041 59.8652 72.2025 60.3519C71.364 60.8387 70.4138 61.1002 69.4443 61.1111Z" fill="white"/>
<defs>
<linearGradient id="paint0_linear_649_537" x1="50" y1="0" x2="50" y2="100" gradientUnits="userSpaceOnUse">
<stop stop-color="#71EA87"/>
<stop offset="1" stop-color="#24AA2D"/>
</linearGradient>
</defs>
</svg>
