<svg width="100" height="100" viewBox="0 0 100 100" fill="none" xmlns="http://www.w3.org/2000/svg">
<rect width="100" height="100" rx="10" fill="url(#paint0_linear_640_530)"/>
<path d="M33.3332 52.7778H22.2221C21.4854 52.7778 20.7789 53.0704 20.2579 53.5914C19.737 54.1123 19.4443 54.8188 19.4443 55.5555V77.7778C19.4443 78.5145 19.737 79.221 20.2579 79.7419C20.7789 80.2629 21.4854 80.5555 22.2221 80.5555H33.3332C34.0699 80.5555 34.7765 80.2629 35.2974 79.7419C35.8183 79.221 36.111 78.5145 36.111 77.7778V55.5555C36.111 54.8188 35.8183 54.1123 35.2974 53.5914C34.7765 53.0704 34.0699 52.7778 33.3332 52.7778ZM30.5554 75H24.9999V58.3333H30.5554V75ZM77.7777 41.6666H66.6666C65.9298 41.6666 65.2233 41.9593 64.7024 42.4802C64.1814 43.0012 63.8888 43.7077 63.8888 44.4444V77.7778C63.8888 78.5145 64.1814 79.221 64.7024 79.7419C65.2233 80.2629 65.9298 80.5555 66.6666 80.5555H77.7777C78.5144 80.5555 79.2209 80.2629 79.7419 79.7419C80.2628 79.221 80.5554 78.5145 80.5554 77.7778V44.4444C80.5554 43.7077 80.2628 43.0012 79.7419 42.4802C79.2209 41.9593 78.5144 41.6666 77.7777 41.6666ZM74.9999 75H69.4443V47.2222H74.9999V75ZM55.5554 19.4444H44.4443C43.7076 19.4444 43.0011 19.7371 42.4802 20.258C41.9592 20.779 41.6666 21.4855 41.6666 22.2222V77.7778C41.6666 78.5145 41.9592 79.221 42.4802 79.7419C43.0011 80.2629 43.7076 80.5555 44.4443 80.5555H55.5554C56.2922 80.5555 56.9987 80.2629 57.5196 79.7419C58.0406 79.221 58.3332 78.5145 58.3332 77.7778V22.2222C58.3332 21.4855 58.0406 20.779 57.5196 20.258C56.9987 19.7371 56.2922 19.4444 55.5554 19.4444ZM52.7777 75H47.2221V25H52.7777V75Z" fill="white"/>
<defs>
<linearGradient id="paint0_linear_640_530" x1="50" y1="0" x2="50" y2="100" gradientUnits="userSpaceOnUse">
<stop stop-color="#71EA87"/>
<stop offset="1" stop-color="#24AA2D"/>
</linearGradient>
</defs>
</svg>
