<svg width="100" height="100" viewBox="0 0 100 100" fill="none" xmlns="http://www.w3.org/2000/svg">
<rect width="100" height="100" rx="10" fill="url(#paint0_linear_640_528)"/>
<path d="M65.2223 34.8611L57.3334 26.9722C57.0752 26.7119 56.768 26.5052 56.4295 26.3642C56.091 26.2232 55.7279 26.1506 55.3612 26.1506C54.9945 26.1506 54.6314 26.2232 54.2929 26.3642C53.9544 26.5052 53.6472 26.7119 53.389 26.9722C52.8716 27.4927 52.5812 28.1967 52.5812 28.9306C52.5812 29.6644 52.8716 30.3684 53.389 30.8889L59.2779 36.7778L36.7779 59.2778L30.889 53.3889C30.3685 52.8715 29.6645 52.5811 28.9306 52.5811C28.1968 52.5811 27.4928 52.8715 26.9723 53.3889C26.7119 53.6471 26.5053 53.9543 26.3643 54.2928C26.2232 54.6313 26.1506 54.9944 26.1506 55.3611C26.1506 55.7278 26.2232 56.0909 26.3643 56.4294C26.5053 56.7679 26.7119 57.0751 26.9723 57.3333L34.7779 65.1389L42.5834 72.9444C42.8407 73.2069 43.1475 73.4157 43.486 73.5588C43.8246 73.7018 44.1881 73.7762 44.5556 73.7778C45.1074 73.781 45.6476 73.6198 46.1073 73.3148C46.5671 73.0098 46.9256 72.5748 47.1372 72.0652C47.3488 71.5556 47.4038 70.9946 47.2953 70.4537C47.1868 69.9127 46.9196 69.4163 46.5279 69.0278L40.7223 63.2222L63.2223 40.7222L69.1112 46.6111C69.3702 46.8683 69.6773 47.0719 70.015 47.2104C70.3527 47.3489 70.7144 47.4195 71.0793 47.4182C71.4443 47.4169 71.8055 47.3437 72.1422 47.2029C72.4789 47.062 72.7846 46.8562 73.0417 46.5972C73.2989 46.3382 73.5026 46.0311 73.641 45.6934C73.7795 45.3557 73.8501 44.994 73.8488 44.6291C73.8476 44.2641 73.7744 43.9029 73.6335 43.5662C73.4927 43.2295 73.2869 42.9238 73.0279 42.6667L65.2223 34.8611ZM26.9723 65.1667C26.4492 64.6436 25.7398 64.3497 25.0001 64.3497C24.2604 64.3497 23.5509 64.6436 23.0279 65.1667C22.5048 65.6897 22.2109 66.3992 22.2109 67.1389C22.2109 67.8786 22.5048 68.588 23.0279 69.1111L30.889 76.9722C31.1485 77.2297 31.4563 77.4333 31.7948 77.5716C32.1332 77.7098 32.4956 77.7799 32.8612 77.7778C33.2268 77.7799 33.5892 77.7098 33.9276 77.5716C34.266 77.4333 34.5739 77.2297 34.8334 76.9722C35.0938 76.714 35.3004 76.4068 35.4414 76.0683C35.5825 75.7298 35.6551 75.3667 35.6551 75C35.6551 74.6333 35.5825 74.2702 35.4414 73.9317C35.3004 73.5932 35.0938 73.286 34.8334 73.0278L26.9723 65.1667ZM76.9723 30.8889L69.1112 23.0278C68.8522 22.7688 68.5447 22.5633 68.2063 22.4232C67.8679 22.283 67.5052 22.2109 67.139 22.2109C66.7727 22.2109 66.41 22.283 66.0716 22.4232C65.7332 22.5633 65.4257 22.7688 65.1667 23.0278C64.9077 23.2868 64.7023 23.5942 64.5621 23.9326C64.422 24.271 64.3498 24.6337 64.3498 25C64.3498 25.3663 64.422 25.729 64.5621 26.0674C64.7023 26.4057 64.9077 26.7132 65.1667 26.9722L73.0279 34.8333C73.2861 35.0937 73.5933 35.3003 73.9318 35.4414C74.2703 35.5824 74.6334 35.655 75.0001 35.655C75.3668 35.655 75.7298 35.5824 76.0683 35.4414C76.4068 35.3003 76.7141 35.0937 76.9723 34.8333C77.2327 34.5751 77.4393 34.2679 77.5803 33.9294C77.7214 33.5909 77.794 33.2278 77.794 32.8611C77.794 32.4944 77.7214 32.1313 77.5803 31.7928C77.4393 31.4543 77.2327 31.1471 76.9723 30.8889Z" fill="white"/>
<defs>
<linearGradient id="paint0_linear_640_528" x1="50" y1="0" x2="50" y2="100" gradientUnits="userSpaceOnUse">
<stop stop-color="#71EA87"/>
<stop offset="1" stop-color="#24AA2D"/>
</linearGradient>
</defs>
</svg>
