<svg width="31" height="30" viewBox="0 0 31 30" fill="none" xmlns="http://www.w3.org/2000/svg">
<g clip-path="url(#clip0_1198_299)">
<rect x="0.666748" width="30" height="30" rx="5" fill="url(#paint0_linear_1198_299)"/>
<path d="M25.0394 15.0153C25.0394 15.0153 25.0394 18.0574 24.6535 19.5243C24.4372 20.3272 23.8041 20.9603 23.0012 21.1764C21.5343 21.5625 15.6666 21.5625 15.6666 21.5625C15.6666 21.5625 9.81436 21.5625 8.33212 21.161C7.52921 20.945 6.89612 20.3117 6.67982 19.5087C6.2937 18.0574 6.2937 15 6.2937 15C6.2937 15 6.2937 11.9582 6.67982 10.4913C6.89589 9.68834 7.54454 9.03969 8.33212 8.82362C9.79903 8.4375 15.6666 8.4375 15.6666 8.4375C15.6666 8.4375 21.5343 8.4375 23.0012 8.83896C23.8041 9.05502 24.4372 9.68834 24.6535 10.4913C25.0549 11.9582 25.0394 15.0153 25.0394 15.0153Z" fill="#1F1F1F"/>
<path d="M13.7983 17.8104L18.6776 15.0002L13.7983 12.1899V17.8104Z" fill="url(#paint1_linear_1198_299)"/>
</g>
<defs>
<linearGradient id="paint0_linear_1198_299" x1="1.00008" y1="14.4088" x2="29.3419" y2="14.8593" gradientUnits="userSpaceOnUse">
<stop stop-color="#DADADA"/>
<stop offset="1" stop-color="white"/>
</linearGradient>
<linearGradient id="paint1_linear_1198_299" x1="13.8526" y1="14.8894" x2="18.4625" y2="14.953" gradientUnits="userSpaceOnUse">
<stop stop-color="#DADADA"/>
<stop offset="1" stop-color="white"/>
</linearGradient>
<clipPath id="clip0_1198_299">
<rect width="30" height="30" fill="white" transform="translate(0.666748)"/>
</clipPath>
</defs>
</svg>
