<svg width="16" height="16" viewBox="0 0 16 16" fill="none" xmlns="http://www.w3.org/2000/svg">
<g clip-path="url(#clip0_1050_2771)">
<path fill-rule="evenodd" clip-rule="evenodd" d="M6.12554 10.2002C5.96956 10.1352 5.82799 10.0399 5.709 9.91998L3.2514 7.46238C3.01037 7.22135 2.87496 6.89444 2.87496 6.55358C2.87496 6.21271 3.01037 5.8858 3.2514 5.64478C3.49242 5.40375 3.81933 5.26834 4.1602 5.26834C4.50106 5.26834 4.82797 5.40375 5.069 5.64478L6.6178 7.20638L10.9314 2.87998C11.1724 2.63895 11.4993 2.50354 11.8402 2.50354C12.1811 2.50354 12.508 2.63895 12.749 2.87998C12.99 3.12101 13.1254 3.44791 13.1254 3.78878C13.1254 4.12964 12.99 4.45655 12.749 4.69758L7.5266 9.91998C7.4076 10.0399 7.26603 10.1352 7.11005 10.2002C6.95407 10.2651 6.78677 10.2986 6.6178 10.2986C6.44882 10.2986 6.28152 10.2651 6.12554 10.2002Z" fill="url(#paint0_linear_1050_2771)"/>
</g>
<defs>
<linearGradient id="paint0_linear_1050_2771" x1="8.0002" y1="-6.40002" x2="8.0002" y2="19.2" gradientUnits="userSpaceOnUse">
<stop stop-color="#71EA87"/>
<stop offset="1" stop-color="#24AA2D"/>
</linearGradient>
<clipPath id="clip0_1050_2771">
<rect width="16" height="16" fill="white"/>
</clipPath>
</defs>
</svg>
