<svg width="54" height="16" viewBox="0 0 54 16" fill="none" xmlns="http://www.w3.org/2000/svg">
<g clip-path="url(#clip0_1050_2712)">
<path d="M19.4961 15.5056L22.1969 0.501343H26.4169L23.8004 15.5056H19.4961Z" fill="#4285F4"/>
<path d="M19.4961 15.5056L22.9564 0.501343H26.4169L23.8004 15.5056H19.4961Z" fill="#4285F4"/>
<path d="M39.0742 0.666856C38.2303 0.333428 36.8799 0 35.1918 0C30.9719 0 27.9335 2.08392 27.9335 5.08477C27.9335 7.33541 30.0435 8.50241 31.7315 9.25263C33.4194 10.0028 33.9258 10.503 33.9258 11.1698C33.9258 12.1701 32.5755 12.6703 31.3939 12.6703C29.706 12.6703 28.7776 12.4202 27.3428 11.8367L26.7519 11.5866L26.1611 15.0043C27.1739 15.4211 29.0307 15.8379 30.9719 15.8379C35.4451 15.8379 38.399 13.7539 38.399 10.5863C38.399 8.83585 37.3019 7.50213 34.7698 6.41849C33.2507 5.66828 32.3223 5.25149 32.3223 4.50128C32.3223 3.83443 33.0819 3.16757 34.7698 3.16757C36.2046 3.16757 37.2174 3.41764 37.977 3.75107L38.399 3.91779L39.0742 0.666856Z" fill="#4285F4"/>
<path d="M39.0742 0.666856C38.2303 0.333428 36.8799 0 35.1918 0C30.9719 0 28.6931 2.08392 28.6931 5.08477C28.6931 7.33541 30.0435 8.50241 31.7315 9.25263C33.4194 10.0028 33.9258 10.503 33.9258 11.1698C33.9258 12.1701 32.5755 12.6703 31.3939 12.6703C29.706 12.6703 28.7776 12.4202 27.3428 11.8367L26.7519 11.5866L26.1611 15.0043C27.1739 15.4211 29.0307 15.8379 30.9719 15.8379C35.4451 15.8379 38.399 13.7539 38.399 10.5863C38.399 8.83585 37.3019 7.50213 34.7698 6.41849C33.2507 5.66828 32.3223 5.25149 32.3223 4.50128C32.3223 3.83443 33.0819 3.16757 34.7698 3.16757C36.2046 3.16757 37.2174 3.41764 37.977 3.75107L38.399 3.91779L39.0742 0.666856Z" fill="#4285F4"/>
<path d="M46.3349 0.501343C45.3221 0.501343 44.5624 0.5847 44.1404 1.58499L37.8105 15.5056H42.3681L43.2122 13.0049H48.6137L49.12 15.5056H53.1713L49.6264 0.501343H46.3349ZM44.3937 10.5042C44.6469 9.75397 46.0817 6.08627 46.0817 6.08627C46.0817 6.08627 46.4192 5.16933 46.6725 4.58584L46.9256 6.00291C46.9256 6.00291 47.7696 9.75397 47.9384 10.5875H44.3937V10.5042Z" fill="#4285F4"/>
<path d="M47.3476 0.501343C46.3349 0.501343 45.5753 0.5847 45.1533 1.58499L37.8105 15.5056H42.3681L43.2122 13.0049H48.6137L49.12 15.5056H53.1713L49.6264 0.501343H47.3476ZM44.3937 10.5042C44.7313 9.67063 46.0817 6.08627 46.0817 6.08627C46.0817 6.08627 46.4192 5.16933 46.6725 4.58584L46.9256 6.00291C46.9256 6.00291 47.7696 9.75397 47.9384 10.5875H44.3937V10.5042Z" fill="#4285F4"/>
<path d="M11.7303 11.0036L11.3083 8.83632C10.5487 6.33561 8.10116 3.58483 5.40039 2.25112L9.19835 15.5883H13.7559L20.5922 0.583984H16.0346L11.7303 11.0036Z" fill="#4285F4"/>
<path d="M11.7303 11.0036L11.3083 8.83632C10.5487 6.33561 8.10116 3.58483 5.40039 2.25112L9.19835 15.5883H13.7559L20.5922 0.583984H16.8786L11.7303 11.0036Z" fill="#4285F4"/>
<path d="M0 0.501343L0.759591 0.668057C6.16113 1.91841 9.87468 5.08599 11.3095 8.83705L9.79029 1.75169C9.53709 0.751413 8.7775 0.501343 7.84912 0.501343H0Z" fill="#4285F4"/>
<path d="M0 0.501343C5.40154 1.75169 9.87468 5.00263 11.3095 8.75369L9.87468 2.83535C9.62149 1.83505 8.7775 1.25156 7.84912 1.25156L0 0.501343Z" fill="#4285F4"/>
<path d="M0 0.501343C5.40154 1.75169 9.87468 5.00263 11.3095 8.75369L10.2967 5.50276C10.0435 4.50248 9.70589 3.5022 8.52431 3.08541L0 0.501343Z" fill="#4285F4"/>
<path d="M15.9528 10.5037L13.0832 7.66953L11.7328 10.8371L11.3952 8.75317C10.6357 6.25246 8.18807 3.50168 5.4873 2.16797L9.28526 15.5051H13.8428L15.9528 10.5037Z" fill="#4285F4"/>
<path d="M23.8053 15.5042L20.1762 11.8365L19.501 15.5042H23.8053Z" fill="#4285F4"/>
<path d="M33.5098 10.3365C33.8473 10.67 34.0162 10.9201 33.9318 11.2535C33.9318 12.2538 32.5814 12.7539 31.3997 12.7539C29.7118 12.7539 28.7834 12.5038 27.3486 11.9203L26.7578 11.6703L26.167 15.088C27.1798 15.5046 29.0366 15.9214 30.9777 15.9214C33.6785 15.9214 35.873 15.1713 37.1388 13.8376L33.5098 10.3365Z" fill="#4285F4"/>
<path d="M38.4043 15.5051H42.371L43.215 13.0044H48.6165L49.1229 15.5051H53.1741L51.7393 9.42005L46.6753 4.58533L46.9286 5.91905C46.9286 5.91905 47.7725 9.67011 47.9414 10.5037H44.3965C44.7342 9.67011 46.0846 6.08577 46.0846 6.08577C46.0846 6.08577 46.4222 5.16883 46.6753 4.58533" fill="#4285F4"/>
</g>
<defs>
<clipPath id="clip0_1050_2712">
<rect width="54" height="16" fill="white"/>
</clipPath>
</defs>
</svg>
