<svg width="16" height="16" viewBox="0 0 16 16" fill="none" xmlns="http://www.w3.org/2000/svg">
<path d="M14.2135 6.36671L12.9535 5.94671L13.5468 4.76004C13.607 4.63583 13.6271 4.49602 13.6044 4.35989C13.5817 4.22376 13.5173 4.09803 13.4202 4.00004L12.0002 2.58004C11.9017 2.48143 11.7747 2.41618 11.6372 2.39346C11.4997 2.37074 11.3585 2.39169 11.2335 2.45338L10.0468 3.04671L9.62683 1.78671C9.58247 1.65537 9.49828 1.54113 9.38596 1.45987C9.27364 1.37862 9.13879 1.33441 9.00016 1.33338H7.00016C6.8604 1.33302 6.72406 1.37659 6.61041 1.45794C6.49676 1.53929 6.41156 1.6543 6.36683 1.78671L5.94683 3.04671L4.76016 2.45338C4.63596 2.39323 4.49614 2.37311 4.36001 2.3958C4.22389 2.41849 4.09815 2.48286 4.00016 2.58004L2.58016 4.00004C2.48156 4.09855 2.4163 4.22549 2.39358 4.36301C2.37086 4.50053 2.39182 4.64172 2.4535 4.76671L3.04683 5.95338L1.78683 6.37338C1.65549 6.41773 1.54125 6.50193 1.46 6.61425C1.37875 6.72657 1.33453 6.86142 1.3335 7.00004V9.00004C1.33314 9.1398 1.37671 9.27615 1.45806 9.38979C1.53941 9.50344 1.65442 9.58865 1.78683 9.63338L3.04683 10.0534L2.4535 11.24C2.39335 11.3643 2.37323 11.5041 2.39592 11.6402C2.41861 11.7763 2.48299 11.9021 2.58016 12L4.00016 13.42C4.09867 13.5187 4.22562 13.5839 4.36314 13.6066C4.50066 13.6293 4.64184 13.6084 4.76683 13.5467L5.9535 12.9534L6.3735 14.2134C6.41822 14.3458 6.50343 14.4608 6.61708 14.5421C6.73073 14.6235 6.86707 14.6671 7.00683 14.6667H9.00683C9.14659 14.6671 9.28293 14.6235 9.39658 14.5421C9.51023 14.4608 9.59544 14.3458 9.64016 14.2134L10.0602 12.9534L11.2468 13.5467C11.3702 13.6053 11.5087 13.6246 11.6434 13.602C11.7782 13.5793 11.9027 13.5158 12.0002 13.42L13.4202 12C13.5188 11.9015 13.584 11.7746 13.6067 11.6371C13.6295 11.4996 13.6085 11.3584 13.5468 11.2334L12.9535 10.0467L14.2135 9.62671C14.3448 9.58235 14.4591 9.49816 14.5403 9.38584C14.6216 9.27352 14.6658 9.13866 14.6668 9.00004V7.00004C14.6672 6.86028 14.6236 6.72394 14.5423 6.61029C14.4609 6.49664 14.3459 6.41143 14.2135 6.36671ZM13.3335 8.52004L12.5335 8.78671C12.3495 8.84638 12.1808 8.94536 12.0389 9.07678C11.897 9.20819 11.7854 9.36891 11.7118 9.54776C11.6382 9.72662 11.6045 9.91934 11.6128 10.1126C11.6212 10.3058 11.6714 10.4949 11.7602 10.6667L12.1402 11.4267L11.4068 12.16L10.6668 11.76C10.4959 11.6749 10.3086 11.6274 10.1177 11.6209C9.92681 11.6144 9.73674 11.649 9.56038 11.7223C9.38401 11.7956 9.22545 11.906 9.09544 12.0459C8.96544 12.1859 8.86701 12.3521 8.80683 12.5334L8.54016 13.3334H7.48016L7.2135 12.5334C7.15383 12.3494 7.05485 12.1806 6.92343 12.0387C6.79201 11.8969 6.6313 11.7853 6.45244 11.7117C6.27359 11.6381 6.08087 11.6043 5.88765 11.6127C5.69443 11.621 5.50534 11.6713 5.3335 11.76L4.5735 12.14L3.84016 11.4067L4.24016 10.6667C4.32889 10.4949 4.37918 10.3058 4.38753 10.1126C4.39588 9.91934 4.3621 9.72662 4.28852 9.54776C4.21495 9.36891 4.10335 9.20819 3.96146 9.07678C3.81957 8.94536 3.65079 8.84638 3.46683 8.78671L2.66683 8.52004V7.48004L3.46683 7.21338C3.65079 7.1537 3.81957 7.05473 3.96146 6.92331C4.10335 6.79189 4.21495 6.63118 4.28852 6.45232C4.3621 6.27347 4.39588 6.08074 4.38753 5.88753C4.37918 5.69431 4.32889 5.50522 4.24016 5.33338L3.86016 4.59338L4.5935 3.86004L5.3335 4.24004C5.50534 4.32877 5.69443 4.37906 5.88765 4.38741C6.08087 4.39576 6.27359 4.36197 6.45244 4.2884C6.6313 4.21483 6.79201 4.10323 6.92343 3.96134C7.05485 3.81945 7.15383 3.65067 7.2135 3.46671L7.48016 2.66671H8.52016L8.78683 3.46671C8.8465 3.65067 8.94548 3.81945 9.0769 3.96134C9.20832 4.10323 9.36903 4.21483 9.54788 4.2884C9.72674 4.36197 9.91946 4.39576 10.1127 4.38741C10.3059 4.37906 10.495 4.32877 10.6668 4.24004L11.4268 3.86004L12.1602 4.59338L11.7602 5.33338C11.675 5.50434 11.6275 5.69161 11.621 5.8825C11.6145 6.0734 11.6491 6.26346 11.7224 6.43983C11.7958 6.6162 11.9061 6.77475 12.0461 6.90476C12.186 7.03477 12.3522 7.1332 12.5335 7.19338L13.3335 7.46004V8.52004ZM8.00016 5.33338C7.47275 5.33338 6.95718 5.48977 6.51864 5.78279C6.08011 6.07581 5.73832 6.49228 5.53649 6.97955C5.33465 7.46682 5.28184 8.003 5.38474 8.52028C5.48763 9.03757 5.74161 9.51272 6.11455 9.88566C6.48749 10.2586 6.96264 10.5126 7.47992 10.6155C7.99721 10.7184 8.53338 10.6656 9.02065 10.4637C9.50792 10.2619 9.9244 9.92009 10.2174 9.48156C10.5104 9.04303 10.6668 8.52746 10.6668 8.00004C10.6668 7.2928 10.3859 6.61452 9.88578 6.11442C9.38568 5.61433 8.70741 5.33338 8.00016 5.33338ZM8.00016 9.33337C7.73646 9.33337 7.47867 9.25518 7.2594 9.10867C7.04014 8.96216 6.86924 8.75392 6.76832 8.51029C6.66741 8.26665 6.641 7.99856 6.69245 7.73992C6.7439 7.48128 6.87089 7.2437 7.05736 7.05723C7.24383 6.87076 7.4814 6.74378 7.74004 6.69233C7.99869 6.64088 8.26677 6.66729 8.51041 6.7682C8.75404 6.86912 8.96228 7.04002 9.10879 7.25928C9.2553 7.47855 9.3335 7.73633 9.3335 8.00004C9.3335 8.35366 9.19302 8.6928 8.94297 8.94285C8.69292 9.1929 8.35379 9.33337 8.00016 9.33337Z" fill="url(#paint0_linear_1287_2444)"/>
<defs>
<linearGradient id="paint0_linear_1287_2444" x1="8.00016" y1="1.33337" x2="8.00016" y2="14.6667" gradientUnits="userSpaceOnUse">
<stop stop-color="#71EA87"/>
<stop offset="1" stop-color="#24AA2D"/>
</linearGradient>
</defs>
</svg>
