<svg width="16" height="16" viewBox="0 0 16 16" fill="none" xmlns="http://www.w3.org/2000/svg">
<path d="M13.3335 8.00004C13.3335 8.17685 13.2633 8.34642 13.1382 8.47144C13.0132 8.59647 12.8436 8.66671 12.6668 8.66671H7.60683L9.14016 10.1934C9.20265 10.2553 9.25224 10.3291 9.28609 10.4103C9.31994 10.4916 9.33736 10.5787 9.33736 10.6667C9.33736 10.7547 9.31994 10.8419 9.28609 10.9231C9.25224 11.0043 9.20265 11.0781 9.14016 11.14C9.07819 11.2025 9.00445 11.2521 8.92321 11.286C8.84197 11.3198 8.75484 11.3372 8.66683 11.3372C8.57882 11.3372 8.49168 11.3198 8.41044 11.286C8.32921 11.2521 8.25547 11.2025 8.1935 11.14L5.52683 8.47337C5.46614 8.40997 5.41856 8.33521 5.38683 8.25337C5.32015 8.09107 5.32015 7.90901 5.38683 7.74671C5.41856 7.66487 5.46614 7.59011 5.52683 7.52671L8.1935 4.86004C8.25565 4.79788 8.32945 4.74857 8.41066 4.71493C8.49188 4.68129 8.57892 4.66398 8.66683 4.66398C8.75474 4.66398 8.84178 4.68129 8.923 4.71493C9.00421 4.74857 9.078 4.79788 9.14016 4.86004C9.20232 4.9222 9.25163 4.99599 9.28527 5.07721C9.31891 5.15842 9.33622 5.24547 9.33622 5.33337C9.33622 5.42128 9.31891 5.50833 9.28527 5.58954C9.25163 5.67075 9.20232 5.74455 9.14016 5.80671L7.60683 7.33337H12.6668C12.8436 7.33337 13.0132 7.40361 13.1382 7.52864C13.2633 7.65366 13.3335 7.82323 13.3335 8.00004ZM4.66683 1.33337H11.3335C11.8639 1.33337 12.3726 1.54409 12.7477 1.91916C13.1228 2.29423 13.3335 2.80294 13.3335 3.33337V5.33337C13.3335 5.51018 13.2633 5.67975 13.1382 5.80478C13.0132 5.9298 12.8436 6.00004 12.6668 6.00004C12.49 6.00004 12.3204 5.9298 12.1954 5.80478C12.0704 5.67975 12.0002 5.51018 12.0002 5.33337V3.33337C12.0002 3.15656 11.9299 2.98699 11.8049 2.86197C11.6799 2.73695 11.5103 2.66671 11.3335 2.66671H4.66683C4.49002 2.66671 4.32045 2.73695 4.19542 2.86197C4.0704 2.98699 4.00016 3.15656 4.00016 3.33337V12.6667C4.00016 12.8435 4.0704 13.0131 4.19542 13.1381C4.32045 13.2631 4.49002 13.3334 4.66683 13.3334H11.3335C11.5103 13.3334 11.6799 13.2631 11.8049 13.1381C11.9299 13.0131 12.0002 12.8435 12.0002 12.6667V10.6667C12.0002 10.4899 12.0704 10.3203 12.1954 10.1953C12.3204 10.0703 12.49 10 12.6668 10C12.8436 10 13.0132 10.0703 13.1382 10.1953C13.2633 10.3203 13.3335 10.4899 13.3335 10.6667V12.6667C13.3335 13.1971 13.1228 13.7058 12.7477 14.0809C12.3726 14.456 11.8639 14.6667 11.3335 14.6667H4.66683C4.1364 14.6667 3.62769 14.456 3.25261 14.0809C2.87754 13.7058 2.66683 13.1971 2.66683 12.6667V3.33337C2.66683 2.80294 2.87754 2.29423 3.25261 1.91916C3.62769 1.54409 4.1364 1.33337 4.66683 1.33337Z" fill="url(#paint0_linear_1287_2469)"/>
<defs>
<linearGradient id="paint0_linear_1287_2469" x1="8.00016" y1="1.33337" x2="8.00016" y2="14.6667" gradientUnits="userSpaceOnUse">
<stop stop-color="#71EA87"/>
<stop offset="1" stop-color="#24AA2D"/>
</linearGradient>
</defs>
</svg>
